SplineFontDB: 3.2
FontName: ATM054-Regular
FullName: ATM054-Regular
FamilyName: ATM 054
Weight: Book
Copyright: AzhaguThamizh
Version: 1.001
ItalicAngle: -11
UnderlinePosition: -271
UnderlineWidth: 102
Ascent: 1600
Descent: 400
InvalidEm: 0
sfntRevision: 0x00010042
LayerCount: 2
Layer: 0 1 "Back" 1
Layer: 1 1 "Fore" 0
XUID: [1021 192 2086997156 1476]
StyleMap: 0x0040
FSType: 8
OS2Version: 3
OS2_WeightWidthSlopeOnly: 0
OS2_UseTypoMetrics: 0
CreationTime: 1536305763
ModificationTime: 1545736826
PfmFamily: 17
TTFWeight: 400
TTFWidth: 5
LineGap: 0
VLineGap: 0
Panose: 2 11 6 4 2 2 2 2 2 4
OS2TypoAscent: 2000
OS2TypoAOffset: 0
OS2TypoDescent: -1320
OS2TypoDOffset: 0
OS2TypoLinegap: 0
OS2WinAscent: 2000
OS2WinAOffset: 0
OS2WinDescent: 744
OS2WinDOffset: 0
HheadAscent: 2000
HheadAOffset: 0
HheadDescent: -1320
HheadDOffset: 0
OS2SubXSize: 1400
OS2SubYSize: 1300
OS2SubXOff: 0
OS2SubYOff: 0
OS2SupXSize: 1400
OS2SupYSize: 1300
OS2SupXOff: 0
OS2SupYOff: 0
OS2StrikeYSize: 100
OS2StrikeYPos: 518
OS2CapHeight: 1586
OS2XHeight: -200
OS2Vendor: '    '
OS2CodePages: 00000001.00000000
OS2UnicodeRanges: 00100003.00000000.00000000.00000000
Lookup: 4 0 0 "'akhn' Akhand in Tamil2 lookup 0" { "'akhn' Akhand in Tamil2 lookup 0 subtable"  } ['akhn' ('tml2' <'dflt' > ) ]
Lookup: 4 0 0 "'akhn' Akhand in Tamil lookup 1" { "'akhn' Akhand in Tamil lookup 1 subtable"  } ['akhn' ('taml' <'dflt' > ) ]
Lookup: 4 0 0 "'half' Half Forms in Tamil lookup 2" { "'half' Half Forms in Tamil lookup 2 subtable"  } ['half' ('taml' <'dflt' > ) ]
Lookup: 4 0 0 "'haln' Halant Forms in Tamil2 lookup 3" { "'haln' Halant Forms in Tamil2 lookup 3 subtable"  } ['haln' ('tml2' <'dflt' > ) ]
Lookup: 4 0 0 "'haln' Halant Forms in Tamil lookup 4" { "'haln' Halant Forms in Tamil lookup 4 subtable"  } ['haln' ('taml' <'dflt' > ) ]
Lookup: 4 0 0 "'abvs' Above Base Substitutions lookup 5" { "'abvs' Above Base Substitutions lookup 5 subtable"  } ['abvs' ('taml' <'dflt' > 'tml2' <'dflt' > ) ]

StartChar: .notdef
Encoding: 65536 -1 0
Width: 1600
Flags: W
LayerCount: 2
Fore
SplineSet
100 0 m 1,0,-1
 100 1600 l 1,1,-1
 1500 1600 l 1,2,-1
 1500 0 l 1,3,-1
 100 0 l 1,0,-1
1400 100 m 1,4,-1
 1400 1500 l 1,5,-1
 200 1500 l 1,6,-1
 200 100 l 1,7,-1
 1400 100 l 1,4,-1
EndSplineSet
EndChar

StartChar: exclam
Encoding: 33 33 4
Width: 640
GlyphClass: 2
Flags: W
LayerCount: 2
Fore
SplineSet
212 36 m 1,0,1
 182 0 182 0 128 0 c 0,2,3
 100 0 100 0 58 30 c 1,4,5
 26 62 26 62 26 120 c 0,6,7
 26 162 26 162 56 198 c 128,-1,8
 86 234 86 234 132 234 c 0,9,10
 166 234 166 234 202 204 c 0,11,12
 220 186 220 186 242 130 c 1,13,-1
 242 116 l 2,14,15
 242 88 242 88 212 36 c 1,0,1
530 1198 m 1,16,-1
 430 958 l 1,17,-1
 390 850 l 1,18,-1
 352 738 l 1,19,-1
 314 610 l 1,20,-1
 282 490 l 2,21,22
 276 460 276 460 261 439 c 128,-1,23
 246 418 246 418 214 418 c 2,24,-1
 206 418 l 2,25,26
 184 418 184 418 168 432 c 1,27,28
 156 448 156 448 150 474 c 1,29,30
 150 536 150 536 180 662 c 2,31,-1
 194 718 l 2,32,33
 200 752 200 752 214 780 c 2,34,-1
 256 898 l 1,35,-1
 294 996 l 1,36,-1
 334 1094 l 1,37,-1
 388 1216 l 1,38,-1
 440 1322 l 2,39,40
 488 1418 488 1418 510 1424 c 2,41,-1
 530 1430 l 1,42,-1
 546 1436 l 1,43,-1
 564 1432 l 1,44,-1
 580 1426 l 1,45,-1
 606 1402 l 1,46,-1
 614 1372 l 1,47,-1
 612 1360 l 1,48,-1
 610 1350 l 1,49,-1
 604 1338 l 1,50,-1
 598 1328 l 1,51,-1
 530 1198 l 1,16,-1
EndSplineSet
EndChar

StartChar: quotedbl
Encoding: 34 34 5
Width: 816
GlyphClass: 2
Flags: W
LayerCount: 2
Fore
SplineSet
150 1072 m 1,0,-1
 132 1172 l 1,1,-1
 128 1234 l 1,2,-1
 134 1288 l 2,3,4
 140 1310 140 1310 152 1324 c 1,5,-1
 186 1346 l 1,6,-1
 224 1354 l 1,7,8
 246 1354 246 1354 264 1346 c 1,9,10
 274 1346 274 1346 292 1328 c 1,11,-1
 316 1290 l 1,12,-1
 324 1248 l 1,13,-1
 316 1184 l 1,14,-1
 298 1072 l 1,15,-1
 246 784 l 1,16,-1
 204 784 l 1,17,-1
 150 1072 l 1,0,-1
508 1068 m 1,18,-1
 488 1186 l 1,19,-1
 486 1210 l 1,20,-1
 486 1236 l 1,21,-1
 492 1288 l 1,22,23
 500 1314 500 1314 510 1324 c 2,24,-1
 544 1346 l 1,25,-1
 584 1354 l 1,26,27
 606 1354 606 1354 623 1347 c 128,-1,28
 640 1340 640 1340 652 1328 c 1,29,30
 664 1322 664 1322 676 1292 c 1,31,-1
 682 1250 l 1,32,-1
 682 1218 l 1,33,-1
 682 1192 l 1,34,-1
 678 1162 l 1,35,-1
 674 1122 l 1,36,-1
 664 1070 l 1,37,-1
 608 784 l 1,38,-1
 562 784 l 1,39,-1
 508 1068 l 1,18,-1
EndSplineSet
EndChar

StartChar: numbersign
Encoding: 35 35 6
Width: 1212
GlyphClass: 2
Flags: W
LayerCount: 2
Fore
SplineSet
1068 584 m 1,0,-1
 1068 434 l 1,1,-1
 856 434 l 1,2,-1
 792 0 l 1,3,-1
 638 0 l 1,4,-1
 702 434 l 1,5,-1
 486 434 l 1,6,-1
 422 0 l 1,7,-1
 270 0 l 1,8,-1
 334 434 l 1,9,-1
 126 434 l 1,10,-1
 126 584 l 1,11,-1
 358 584 l 1,12,-1
 392 798 l 1,13,-1
 182 798 l 1,14,-1
 182 948 l 1,15,-1
 414 948 l 1,16,-1
 474 1354 l 1,17,-1
 622 1354 l 1,18,-1
 564 948 l 1,19,-1
 778 948 l 1,20,-1
 836 1354 l 1,21,-1
 990 1354 l 1,22,-1
 930 948 l 1,23,-1
 1118 948 l 1,24,-1
 1118 798 l 1,25,-1
 908 798 l 1,26,-1
 878 584 l 1,27,-1
 1068 584 l 1,0,-1
756 798 m 1,28,-1
 542 798 l 1,29,-1
 510 584 l 1,30,-1
 722 584 l 1,31,-1
 756 798 l 1,28,-1
EndSplineSet
EndChar

StartChar: dollar
Encoding: 36 36 7
Width: 1000
GlyphClass: 2
Flags: W
LayerCount: 2
Fore
SplineSet
308 -218 m 1,0,-1
 342 -16 l 1,1,2
 256 -16 256 -16 198 4 c 0,3,4
 130 24 130 24 32 78 c 1,5,-1
 60 214 l 1,6,-1
 72 294 l 1,7,-1
 80 366 l 1,8,-1
 148 366 l 1,9,-1
 140 212 l 1,10,11
 192 126 192 126 358 82 c 1,12,-1
 440 572 l 1,13,14
 268 604 268 604 206 666 c 0,15,16
 120 746 120 746 120 888 c 0,17,18
 120 1060 120 1060 238 1186 c 128,-1,19
 356 1312 356 1312 572 1342 c 1,20,-1
 588 1478 l 1,21,-1
 670 1474 l 1,22,-1
 648 1344 l 1,23,24
 734 1344 734 1344 794 1324 c 0,25,26
 824 1318 824 1318 860 1300 c 2,27,-1
 934 1262 l 1,28,-1
 898 1122 l 2,29,30
 886 1062 886 1062 886 994 c 1,31,-1
 822 996 l 1,32,-1
 828 1104 l 1,33,-1
 826 1134 l 1,34,35
 778 1210 778 1210 634 1244 c 1,36,-1
 556 780 l 1,37,38
 748 744 748 744 828 664 c 0,39,40
 868 628 868 628 888 574 c 128,-1,41
 908 520 908 520 908 456 c 0,42,43
 908 336 908 336 847 232 c 128,-1,44
 786 128 786 128 660 56 c 128,-1,45
 534 -16 534 -16 422 -16 c 1,46,-1
 388 -218 l 1,47,-1
 308 -218 l 1,0,-1
554 1246 m 1,48,49
 496 1246 496 1246 476 1236 c 1,50,51
 442 1230 442 1230 406 1208 c 0,52,53
 348 1174 348 1174 316 1114 c 1,54,-1
 292 1052 l 1,55,-1
 284 978 l 1,56,57
 284 914 284 914 322 874 c 0,58,59
 354 846 354 846 480 800 c 1,60,-1
 554 1246 l 1,48,49
438 80 m 1,61,62
 504 80 504 80 550 97 c 128,-1,63
 596 114 596 114 638 154 c 0,64,65
 716 232 716 232 716 350 c 0,66,67
 716 398 716 398 697 438 c 128,-1,68
 678 478 678 478 638 504 c 1,69,70
 614 526 614 526 516 552 c 1,71,-1
 438 80 l 1,61,62
EndSplineSet
EndChar

StartChar: percent
Encoding: 37 37 8
Width: 1778
GlyphClass: 2
Flags: W
LayerCount: 2
Fore
SplineSet
128 836 m 0,0,1
 128 1090 128 1090 242 1256 c 0,2,3
 332 1382 332 1382 468 1382 c 0,4,5
 574 1382 574 1382 641 1304 c 128,-1,6
 708 1226 708 1226 708 1066 c 0,7,8
 708 844 708 844 611 691 c 128,-1,9
 514 538 514 538 364 538 c 0,10,11
 264 538 264 538 196 615 c 128,-1,12
 128 692 128 692 128 836 c 0,0,1
292 712 m 2,13,14
 292 654 292 654 312 628 c 1,15,16
 336 604 336 604 368 604 c 0,17,18
 404 604 404 604 427 633 c 128,-1,19
 450 662 450 662 498 858 c 1,20,-1
 530 1038 l 2,21,22
 542 1128 542 1128 542 1204 c 0,23,24
 542 1266 542 1266 520 1288 c 1,25,26
 502 1316 502 1316 464 1316 c 0,27,28
 434 1316 434 1316 410 1290 c 0,29,30
 374 1248 374 1248 332 1064 c 1,31,-1
 302 886 l 1,32,-1
 292 770 l 1,33,-1
 292 712 l 2,13,14
414 -2 m 1,34,-1
 486 106 l 1,35,-1
 584 260 l 1,36,-1
 1124 1140 l 1,37,-1
 1246 1364 l 1,38,-1
 1334 1356 l 1,39,-1
 1384 1356 l 1,40,41
 1380 1350 1380 1350 1336 1284 c 0,42,43
 1242 1140 1242 1140 1214 1098 c 2,44,-1
 672 214 l 2,45,46
 624 130 624 130 594 76 c 128,-1,47
 564 22 564 22 552 -4 c 1,48,-1
 476 0 l 1,49,-1
 414 -2 l 1,34,-1
1086 282 m 0,50,51
 1086 412 1086 412 1112 510 c 0,52,53
 1126 562 1126 562 1146 609 c 128,-1,54
 1166 656 1166 656 1200 704 c 0,55,56
 1288 828 1288 828 1426 828 c 0,57,58
 1530 828 1530 828 1598 751 c 128,-1,59
 1666 674 1666 674 1666 512 c 0,60,61
 1666 292 1666 292 1569 138 c 128,-1,62
 1472 -16 1472 -16 1322 -16 c 0,63,64
 1222 -16 1222 -16 1152 60 c 1,65,66
 1086 142 1086 142 1086 282 c 0,50,51
1250 158 m 2,67,68
 1250 100 1250 100 1270 72 c 1,69,70
 1292 50 1292 50 1326 50 c 0,71,72
 1362 50 1362 50 1382 76 c 0,73,74
 1412 112 1412 112 1456 304 c 0,75,76
 1466 352 1466 352 1474 394 c 128,-1,77
 1482 436 1482 436 1489 481 c 128,-1,78
 1496 526 1496 526 1498 564 c 128,-1,79
 1500 602 1500 602 1500 650 c 0,80,81
 1500 710 1500 710 1478 734 c 1,82,83
 1460 762 1460 762 1422 762 c 0,84,85
 1404 762 1404 762 1370 738 c 1,86,-1
 1330 658 l 1,87,-1
 1290 508 l 1,88,-1
 1260 332 l 1,89,-1
 1250 216 l 1,90,-1
 1250 158 l 2,67,68
EndSplineSet
EndChar

StartChar: ampersand
Encoding: 38 38 9
Width: 1666
GlyphClass: 2
Flags: W
LayerCount: 2
Fore
SplineSet
1494 1060 m 1,0,1
 1614 1004 1614 1004 1614 884 c 0,2,3
 1614 810 1614 810 1582 758 c 0,4,5
 1556 710 1556 710 1492 670 c 1,6,-1
 1450 648 l 1,7,-1
 1398 630 l 1,8,-1
 1314 622 l 1,9,-1
 1230 606 l 1,10,11
 1284 588 1284 588 1320 538 c 1,12,13
 1348 492 1348 492 1348 432 c 0,14,15
 1348 248 1348 248 1126 108 c 1,16,-1
 1070 76 l 1,17,-1
 1008 46 l 1,18,-1
 952 26 l 1,19,-1
 892 8 l 1,20,21
 762 -26 762 -26 632 -26 c 0,22,23
 402 -26 402 -26 266 82 c 1,24,25
 138 192 138 192 138 362 c 0,26,27
 138 498 138 498 226 592 c 0,28,29
 330 706 330 706 542 772 c 1,30,31
 456 784 456 784 404 842 c 1,32,33
 354 904 354 904 354 988 c 0,34,35
 354 1086 354 1086 416 1156 c 0,36,37
 444 1188 444 1188 492 1224 c 2,38,-1
 602 1304 l 1,39,40
 726 1382 726 1382 860 1382 c 0,41,42
 906 1382 906 1382 978 1370 c 1,43,-1
 1028 1356 l 1,44,-1
 1088 1332 l 1,45,-1
 1060 1212 l 2,46,47
 1048 1146 1048 1146 1048 1078 c 1,48,-1
 988 1078 l 1,49,-1
 984 1198 l 1,50,51
 954 1228 954 1228 892 1256 c 1,52,-1
 842 1270 l 1,53,-1
 786 1276 l 1,54,55
 680 1276 680 1276 612 1215 c 128,-1,56
 544 1154 544 1154 544 1064 c 0,57,58
 544 972 544 972 608 908 c 1,59,60
 674 848 674 848 778 848 c 1,61,-1
 828 852 l 1,62,-1
 802 736 l 1,63,-1
 728 738 l 1,64,-1
 652 732 l 1,65,-1
 616 726 l 2,66,67
 592 722 592 722 572 710 c 1,68,69
 492 686 492 686 433 605 c 128,-1,70
 374 524 374 524 374 416 c 0,71,72
 374 274 374 274 476 178 c 128,-1,73
 578 82 578 82 760 82 c 0,74,75
 932 82 932 82 1046 172 c 128,-1,76
 1160 262 1160 262 1160 386 c 0,77,78
 1160 468 1160 468 1114 517 c 128,-1,79
 1068 566 1068 566 998 566 c 0,80,81
 948 566 948 566 900 530 c 1,82,-1
 874 488 l 1,83,-1
 848 402 l 1,84,-1
 798 402 l 1,85,-1
 818 618 l 1,86,87
 860 660 860 660 917 685 c 128,-1,88
 974 710 974 710 1116 736 c 1,89,-1
 1302 762 l 2,90,91
 1440 780 1440 780 1492 820 c 1,92,93
 1540 862 1540 862 1540 914 c 0,94,95
 1540 980 1540 980 1464 1010 c 1,96,-1
 1464 1024 l 1,97,-1
 1494 1060 l 1,0,1
EndSplineSet
EndChar

StartChar: quotesingle
Encoding: 39 39 10
Width: 434
GlyphClass: 2
Flags: W
LayerCount: 2
Fore
SplineSet
372 1128 m 0,0,1
 366 1102 366 1102 338 1047 c 128,-1,2
 310 992 310 992 258 934 c 0,3,4
 214 880 214 880 148 840 c 1,5,-1
 124 828 l 1,6,-1
 102 820 l 1,7,-1
 96 818 l 1,8,-1
 88 818 l 1,9,-1
 78 822 l 1,10,-1
 68 830 l 1,11,-1
 56 860 l 1,12,-1
 54 870 l 1,13,-1
 54 878 l 1,14,-1
 58 896 l 1,15,-1
 62 904 l 1,16,-1
 68 914 l 1,17,-1
 98 942 l 1,18,-1
 148 992 l 1,19,-1
 186 1034 l 1,20,-1
 216 1080 l 1,21,-1
 220 1090 l 1,22,-1
 224 1100 l 1,23,-1
 210 1102 l 1,24,-1
 196 1110 l 1,25,-1
 156 1146 l 1,26,-1
 128 1194 l 1,27,-1
 120 1216 l 1,28,-1
 118 1238 l 1,29,30
 118 1296 118 1296 153 1342 c 128,-1,31
 188 1388 188 1388 250 1388 c 0,32,33
 304 1388 304 1388 344 1330 c 1,34,35
 386 1278 386 1278 386 1202 c 0,36,37
 386 1170 386 1170 372 1128 c 0,0,1
EndSplineSet
EndChar

StartChar: parenleft
Encoding: 40 40 11
Width: 714
GlyphClass: 2
Flags: W
LayerCount: 2
Fore
SplineSet
446 1152 m 1,0,1
 404 1092 404 1092 372 1036 c 128,-1,2
 340 980 340 980 310 912 c 0,3,4
 264 794 264 794 234 646 c 1,5,-1
 216 512 l 1,6,-1
 212 428 l 1,7,-1
 212 416 l 1,8,-1
 212 404 l 1,9,-1
 212 348 l 1,10,-1
 220 260 l 1,11,12
 220 202 220 202 224 190 c 2,13,-1
 242 106 l 1,14,-1
 256 20 l 1,15,-1
 262 -12 l 1,16,-1
 284 -88 l 2,17,18
 292 -120 292 -120 301 -146 c 128,-1,19
 310 -172 310 -172 330 -214 c 2,20,-1
 342 -240 l 1,21,-1
 354 -272 l 1,22,-1
 360 -288 l 1,23,-1
 368 -306 l 1,24,-1
 384 -358 l 1,25,-1
 392 -404 l 1,26,-1
 390 -414 l 1,27,-1
 386 -426 l 1,28,-1
 366 -452 l 2,29,30
 360 -464 360 -464 334 -466 c 1,31,-1
 318 -462 l 1,32,-1
 300 -448 l 1,33,-1
 272 -410 l 1,34,-1
 242 -356 l 1,35,-1
 210 -274 l 1,36,-1
 166 -144 l 1,37,-1
 134 -12 l 1,38,-1
 102 132 l 1,39,-1
 82 282 l 1,40,-1
 76 424 l 1,41,-1
 76 432 l 1,42,-1
 76 440 l 1,43,-1
 76 448 l 1,44,-1
 76 456 l 1,45,-1
 82 556 l 1,46,-1
 90 624 l 1,47,-1
 102 690 l 1,48,49
 108 748 108 748 132 826 c 2,50,-1
 152 894 l 1,51,-1
 184 968 l 2,52,53
 204 1018 204 1018 214 1038 c 128,-1,54
 224 1058 224 1058 248 1100 c 0,55,56
 286 1170 286 1170 334 1232 c 0,57,58
 430 1360 430 1360 588 1462 c 1,59,-1
 608 1472 l 1,60,-1
 628 1476 l 1,61,62
 652 1476 652 1476 666 1456 c 2,63,-1
 686 1416 l 1,64,-1
 688 1408 l 1,65,-1
 688 1400 l 2,66,67
 688 1386 688 1386 684 1378 c 2,68,-1
 672 1362 l 1,69,70
 618 1326 618 1326 558 1272 c 0,71,72
 538 1254 538 1254 518 1232 c 0,73,74
 488 1200 488 1200 446 1152 c 1,0,1
EndSplineSet
EndChar

StartChar: parenright
Encoding: 41 41 12
Width: 710
GlyphClass: 2
Flags: W
LayerCount: 2
Fore
SplineSet
634 438 m 1,0,-1
 634 418 l 1,1,-1
 634 352 l 1,2,-1
 626 280 l 1,3,-1
 608 134 l 2,4,5
 588 -28 588 -28 550 -134 c 1,6,7
 534 -196 534 -196 512 -252 c 0,8,9
 502 -286 502 -286 493 -308 c 128,-1,10
 484 -330 484 -330 470 -354 c 2,11,-1
 440 -410 l 2,12,13
 428 -436 428 -436 412 -448 c 2,14,-1
 402 -456 l 1,15,-1
 394 -462 l 1,16,-1
 382 -464 l 1,17,-1
 374 -466 l 2,18,19
 358 -466 358 -466 344 -452 c 2,20,-1
 324 -426 l 1,21,-1
 318 -414 l 1,22,-1
 318 -404 l 1,23,-1
 324 -358 l 1,24,-1
 342 -306 l 1,25,-1
 348 -292 l 1,26,-1
 354 -278 l 1,27,-1
 368 -244 l 1,28,-1
 380 -214 l 1,29,-1
 404 -148 l 1,30,-1
 430 -62 l 1,31,-1
 468 106 l 1,32,-1
 492 274 l 1,33,-1
 500 428 l 1,34,-1
 500 470 l 1,35,-1
 500 502 l 1,36,-1
 496 532 l 1,37,-1
 496 554 l 2,38,39
 496 566 496 566 492 582 c 2,40,-1
 478 646 l 1,41,42
 460 760 460 760 404 902 c 128,-1,43
 348 1044 348 1044 264 1154 c 0,44,45
 222 1214 222 1214 163 1268 c 128,-1,46
 104 1322 104 1322 38 1362 c 1,47,-1
 26 1378 l 1,48,-1
 22 1400 l 1,49,-1
 22 1408 l 1,50,-1
 24 1416 l 1,51,52
 24 1436 24 1436 40 1453 c 128,-1,53
 56 1470 56 1470 84 1476 c 1,54,-1
 108 1470 l 1,55,-1
 122 1462 l 2,56,57
 200 1414 200 1414 260 1360 c 128,-1,58
 320 1306 320 1306 368 1238 c 0,59,60
 464 1110 464 1110 524 970 c 1,61,62
 568 856 568 856 601 689 c 128,-1,63
 634 522 634 522 634 456 c 2,64,-1
 634 438 l 1,0,-1
EndSplineSet
EndChar

StartChar: asterisk
Encoding: 42 42 13
Width: 1110
GlyphClass: 2
Flags: W
LayerCount: 2
Fore
SplineSet
1044 1042 m 1,0,-1
 1046 1024 l 1,1,-1
 1034 986 l 1,2,-1
 1002 956 l 1,3,-1
 970 938 l 1,4,-1
 956 932 l 1,5,-1
 936 922 l 1,6,-1
 888 904 l 1,7,-1
 866 896 l 1,8,-1
 842 890 l 1,9,-1
 822 884 l 1,10,-1
 804 880 l 1,11,12
 784 880 784 880 780 876 c 2,13,-1
 758 872 l 1,14,-1
 662 856 l 1,15,-1
 620 850 l 1,16,-1
 644 812 l 1,17,-1
 678 764 l 1,18,-1
 708 728 l 1,19,-1
 732 702 l 1,20,-1
 756 678 l 1,21,-1
 774 662 l 1,22,-1
 794 646 l 1,23,-1
 844 616 l 1,24,-1
 866 604 l 1,25,-1
 874 596 l 1,26,-1
 896 576 l 1,27,-1
 914 546 l 1,28,-1
 924 512 l 1,29,-1
 922 500 l 1,30,-1
 918 490 l 1,31,-1
 910 478 l 1,32,-1
 900 466 l 1,33,-1
 884 454 l 1,34,-1
 870 448 l 1,35,-1
 854 442 l 1,36,-1
 838 442 l 2,37,38
 820 442 820 442 798 450 c 1,39,-1
 766 470 l 1,40,-1
 744 488 l 1,41,-1
 736 498 l 1,42,-1
 716 516 l 1,43,-1
 674 558 l 1,44,-1
 664 568 l 1,45,-1
 656 578 l 1,46,-1
 646 588 l 1,47,-1
 638 600 l 1,48,-1
 626 614 l 1,49,-1
 616 630 l 1,50,-1
 564 712 l 1,51,-1
 544 750 l 1,52,-1
 520 722 l 1,53,-1
 470 660 l 1,54,-1
 460 648 l 1,55,-1
 452 638 l 1,56,-1
 444 626 l 1,57,-1
 438 618 l 1,58,-1
 424 600 l 1,59,-1
 412 578 l 1,60,-1
 408 574 l 1,61,-1
 376 524 l 1,62,-1
 364 502 l 1,63,-1
 358 488 l 1,64,-1
 340 460 l 1,65,-1
 310 428 l 2,66,67
 294 416 294 416 272 416 c 2,68,-1
 248 420 l 1,69,-1
 224 434 l 1,70,-1
 196 464 l 1,71,-1
 188 500 l 1,72,73
 188 526 188 526 192 534 c 2,74,-1
 206 566 l 1,75,-1
 216 586 l 1,76,-1
 222 594 l 1,77,-1
 256 634 l 1,78,-1
 294 676 l 1,79,-1
 344 724 l 1,80,-1
 364 744 l 1,81,-1
 386 764 l 1,82,-1
 394 770 l 1,83,-1
 464 830 l 1,84,-1
 496 858 l 1,85,-1
 470 870 l 1,86,-1
 408 896 l 1,87,-1
 358 912 l 1,88,-1
 306 926 l 1,89,-1
 284 930 l 1,90,-1
 262 932 l 1,91,-1
 198 940 l 1,92,-1
 168 942 l 1,93,-1
 144 942 l 1,94,-1
 120 948 l 2,95,96
 108 952 108 952 90 966 c 1,97,-1
 74 1012 l 1,98,-1
 76 1030 l 1,99,-1
 80 1050 l 2,100,101
 86 1076 86 1076 102 1090 c 1,102,-1
 148 1108 l 1,103,-1
 156 1110 l 1,104,-1
 166 1110 l 1,105,-1
 188 1108 l 1,106,-1
 208 1106 l 1,107,-1
 220 1102 l 1,108,-1
 226 1100 l 1,109,-1
 260 1094 l 1,110,-1
 300 1086 l 1,111,-1
 346 1066 l 1,112,-1
 374 1054 l 1,113,-1
 404 1038 l 1,114,-1
 414 1032 l 1,115,-1
 426 1026 l 1,116,-1
 480 994 l 1,117,-1
 504 980 l 1,118,-1
 504 996 l 1,119,-1
 508 1040 l 1,120,-1
 508 1084 l 1,121,-1
 510 1136 l 1,122,-1
 510 1148 l 1,123,-1
 510 1164 l 1,124,-1
 510 1178 l 1,125,-1
 510 1192 l 1,126,-1
 510 1200 l 1,127,-1
 510 1212 l 1,128,-1
 510 1234 l 2,129,130
 510 1250 510 1250 506 1254 c 1,131,132
 506 1286 506 1286 502 1292 c 2,133,-1
 494 1332 l 1,134,-1
 492 1348 l 1,135,-1
 490 1362 l 1,136,-1
 486 1376 l 1,137,-1
 486 1392 l 1,138,-1
 486 1400 l 1,139,-1
 488 1410 l 2,140,141
 488 1426 488 1426 505 1451 c 128,-1,142
 522 1476 522 1476 576 1476 c 0,143,144
 610 1476 610 1476 626 1460 c 2,145,-1
 654 1426 l 1,146,-1
 662 1392 l 1,147,-1
 664 1376 l 1,148,-1
 664 1330 l 1,149,-1
 664 1296 l 1,150,-1
 664 1266 l 1,151,-1
 660 1230 l 1,152,-1
 658 1214 l 1,153,-1
 658 1198 l 1,154,-1
 654 1164 l 1,155,-1
 648 1126 l 1,156,-1
 642 1096 l 1,157,-1
 636 1066 l 1,158,-1
 630 1026 l 2,159,160
 630 1012 630 1012 620 996 c 1,161,-1
 614 968 l 1,162,-1
 656 974 l 1,163,-1
 702 982 l 1,164,-1
 752 1000 l 1,165,-1
 764 1004 l 1,166,-1
 776 1010 l 1,167,-1
 782 1012 l 1,168,-1
 806 1024 l 1,169,-1
 830 1036 l 1,170,-1
 874 1064 l 1,171,-1
 894 1078 l 1,172,-1
 900 1084 l 1,173,-1
 918 1096 l 1,174,-1
 942 1108 l 1,175,-1
 972 1114 l 2,176,177
 990 1114 990 1114 1006 1100 c 1,178,179
 1022 1094 1022 1094 1038 1060 c 1,180,-1
 1044 1042 l 1,0,-1
EndSplineSet
EndChar

StartChar: plus
Encoding: 43 43 14
Width: 1224
GlyphClass: 2
Flags: W
LayerCount: 2
Fore
SplineSet
1154 620 m 1,0,-1
 1134 600 l 1,1,-1
 1112 588 l 1,2,-1
 1102 586 l 1,3,-1
 706 586 l 1,4,-1
 706 220 l 1,5,-1
 702 210 l 1,6,-1
 690 192 l 1,7,-1
 664 172 l 1,8,-1
 624 164 l 1,9,10
 598 164 598 164 582 172 c 2,11,-1
 556 192 l 1,12,-1
 544 210 l 1,13,-1
 542 220 l 1,14,-1
 542 588 l 1,15,-1
 120 588 l 1,16,-1
 110 590 l 1,17,-1
 92 600 l 1,18,-1
 72 622 l 1,19,-1
 64 662 l 1,20,21
 64 686 64 686 72 700 c 2,22,-1
 92 722 l 1,23,-1
 110 730 l 1,24,-1
 120 734 l 1,25,-1
 544 734 l 1,26,-1
 544 1100 l 1,27,-1
 548 1110 l 1,28,-1
 560 1132 l 1,29,-1
 586 1152 l 1,30,-1
 626 1162 l 1,31,32
 654 1162 654 1162 670 1152 c 2,33,-1
 694 1132 l 1,34,-1
 704 1110 l 1,35,-1
 706 1100 l 1,36,-1
 706 732 l 1,37,-1
 1102 732 l 1,38,-1
 1112 728 l 1,39,-1
 1134 718 l 1,40,-1
 1154 696 l 1,41,-1
 1164 660 l 1,42,43
 1164 636 1164 636 1154 620 c 1,0,-1
EndSplineSet
EndChar

StartChar: comma
Encoding: 44 44 15
Width: 434
GlyphClass: 2
Flags: W
LayerCount: 2
Fore
SplineSet
352 40 m 2,0,-1
 338 0 l 1,1,-1
 318 -40 l 2,2,3
 310 -52 310 -52 304 -66 c 0,4,5
 290 -90 290 -90 276 -108 c 0,6,7
 266 -126 266 -126 255 -140 c 128,-1,8
 244 -154 244 -154 224 -174 c 0,9,10
 174 -230 174 -230 100 -262 c 1,11,-1
 92 -264 l 1,12,-1
 84 -266 l 1,13,-1
 78 -268 l 1,14,15
 56 -268 56 -268 48 -254 c 2,16,-1
 36 -224 l 1,17,-1
 34 -216 l 1,18,-1
 34 -206 l 1,19,-1
 40 -188 l 1,20,-1
 42 -178 l 1,21,-1
 48 -170 l 1,22,-1
 74 -142 l 1,23,-1
 118 -94 l 1,24,-1
 150 -50 l 1,25,-1
 176 -6 l 1,26,-1
 180 4 l 1,27,-1
 184 12 l 1,28,29
 172 12 172 12 138 44 c 1,30,-1
 122 74 l 1,31,-1
 108 108 l 1,32,-1
 102 130 l 1,33,-1
 100 152 l 1,34,35
 100 206 100 206 134 252 c 0,36,37
 170 294 170 294 232 300 c 1,38,39
 282 300 282 300 324 245 c 128,-1,40
 366 190 366 190 366 114 c 0,41,42
 366 82 366 82 352 40 c 2,0,-1
EndSplineSet
EndChar

StartChar: hyphen
Encoding: 45 45 16
Width: 834
GlyphClass: 2
Flags: W
LayerCount: 2
Fore
SplineSet
778 494 m 2,0,-1
 766 474 l 1,1,-1
 750 464 l 1,2,-1
 744 462 l 1,3,-1
 114 462 l 1,4,-1
 106 464 l 1,5,-1
 92 474 l 1,6,-1
 74 494 l 2,7,8
 68 506 68 506 68 528 c 1,9,-1
 74 558 l 1,10,-1
 92 580 l 1,11,-1
 106 590 l 1,12,-1
 114 594 l 1,13,-1
 744 594 l 1,14,-1
 750 592 l 1,15,-1
 766 582 l 1,16,-1
 778 562 l 1,17,-1
 786 530 l 1,18,19
 786 508 786 508 778 494 c 2,0,-1
EndSplineSet
EndChar

StartChar: period
Encoding: 46 46 17
Width: 360
GlyphClass: 2
Flags: W
LayerCount: 2
Fore
SplineSet
278 36 m 0,0,1
 248 0 248 0 188 0 c 0,2,3
 146 0 146 0 108 32 c 1,4,5
 76 68 76 68 76 132 c 0,6,7
 76 176 76 176 110 220 c 1,8,9
 148 258 148 258 192 258 c 0,10,11
 242 258 242 258 276 212 c 0,12,13
 310 172 310 172 310 124 c 256,14,15
 310 76 310 76 278 36 c 0,0,1
EndSplineSet
EndChar

StartChar: slash
Encoding: 47 47 18
Width: 554
GlyphClass: 2
Flags: W
LayerCount: 2
Fore
SplineSet
414 1456 m 1,0,-1
 554 1456 l 1,1,-1
 140 -24 l 1,2,-1
 0 -24 l 1,3,-1
 414 1456 l 1,0,-1
EndSplineSet
EndChar

StartChar: zero
Encoding: 48 48 19
Width: 968
GlyphClass: 2
Flags: W
LayerCount: 2
Fore
SplineSet
903 762 m 2,0,1
 903 742 903 742 901 734 c 0,2,3
 901 715 901 715 897 710 c 2,4,-1
 888 658 l 1,5,-1
 877 608 l 2,6,7
 850 489 850 489 802 381.5 c 128,-1,8
 754 274 754 274 682 177 c 0,9,10
 540 -18 540 -18 339 -18 c 0,11,12
 202 -18 202 -18 130 101 c 0,13,14
 58 221 58 221 58 383 c 2,15,-1
 59 447 l 1,16,-1
 61 478 l 2,17,18
 61 499 61 499 68 517 c 0,19,20
 69 525 69 525 70.5 533 c 128,-1,21
 72 541 72 541 73 549 c 2,22,-1
 79 581 l 2,23,24
 81 600 81 600 85.5 616.5 c 128,-1,25
 90 633 90 633 95 647 c 2,26,-1
 117 714 l 2,27,28
 150 814 150 814 204 902 c 1,29,-1
 204 901 l 1,30,31
 233 952 233 952 262.5 993 c 128,-1,32
 292 1034 292 1034 328 1074 c 0,33,34
 398 1155 398 1155 477 1198.5 c 128,-1,35
 556 1242 556 1242 637 1242 c 0,36,37
 763 1242 763 1242 839 1139 c 0,38,39
 915 1038 915 1038 915 875 c 2,40,-1
 915 838 l 1,41,-1
 903 762 l 2,0,1
731 1046 m 0,42,43
 685 1105 685 1105 623 1105 c 0,44,45
 600 1105 600 1105 592 1103 c 2,46,-1
 593 1103 l 1,47,-1
 565 1092 l 1,48,-1
 565 1093 l 1,49,-1
 503 1060 l 1,50,-1
 504 1060 l 1,51,52
 487 1047 487 1047 465.5 1026.5 c 128,-1,53
 444 1006 444 1006 420 980 c 0,54,55
 402 957 402 957 381.5 929 c 128,-1,56
 361 901 361 901 341.5 869.5 c 128,-1,57
 322 838 322 838 303.5 805 c 128,-1,58
 285 772 285 772 270 739 c 0,59,60
 262 718 262 718 252.5 694 c 128,-1,61
 243 670 243 670 235 649 c 2,62,-1
 210 582 l 1,63,-1
 192 491 l 2,64,65
 191 470 191 470 189.5 448 c 128,-1,66
 188 426 188 426 187 406 c 0,67,68
 187 297 187 297 226 204 c 0,69,70
 265 114 265 114 351 114 c 2,71,-1
 368 114 l 1,72,-1
 400 121 l 2,73,74
 423 130 423 130 438 140 c 0,75,76
 538 198 538 198 630 359 c 0,77,78
 673 436 673 436 707 523.5 c 128,-1,79
 741 611 741 611 764 708 c 1,80,-1
 776 789 l 1,81,-1
 780 860 l 1,82,83
 780 986 780 986 731 1046 c 0,42,43
EndSplineSet
EndChar

StartChar: one
Encoding: 49 49 20
Width: 415
GlyphClass: 2
Flags: W
LayerCount: 2
Fore
SplineSet
339 710 m 1,0,-1
 336 613 l 1,1,-1
 332 561 l 1,2,-1
 314 473 l 1,3,-1
 308 450 l 1,4,-1
 304 428 l 1,5,-1
 290 360 l 1,6,-1
 276 290 l 1,7,-1
 248 192 l 1,8,-1
 222 103 l 1,9,-1
 209 69 l 1,10,-1
 187 25 l 1,11,-1
 188 25 l 1,12,13
 180 9 180 9 158 -2 c 1,14,15
 130 -2 130 -2 110 24 c 0,16,17
 102 36 102 36 95.5 50.5 c 128,-1,18
 89 65 89 65 84 83 c 1,19,-1
 84 109 l 1,20,-1
 88 121 l 1,21,-1
 91 128 l 2,22,23
 95 137 95 137 101.5 153 c 128,-1,24
 108 169 108 169 114.5 190 c 128,-1,25
 121 211 121 211 128.5 236 c 128,-1,26
 136 261 136 261 143 288 c 0,27,28
 154 345 154 345 165.5 406.5 c 128,-1,29
 177 468 177 468 188 525 c 2,30,-1
 211 700 l 2,31,32
 214 735 214 735 218 772 c 128,-1,33
 222 809 222 809 225 845 c 2,34,-1
 225 857 l 1,35,-1
 224 874 l 1,36,-1
 222 895 l 1,37,-1
 220 913 l 2,38,39
 220 922 220 922 217 928 c 2,40,-1
 211 958 l 1,41,-1
 208 954 l 1,42,-1
 208 955 l 1,43,-1
 199 940 l 1,44,-1
 170 905 l 1,45,-1
 138 872 l 1,46,-1
 105 845 l 1,47,-1
 73 837 l 1,48,49
 48 837 48 837 38 855 c 1,50,-1
 29 892 l 1,51,-1
 31 903 l 1,52,-1
 36 920 l 1,53,-1
 42 935 l 1,54,-1
 55 952 l 1,55,-1
 195 1152 l 1,56,-1
 195 1151 l 1,57,-1
 210 1180 l 1,58,-1
 209 1180 l 1,59,60
 213 1191 213 1191 224 1201 c 1,61,-1
 223 1201 l 1,62,-1
 236 1213 l 1,63,-1
 255 1219 l 1,64,-1
 269 1215 l 1,65,-1
 288 1202 l 2,66,67
 300 1191 300 1191 311 1167.5 c 128,-1,68
 322 1144 322 1144 330.5 1107 c 128,-1,69
 339 1070 339 1070 344 1019 c 128,-1,70
 349 968 349 968 349 902 c 2,71,-1
 343 802 l 1,72,-1
 339 710 l 1,0,-1
EndSplineSet
EndChar

StartChar: two
Encoding: 50 50 21
Width: 871
GlyphClass: 2
Flags: W
LayerCount: 2
Fore
SplineSet
725 644 m 1,0,1
 633 546 633 546 503 441 c 1,2,-1
 280 274 l 2,3,4
 181 203 181 203 181 141 c 0,5,6
 181 134 181 134 189 123 c 1,7,8
 204 118 204 118 221 118 c 2,9,-1
 532 118 l 2,10,11
 545 118 545 118 557 122 c 128,-1,12
 569 126 569 126 578 131 c 2,13,-1
 611 161 l 2,14,15
 613 163 613 163 615.5 167.5 c 128,-1,16
 618 172 618 172 620 174 c 2,17,-1
 627 182 l 1,18,-1
 647 200 l 1,19,-1
 672 209 l 1,20,21
 687 209 687 209 711 194 c 1,22,23
 722 182 722 182 729 153 c 1,24,-1
 727 142 l 1,25,-1
 726 134 l 1,26,27
 707 73 707 73 625 26 c 1,28,29
 563 -2 563 -2 467 -2 c 2,30,-1
 168 0 l 2,31,32
 131 0 131 0 97 27 c 1,33,-1
 80 44 l 1,34,-1
 56 79 l 1,35,-1
 48 95 l 1,36,37
 48 107 48 107 44 114 c 1,38,-1
 44 129 l 2,39,40
 44 193 44 193 93 254 c 1,41,-1
 148 312 l 1,42,-1
 214 374 l 1,43,-1
 292 433 l 1,44,-1
 376 494 l 1,45,-1
 491 586 l 1,46,-1
 547 635 l 1,47,-1
 601 687 l 1,48,-1
 600 687 l 1,49,50
 703 792 703 792 703 910 c 0,51,52
 703 984 703 984 648 1044 c 0,53,54
 596 1103 596 1103 501 1103 c 0,55,56
 473 1103 473 1103 427 1092 c 1,57,-1
 428 1092 l 1,58,-1
 371 1071 l 1,59,-1
 372 1072 l 1,60,-1
 340 1050 l 1,61,-1
 338 1049 l 1,62,63
 344 1047 344 1047 350 1047 c 0,64,65
 360 1046 360 1046 400 1027 c 0,66,67
 422 1015 422 1015 446 973 c 1,68,-1
 446 974 l 1,69,70
 454 963 454 963 458.5 952 c 128,-1,71
 463 941 463 941 466 931 c 2,72,-1
 472 868 l 2,73,74
 472 832 472 832 458 800.5 c 128,-1,75
 444 769 444 769 414 742 c 0,76,77
 387 718 387 718 354 704 c 128,-1,78
 321 690 321 690 279 690 c 2,79,-1
 264 690 l 1,80,-1
 248 692 l 1,81,82
 195 703 195 703 152 744 c 1,83,84
 112 790 112 790 112 882 c 2,85,-1
 113 916 l 1,86,-1
 123 950 l 2,87,88
 129 972 129 972 143.5 996.5 c 128,-1,89
 158 1021 158 1021 177 1045 c 128,-1,90
 196 1069 196 1069 218.5 1091.5 c 128,-1,91
 241 1114 241 1114 264 1132 c 0,92,93
 318 1173 318 1173 378.5 1195 c 128,-1,94
 439 1217 439 1217 500 1217 c 0,95,96
 576 1217 576 1217 634.5 1196 c 128,-1,97
 693 1175 693 1175 730 1137 c 0,98,99
 765 1097 765 1097 789 1051 c 128,-1,100
 813 1005 813 1005 823 951 c 1,101,-1
 825 922 l 1,102,-1
 827 897 l 1,103,104
 827 767 827 767 725 644 c 1,0,1
363 881 m 1,105,-1
 361 892 l 2,106,107
 355 916 355 916 338.5 937.5 c 128,-1,108
 322 959 322 959 295 959 c 0,109,110
 264 959 264 959 246 940 c 128,-1,111
 228 921 228 921 214 893 c 1,112,-1
 215 894 l 1,113,-1
 212 878 l 2,114,115
 212 875 212 875 211 871.5 c 128,-1,116
 210 868 210 868 210 865 c 2,117,-1
 210 857 l 2,118,119
 210 832 210 832 235 807 c 1,120,-1
 234 807 l 1,121,122
 259 785 259 785 288 785 c 0,123,124
 313 785 313 785 331 803.5 c 128,-1,125
 349 822 349 822 363 860 c 0,126,127
 363 861 363 861 363.5 862 c 128,-1,128
 364 863 364 863 364 864 c 2,129,-1
 364 870 l 1,130,-1
 363 881 l 1,105,-1
EndSplineSet
EndChar

StartChar: three
Encoding: 51 51 22
Width: 894
GlyphClass: 2
Flags: W
LayerCount: 2
Fore
SplineSet
845 1140 m 1,0,-1
 846 1129 l 2,1,2
 846 1108 846 1108 831 1080 c 2,3,-1
 807 1042 l 1,4,-1
 806 1040 l 1,5,-1
 806 1041 l 1,6,7
 753 962 753 962 701.5 886.5 c 128,-1,8
 650 811 650 811 597 731 c 1,9,10
 642 720 642 720 679.5 690.5 c 128,-1,11
 717 661 717 661 747 616 c 256,12,13
 777 571 777 571 794.5 517.5 c 128,-1,14
 812 464 812 464 812 408 c 0,15,16
 812 227 812 227 674 109 c 1,17,18
 602 57 602 57 523 27.5 c 128,-1,19
 444 -2 444 -2 368 -2 c 2,20,-1
 351 -2 l 2,21,22
 226 -2 226 -2 132 70 c 0,23,24
 84 105 84 105 60 156 c 128,-1,25
 36 207 36 207 36 271 c 0,26,27
 36 339 36 339 89 402 c 0,28,29
 143 468 143 468 225 468 c 2,30,-1
 231 468 l 2,31,32
 318 468 318 468 369 399 c 0,33,34
 412 340 412 340 412 260 c 0,35,36
 412 246 412 246 411.5 235 c 128,-1,37
 411 224 411 224 410 217 c 0,38,39
 409 209 409 209 406 199 c 128,-1,40
 403 189 403 189 398 178 c 0,41,42
 386 141 386 141 346 107 c 1,43,44
 356 105 356 105 358 103 c 0,45,46
 363 103 363 103 368 102.5 c 128,-1,47
 373 102 373 102 379 102 c 2,48,-1
 412 103 l 1,49,-1
 449 112 l 2,50,51
 498 124 498 124 540 147.5 c 128,-1,52
 582 171 582 171 617 207 c 0,53,54
 686 279 686 279 686 401 c 0,55,56
 686 446 686 446 668.5 492 c 128,-1,57
 651 538 651 538 623 575 c 0,58,59
 597 604 597 604 561 626 c 128,-1,60
 525 648 525 648 483 648 c 1,61,-1
 474 651 l 1,62,-1
 475 651 l 1,63,-1
 461 656 l 1,64,-1
 446 685 l 1,65,-1
 443 692 l 1,66,-1
 443 704 l 1,67,-1
 448 726 l 1,68,-1
 463 749 l 1,69,-1
 465 752 l 1,70,-1
 465 751 l 1,71,72
 528 842 528 842 587.5 928 c 128,-1,73
 647 1014 647 1014 710 1105 c 1,74,-1
 474 1105 l 2,75,76
 449 1105 449 1105 443 1103 c 0,77,78
 407 1103 407 1103 376 1085 c 1,79,80
 348 1076 348 1076 318 1012 c 1,81,-1
 315 1007 l 1,82,-1
 315 1009 l 1,83,84
 310 1000 310 1000 304.5 989.5 c 128,-1,85
 299 979 299 979 294 970 c 0,86,87
 283 955 283 955 249 955 c 0,88,89
 233 955 233 955 212 974 c 1,90,-1
 200 1024 l 1,91,92
 200 1096 200 1096 280 1159 c 0,93,94
 359 1220 359 1220 459 1220 c 2,95,-1
 743 1220 l 2,96,97
 784 1220 784 1220 804 1206 c 128,-1,98
 824 1192 824 1192 837 1171 c 1,99,-1
 840 1157 l 1,100,-1
 839 1158 l 1,101,-1
 843 1148 l 1,102,-1
 845 1140 l 1,0,-1
280 332 m 0,103,104
 263 358 263 358 227 364 c 1,105,-1
 218 364 l 2,106,107
 192 364 192 364 174 342 c 2,108,-1
 159 323 l 2,109,110
 155 314 155 314 150 303.5 c 128,-1,111
 145 293 145 293 142 284 c 2,112,-1
 140 270 l 1,113,-1
 140 259 l 1,114,-1
 141 239 l 2,115,116
 142 234 142 234 143 229.5 c 128,-1,117
 144 225 144 225 145 220 c 2,118,-1
 151 197 l 1,119,-1
 166 177 l 1,120,-1
 166 178 l 1,121,122
 171 173 171 173 184 166.5 c 128,-1,123
 197 160 197 160 214 152 c 1,124,-1
 221 152 l 2,125,126
 253 152 253 152 270.5 175.5 c 128,-1,127
 288 199 288 199 297 231 c 0,128,129
 297 235 297 235 298 239 c 128,-1,130
 299 243 299 243 299 246 c 2,131,-1
 300 264 l 2,132,133
 300 302 300 302 280 332 c 0,103,104
EndSplineSet
EndChar

StartChar: four
Encoding: 52 52 23
Width: 901
GlyphClass: 2
Flags: W
LayerCount: 2
Fore
SplineSet
819 349 m 1,0,1
 772 330 772 330 706 330 c 2,2,-1
 594 330 l 1,3,4
 591 315 591 315 587 299.5 c 128,-1,5
 583 284 583 284 580 269 c 2,6,-1
 563 211 l 1,7,-1
 548 159 l 1,8,-1
 539 125 l 1,9,-1
 535 116 l 1,10,-1
 525 95 l 1,11,-1
 509 50 l 1,12,-1
 505 40 l 1,13,-1
 494 24 l 1,14,-1
 472 0 l 1,15,-1
 447 -10 l 1,16,-1
 438 -8 l 2,17,18
 428 -6 428 -6 419 -2 c 128,-1,19
 410 2 410 2 399 10 c 0,20,21
 387 21 387 21 382 48 c 1,22,-1
 383 72 l 1,23,-1
 392 99 l 1,24,-1
 466 330 l 1,25,-1
 205 330 l 2,26,27
 145 330 145 330 111.5 345 c 128,-1,28
 78 360 78 360 61 381 c 1,29,-1
 48 405 l 1,30,31
 48 415 48 415 44 419 c 2,32,-1
 43 437 l 1,33,-1
 43 449 l 2,34,35
 43 479 43 479 65 522 c 2,36,-1
 95 575 l 1,37,-1
 147 661 l 1,38,-1
 415 1093 l 1,39,-1
 415 1092 l 1,40,-1
 425 1108 l 1,41,-1
 432 1120 l 1,42,-1
 432 1119 l 1,43,-1
 437 1130 l 1,44,-1
 440 1133 l 1,45,-1
 440 1131 l 1,46,-1
 455 1160 l 1,47,-1
 454 1160 l 1,48,49
 461 1177 461 1177 476 1192 c 1,50,-1
 476 1191 l 1,51,52
 500 1226 500 1226 542 1226 c 1,53,-1
 556 1224 l 1,54,-1
 569 1220 l 2,55,56
 612 1207 612 1207 622 1129 c 1,57,-1
 628 1040 l 1,58,-1
 632 913 l 1,59,-1
 632 570 l 1,60,-1
 628 548 l 1,61,-1
 628 549 l 1,62,-1
 625 491 l 1,63,-1
 619 454 l 2,64,65
 619 451 619 451 618 449 c 2,66,-1
 724 449 l 2,67,68
 732 449 732 449 741.5 451.5 c 128,-1,69
 751 454 751 454 757 460 c 1,70,-1
 764 461 l 1,71,-1
 771 465 l 1,72,-1
 781 468 l 1,73,-1
 797 472 l 1,74,-1
 802 474 l 1,75,-1
 809 474 l 1,76,-1
 820 472 l 2,77,78
 831 471 831 471 839 466.5 c 128,-1,79
 847 462 847 462 854 455 c 1,80,-1
 853 455 l 1,81,82
 870 443 870 443 871 416 c 0,83,84
 871 378 871 378 819 350 c 1,85,-1
 819 349 l 1,0,1
221 544 m 1,86,-1
 222 545 l 1,87,-1
 194 488 l 1,88,-1
 194 489 l 1,89,-1
 191 470 l 2,90,91
 191 469 191 469 191.5 468 c 128,-1,92
 192 467 192 467 192 466 c 2,93,-1
 194 462 l 1,94,-1
 194 464 l 1,95,-1
 205 453 l 1,96,-1
 222 449 l 1,97,-1
 403 449 l 1,98,-1
 445 453 l 2,99,100
 450 455 450 455 458.5 460 c 128,-1,101
 467 465 467 465 474 471 c 0,102,103
 479 479 479 479 485 494 c 128,-1,104
 491 509 491 509 496 526 c 2,105,-1
 506 592 l 2,106,107
 506 595 506 595 506.5 598.5 c 128,-1,108
 507 602 507 602 507 605 c 2,109,-1
 507 1025 l 1,110,-1
 221 544 l 1,86,-1
EndSplineSet
EndChar

StartChar: five
Encoding: 53 53 24
Width: 845
GlyphClass: 2
Flags: W
LayerCount: 2
Fore
SplineSet
812 1109 m 2,0,1
 799 1099 799 1099 783 1099 c 2,2,-1
 744 1101 l 1,3,-1
 716 1105 l 1,4,-1
 694 1110 l 2,5,6
 690 1110 690 1110 686 1111 c 128,-1,7
 682 1112 682 1112 679 1112 c 2,8,-1
 540 1112 l 2,9,10
 468 1112 468 1112 443 1075 c 2,11,-1
 415 1032 l 1,12,-1
 416 1033 l 1,13,-1
 394 981 l 1,14,-1
 394 982 l 1,15,16
 379 929 379 929 365.5 885.5 c 128,-1,17
 352 842 352 842 337 789 c 1,18,-1
 341 792 l 1,19,-1
 374 798 l 2,20,21
 396 803 396 803 434 803 c 0,22,23
 502 803 502 803 557.5 774 c 128,-1,24
 613 745 613 745 656 691 c 0,25,26
 697 636 697 636 719.5 564.5 c 128,-1,27
 742 493 742 493 742 412 c 0,28,29
 742 235 742 235 617 116 c 0,30,31
 495 -2 495 -2 325 -2 c 0,32,33
 178 -2 178 -2 111 66 c 0,34,35
 43 133 43 133 43 218 c 0,36,37
 43 304 43 304 102 363 c 0,38,39
 160 417 160 417 246 417 c 0,40,41
 323 417 323 417 375 360 c 1,42,-1
 413 309 l 1,43,44
 429 280 429 280 429 247 c 2,45,-1
 429 240 l 1,46,-1
 424 189 l 2,47,48
 421 166 421 166 410 149 c 2,49,-1
 393 129 l 1,50,-1
 380 116 l 1,51,-1
 387 116 l 2,52,53
 400 116 400 116 403 120 c 0,54,55
 444 128 444 128 481.5 153 c 128,-1,56
 519 178 519 178 552 220 c 0,57,58
 618 302 618 302 618 416 c 0,59,60
 618 535 618 535 564 615 c 0,61,62
 535 657 535 657 502.5 677.5 c 128,-1,63
 470 698 470 698 429 698 c 2,64,-1
 398 698 l 2,65,66
 376 698 376 698 352 688 c 0,67,68
 341 683 341 683 326.5 673 c 128,-1,69
 312 663 312 663 300 652 c 1,70,-1
 294 641 l 1,71,-1
 288 637 l 1,72,-1
 288 638 l 1,73,-1
 259 607 l 2,74,75
 244 595 244 595 223 595 c 0,76,77
 218 595 218 595 208.5 597.5 c 128,-1,78
 199 600 199 600 186 606 c 0,79,80
 180 612 180 612 176.5 620 c 128,-1,81
 173 628 173 628 171 639 c 2,82,-1
 173 650 l 1,83,-1
 279 1006 l 2,84,85
 307 1101 307 1101 362 1159 c 0,86,87
 387 1188 387 1188 421 1203.5 c 128,-1,88
 455 1219 455 1219 496 1219 c 2,89,-1
 690 1219 l 1,90,-1
 728 1217 l 2,91,92
 737 1217 737 1217 743.5 1216.5 c 128,-1,93
 750 1216 750 1216 754 1214 c 0,94,95
 768 1212 768 1212 793 1202 c 1,96,-1
 792 1202 l 1,97,98
 825 1193 825 1193 825 1158 c 0,99,100
 825 1125 825 1125 813 1110 c 2,101,-1
 812 1109 l 2,0,1
314 232 m 1,102,-1
 314 231 l 1,103,-1
 310 253 l 2,104,105
 307 275 307 275 290 294.5 c 128,-1,106
 273 314 273 314 243 314 c 0,107,108
 196 314 196 314 174.5 285 c 128,-1,109
 153 256 153 256 153 211 c 0,110,111
 153 188 153 188 160 170 c 128,-1,112
 167 152 167 152 178.5 140 c 128,-1,113
 190 128 190 128 204 122 c 128,-1,114
 218 116 218 116 233 116 c 0,115,116
 267 116 267 116 293 142 c 1,117,-1
 293 141 l 1,118,-1
 308 168 l 2,119,120
 312 176 312 176 314 187 c 128,-1,121
 316 198 316 198 316 213 c 2,122,-1
 314 232 l 1,102,-1
EndSplineSet
EndChar

StartChar: six
Encoding: 54 54 25
Width: 903
GlyphClass: 2
Flags: W
LayerCount: 2
Fore
SplineSet
815 1104 m 1,0,-1
 794 1103 l 1,1,-1
 777 1103 l 2,2,3
 716 1103 716 1103 658.5 1085 c 128,-1,4
 601 1067 601 1067 550 1034 c 0,5,6
 501 1001 501 1001 454.5 962.5 c 128,-1,7
 408 924 408 924 372 887 c 0,8,9
 363 876 363 876 354 865 c 128,-1,10
 345 854 345 854 336 844 c 2,11,-1
 304 799 l 1,12,-1
 304 800 l 1,13,14
 299 791 299 791 296.5 785.5 c 128,-1,15
 294 780 294 780 291 775.5 c 128,-1,16
 288 771 288 771 285 765.5 c 128,-1,17
 282 760 282 760 278 751 c 1,18,19
 294 762 294 762 313 771.5 c 128,-1,20
 332 781 332 781 352 787 c 2,21,-1
 406 798 l 1,22,-1
 470 803 l 1,23,24
 598 803 598 803 672 699 c 0,25,26
 747 595 747 595 747 453 c 1,27,-1
 745 419 l 1,28,-1
 745 403 l 2,29,30
 745 387 745 387 742 383 c 0,31,32
 731 305 731 305 699 234.5 c 128,-1,33
 667 164 667 164 618 109 c 0,34,35
 513 -4 513 -4 332 -4 c 0,36,37
 201 -4 201 -4 124 105 c 1,38,39
 52 217 52 217 52 363 c 0,40,41
 52 392 52 392 55.5 429 c 128,-1,42
 59 466 59 466 66 511 c 0,43,44
 67 519 67 519 68.5 527 c 128,-1,45
 70 535 70 535 71 543 c 0,46,47
 71 546 71 546 72 550 c 128,-1,48
 73 554 73 554 73 556 c 2,49,-1
 84 588 l 2,50,51
 86 598 86 598 90 609 c 128,-1,52
 94 620 94 620 96 630 c 2,53,-1
 112 673 l 2,54,55
 147 771 147 771 206 863.5 c 128,-1,56
 265 956 265 956 349 1044 c 0,57,58
 518 1220 518 1220 769 1220 c 2,59,-1
 794 1220 l 2,60,61
 826 1220 826 1220 852 1208 c 0,62,63
 881 1196 881 1196 881 1158 c 0,64,65
 881 1143 881 1143 859 1118 c 1,66,-1
 815 1104 l 1,0,-1
617 403 m 2,67,68
 617 410 617 410 617.5 420.5 c 128,-1,69
 618 431 618 431 618 437 c 0,70,71
 618 488 618 488 605 532 c 128,-1,72
 592 576 592 576 566 614 c 0,73,74
 515 690 515 690 452 690 c 0,75,76
 337 690 337 690 257 604 c 0,77,78
 176 518 176 518 176 359 c 0,79,80
 176 307 176 307 187.5 262 c 128,-1,81
 199 217 199 217 220 182 c 0,82,83
 266 112 266 112 341 112 c 0,84,85
 439 112 439 112 504 178 c 0,86,87
 537 210 537 210 563.5 251.5 c 128,-1,88
 590 293 590 293 607 339 c 1,89,90
 607 353 607 353 610 357 c 2,91,-1
 610 363 l 1,92,-1
 614 369 l 1,93,-1
 617 403 l 2,67,68
EndSplineSet
EndChar

StartChar: seven
Encoding: 55 55 26
Width: 749
GlyphClass: 2
Flags: W
LayerCount: 2
Fore
SplineSet
627 974 m 1,0,1
 585 930 585 930 537 866.5 c 128,-1,2
 489 803 489 803 433 710 c 1,3,-1
 433 711 l 1,4,-1
 379 613 l 1,5,-1
 380 613 l 1,6,-1
 310 469 l 2,7,8
 303 452 303 452 296.5 433.5 c 128,-1,9
 290 415 290 415 283 398 c 2,10,-1
 257 319 l 1,11,-1
 257 320 l 1,12,13
 246 275 246 275 233.5 230 c 128,-1,14
 221 185 221 185 210 140 c 0,15,16
 209 132 209 132 207.5 122.5 c 128,-1,17
 206 113 206 113 205 105 c 0,18,19
 205 97 205 97 204.5 89.5 c 128,-1,20
 204 82 204 82 204 75 c 0,21,22
 204 52 204 52 202.5 37.5 c 128,-1,23
 201 23 201 23 195 14 c 128,-1,24
 189 5 189 5 176.5 1.5 c 128,-1,25
 164 -2 164 -2 143 -2 c 0,26,27
 125 -2 125 -2 99 27 c 1,28,-1
 87 81 l 1,29,30
 87 148 87 148 103.5 230 c 128,-1,31
 120 312 120 312 155 412 c 0,32,33
 189 509 189 509 243.5 616.5 c 128,-1,34
 298 724 298 724 367 827 c 2,35,-1
 377 843 l 2,36,37
 400 877 400 877 419 906.5 c 128,-1,38
 438 936 438 936 465 968 c 0,39,40
 489 1000 489 1000 519 1034.5 c 128,-1,41
 549 1069 549 1069 579 1101 c 1,42,-1
 276 1101 l 2,43,44
 238 1101 238 1101 219 1087 c 2,45,-1
 199 1076 l 1,46,-1
 200 1077 l 1,47,-1
 175 1061 l 1,48,-1
 135 1031 l 1,49,-1
 104 1020 l 1,50,51
 63 1020 63 1020 48 1031 c 0,52,53
 37 1042 37 1042 32 1076 c 1,54,-1
 36 1097 l 1,55,-1
 51 1126 l 2,56,57
 59 1137 59 1137 83.5 1153 c 128,-1,58
 108 1169 108 1169 149 1191 c 1,59,60
 188 1206 188 1206 228.5 1213 c 128,-1,61
 269 1220 269 1220 311 1220 c 2,62,-1
 629 1220 l 2,63,64
 653 1220 653 1220 669.5 1212.5 c 128,-1,65
 686 1205 686 1205 697 1192.5 c 128,-1,66
 708 1180 708 1180 713 1164.5 c 128,-1,67
 718 1149 718 1149 718 1133 c 0,68,69
 718 1064 718 1064 627 973 c 1,70,-1
 627 974 l 1,0,1
EndSplineSet
EndChar

StartChar: eight
Encoding: 56 56 27
Width: 873
GlyphClass: 2
Flags: W
LayerCount: 2
Fore
SplineSet
765 753 m 0,0,1
 735 717 735 717 702.5 688 c 128,-1,2
 670 659 670 659 633 637 c 2,3,-1
 593 618 l 1,4,-1
 562 605 l 2,5,6
 563 604 563 604 562 604.5 c 128,-1,7
 561 605 561 605 562 604 c 2,8,-1
 560 604 l 1,9,-1
 570 600 l 1,10,11
 598 578 598 578 627 548.5 c 128,-1,12
 656 519 656 519 687 481 c 0,13,14
 740 413 740 413 740 315 c 0,15,16
 740 188 740 188 656 113 c 0,17,18
 615 77 615 77 566 50.5 c 128,-1,19
 517 24 517 24 460 8 c 1,20,-1
 419 0 l 1,21,-1
 377 -2 l 1,22,23
 233 -2 233 -2 142 84 c 0,24,25
 53 171 53 171 53 301 c 0,26,27
 53 417 53 417 137 504 c 1,28,-1
 137 503 l 1,29,30
 217 589 217 589 328 629 c 1,31,-1
 344 634 l 1,32,-1
 343 634 l 1,33,-1
 351 637 l 1,34,-1
 332 651 l 2,35,36
 320 662 320 662 306.5 675.5 c 128,-1,37
 293 689 293 689 279 707 c 2,38,-1
 253 745 l 1,39,-1
 224 800 l 1,40,-1
 205 852 l 1,41,-1
 198 912 l 1,42,43
 198 1036 198 1036 293 1132 c 0,44,45
 316 1155 316 1155 343 1172.5 c 128,-1,46
 370 1190 370 1190 400 1201 c 2,47,-1
 462 1219 l 1,48,-1
 536 1224 l 1,49,50
 647 1224 647 1224 735 1145 c 0,51,52
 823 1063 823 1063 823 935 c 0,53,54
 823 830 823 830 765 753 c 0,0,1
616 327 m 2,55,56
 616 370 616 370 585 407 c 2,57,-1
 555 445 l 1,58,-1
 541 463 l 1,59,-1
 541 462 l 1,60,-1
 523 480 l 1,61,-1
 524 480 l 1,62,-1
 491 512 l 1,63,-1
 462 536 l 1,64,-1
 433 557 l 1,65,-1
 415 553 l 2,66,67
 410 551 410 551 402 547.5 c 128,-1,68
 394 544 394 544 389 542 c 2,69,-1
 359 529 l 1,70,-1
 359 530 l 1,71,-1
 331 514 l 2,72,73
 315 505 315 505 288.5 482.5 c 128,-1,74
 262 460 262 460 227 427 c 1,75,76
 206 401 206 401 193.5 369 c 128,-1,77
 181 337 181 337 181 302 c 0,78,79
 181 264 181 264 195.5 230 c 128,-1,80
 210 196 210 196 238 163 c 1,81,82
 297 112 297 112 385 112 c 0,83,84
 468 112 468 112 543 172 c 0,85,86
 581 202 581 202 598.5 237.5 c 128,-1,87
 616 273 616 273 616 318 c 2,88,-1
 616 327 l 2,55,56
645 1062 m 0,89,90
 596 1114 596 1114 520 1114 c 0,91,92
 443 1114 443 1114 385 1058 c 1,93,94
 322 1008 322 1008 322 933 c 0,95,96
 322 850 322 850 365 792 c 0,97,98
 387 766 387 766 413 740 c 128,-1,99
 439 714 439 714 470 685 c 1,100,101
 558 722 558 722 626 780 c 0,102,103
 698 838 698 838 698 939 c 0,104,105
 698 1007 698 1007 645 1062 c 0,89,90
EndSplineSet
EndChar

StartChar: nine
Encoding: 57 57 28
Width: 889
GlyphClass: 2
Flags: W
LayerCount: 2
Fore
SplineSet
817 708 m 0,0,1
 810 668 810 668 799.5 627.5 c 128,-1,2
 789 587 789 587 776 554 c 0,3,4
 741 456 741 456 678.5 357.5 c 128,-1,5
 616 259 616 259 537 174 c 1,6,7
 454 93 454 93 346.5 45.5 c 128,-1,8
 239 -2 239 -2 115 -2 c 2,9,-1
 84 -2 l 2,10,11
 58 -2 58 -2 31 8 c 0,12,13
 0 18 0 18 0 57 c 0,14,15
 0 84 0 84 20 96 c 0,16,17
 31 101 31 101 42 105.5 c 128,-1,18
 53 110 53 110 63 112 c 2,19,-1
 82 113 l 1,20,-1
 100 114 l 1,21,22
 222 114 222 114 329 180 c 0,23,24
 384 214 384 214 428.5 251 c 128,-1,25
 473 288 473 288 508 330 c 0,26,27
 528 354 528 354 543.5 374.5 c 128,-1,28
 559 395 559 395 573 415 c 2,29,-1
 595 450 l 1,30,-1
 600 461 l 1,31,32
 570 435 570 435 525 419 c 1,33,-1
 473 409 l 1,34,-1
 409 405 l 1,35,36
 295 405 295 405 211 515 c 1,37,38
 135 627 135 627 135 761 c 2,39,-1
 135 777 l 1,40,-1
 137 797 l 1,41,-1
 137 813 l 2,42,43
 137 825 137 825 140 833 c 2,44,-1
 140 832 l 1,45,46
 151 912 151 912 183.5 981.5 c 128,-1,47
 216 1051 216 1051 265 1106 c 0,48,49
 316 1162 316 1162 387 1190.5 c 128,-1,50
 458 1219 458 1219 547 1219 c 0,51,52
 609 1219 609 1219 662 1191 c 128,-1,53
 715 1163 715 1163 755 1112 c 0,54,55
 785 1070 785 1070 809 996 c 0,56,57
 832 919 832 919 832 850 c 0,58,59
 832 793 832 793 817 708 c 0,0,1
653 1031 m 1,60,61
 607 1105 607 1105 536 1105 c 0,62,63
 443 1105 443 1105 377 1038 c 0,64,65
 344 1005 344 1005 318 964 c 128,-1,66
 292 923 292 923 275 875 c 0,67,68
 274 872 274 872 272.5 868 c 128,-1,69
 271 864 271 864 270 861 c 2,70,-1
 267 844 l 2,71,72
 266 835 266 835 264.5 825 c 128,-1,73
 263 815 263 815 262 807 c 0,74,75
 262 799 262 799 261.5 789.5 c 128,-1,76
 261 780 261 780 261 772 c 0,77,78
 261 718 261 718 273.5 672 c 128,-1,79
 286 626 286 626 308 591 c 0,80,81
 357 523 357 523 423 523 c 0,82,83
 533 523 533 523 618 608 c 0,84,85
 638 628 638 628 655 654 c 128,-1,86
 672 680 672 680 684 714 c 1,87,-1
 684 713 l 1,88,89
 704 787 704 787 704 850 c 0,90,91
 704 959 704 959 653 1031 c 1,60,61
EndSplineSet
EndChar

StartChar: colon
Encoding: 58 58 29
Width: 410
GlyphClass: 2
Flags: W
LayerCount: 2
Fore
SplineSet
264 32 m 0,0,1
 248 16 248 16 194 -2 c 1,2,-1
 184 -2 l 1,3,-1
 164 0 l 1,4,-1
 150 0 l 1,5,6
 118 10 118 10 90 38 c 1,7,-1
 74 64 l 1,8,-1
 64 114 l 1,9,10
 64 164 64 164 99 200 c 128,-1,11
 134 236 134 236 180 236 c 256,12,13
 226 236 226 236 261 205 c 128,-1,14
 296 174 296 174 296 122 c 0,15,16
 296 64 296 64 264 32 c 0,0,1
326 712 m 0,17,18
 298 684 298 684 256 676 c 1,19,-1
 246 676 l 1,20,-1
 226 676 l 1,21,-1
 212 680 l 2,22,23
 182 686 182 686 152 716 c 1,24,25
 126 748 126 748 126 794 c 0,26,27
 126 848 126 848 160 882 c 128,-1,28
 194 916 194 916 242 916 c 0,29,30
 288 916 288 916 323 885 c 128,-1,31
 358 854 358 854 358 802 c 0,32,33
 358 744 358 744 326 712 c 0,17,18
EndSplineSet
EndChar

StartChar: semicolon
Encoding: 59 59 30
Width: 524
GlyphClass: 2
Flags: W
LayerCount: 2
Fore
SplineSet
354 62 m 2,0,-1
 340 22 l 1,1,-1
 320 -18 l 2,2,3
 306 -46 306 -46 287 -74 c 128,-1,4
 268 -102 268 -102 244 -128 c 0,5,6
 202 -182 202 -182 156 -214 c 1,7,-1
 124 -230 l 1,8,-1
 94 -242 l 1,9,-1
 84 -244 l 1,10,-1
 76 -244 l 2,11,12
 64 -244 64 -244 51 -237 c 128,-1,13
 38 -230 38 -230 36 -214 c 2,14,-1
 38 -194 l 1,15,-1
 44 -172 l 1,16,-1
 52 -158 l 1,17,-1
 62 -148 l 1,18,-1
 86 -126 l 1,19,-1
 110 -102 l 1,20,-1
 156 -40 l 1,21,-1
 170 -16 l 1,22,-1
 194 32 l 1,23,-1
 188 34 l 2,24,25
 170 40 170 40 148 62 c 1,26,27
 132 84 132 84 112 126 c 1,28,-1
 106 148 l 1,29,-1
 104 170 l 1,30,31
 104 224 104 224 141 272 c 128,-1,32
 178 320 178 320 236 320 c 0,33,34
 296 320 296 320 332 268 c 128,-1,35
 368 216 368 216 368 134 c 0,36,37
 368 102 368 102 354 62 c 2,0,-1
454 676 m 0,38,39
 424 646 424 646 384 640 c 1,40,-1
 374 640 l 1,41,-1
 354 640 l 1,42,-1
 340 644 l 2,43,44
 308 654 308 654 280 682 c 1,45,46
 254 718 254 718 254 760 c 0,47,48
 254 812 254 812 289 847 c 128,-1,49
 324 882 324 882 370 882 c 256,50,51
 416 882 416 882 451 851 c 128,-1,52
 486 820 486 820 486 766 c 0,53,54
 486 708 486 708 454 676 c 0,38,39
EndSplineSet
EndChar

StartChar: less
Encoding: 60 60 31
Width: 1212
GlyphClass: 2
Flags: W
LayerCount: 2
Fore
SplineSet
1104 342 m 1,0,-1
 1104 140 l 1,1,-1
 108 594 l 1,2,-1
 108 762 l 1,3,-1
 1104 1216 l 1,4,-1
 1104 1014 l 1,5,-1
 360 678 l 1,6,-1
 1104 342 l 1,0,-1
EndSplineSet
EndChar

StartChar: equal
Encoding: 61 61 32
Width: 1038
GlyphClass: 2
Flags: W
LayerCount: 2
Fore
SplineSet
980 450 m 2,0,1
 974 432 974 432 958 422 c 2,2,-1
 934 406 l 1,3,-1
 924 402 l 1,4,-1
 122 402 l 1,5,-1
 110 404 l 1,6,-1
 84 418 l 1,7,-1
 56 444 l 1,8,9
 44 462 44 462 44 494 c 0,10,11
 44 514 44 514 57 535 c 128,-1,12
 70 556 70 556 84 566 c 2,13,-1
 110 580 l 1,14,-1
 122 584 l 1,15,-1
 924 584 l 1,16,-1
 934 580 l 1,17,18
 946 580 946 580 958 568 c 2,19,-1
 978 546 l 1,20,21
 988 524 988 524 992 496 c 1,22,-1
 980 450 l 2,0,1
980 878 m 0,23,24
 974 860 974 860 958 850 c 2,25,-1
 934 834 l 1,26,-1
 924 830 l 1,27,-1
 122 830 l 1,28,-1
 110 832 l 1,29,-1
 84 846 l 1,30,-1
 56 870 l 1,31,32
 44 888 44 888 44 920 c 0,33,34
 44 932 44 932 56 966 c 1,35,-1
 84 994 l 1,36,-1
 110 1008 l 1,37,-1
 122 1012 l 1,38,-1
 924 1012 l 1,39,-1
 934 1008 l 1,40,41
 948 1008 948 1008 958 998 c 2,42,-1
 980 970 l 2,43,44
 992 952 992 952 992 922 c 0,45,46
 992 912 992 912 980 878 c 0,23,24
EndSplineSet
EndChar

StartChar: greater
Encoding: 62 62 33
Width: 1212
GlyphClass: 2
Flags: W
LayerCount: 2
Fore
SplineSet
108 1014 m 1,0,-1
 108 1216 l 1,1,-1
 1104 762 l 1,2,-1
 1104 594 l 1,3,-1
 108 140 l 1,4,-1
 108 342 l 1,5,-1
 852 678 l 1,6,-1
 108 1014 l 1,0,-1
EndSplineSet
EndChar

StartChar: question
Encoding: 63 63 34
Width: 968
GlyphClass: 2
Flags: W
LayerCount: 2
Fore
SplineSet
426 122 m 1,0,-1
 426 114 l 1,1,2
 420 68 420 68 388 29 c 128,-1,3
 356 -10 356 -10 298 -10 c 0,4,5
 238 -10 238 -10 208 28 c 1,6,-1
 190 58 l 2,7,8
 178 82 178 82 178 116 c 2,9,-1
 178 138 l 1,10,-1
 182 156 l 2,11,12
 188 198 188 198 218 234 c 128,-1,13
 248 270 248 270 304 270 c 0,14,15
 358 270 358 270 388 234 c 128,-1,16
 418 198 418 198 424 150 c 2,17,-1
 426 138 l 1,18,-1
 426 130 l 1,19,-1
 426 122 l 1,0,-1
844 858 m 1,20,21
 784 786 784 786 704 724 c 2,22,-1
 684 708 l 1,23,-1
 664 692 l 1,24,-1
 566 604 l 2,25,26
 530 570 530 570 484 498 c 1,27,-1
 474 480 l 1,28,-1
 466 462 l 1,29,-1
 454 432 l 1,30,-1
 446 404 l 2,31,32
 440 380 440 380 426 360 c 0,33,34
 422 356 422 356 417 352 c 128,-1,35
 412 348 412 348 396 338 c 1,36,-1
 376 340 l 1,37,-1
 360 346 l 1,38,-1
 332 370 l 1,39,-1
 316 416 l 1,40,-1
 316 428 l 1,41,-1
 320 442 l 1,42,43
 344 544 344 544 406 614 c 1,44,-1
 534 744 l 1,45,-1
 582 784 l 1,46,-1
 628 824 l 2,47,48
 682 872 682 872 724 926 c 128,-1,49
 766 980 766 980 766 1054 c 0,50,51
 766 1178 766 1178 690 1273 c 128,-1,52
 614 1368 614 1368 472 1368 c 0,53,54
 420 1368 420 1368 360 1350 c 1,55,-1
 320 1332 l 1,56,-1
 304 1324 l 2,57,58
 292 1316 292 1316 288 1310 c 0,59,60
 258 1286 258 1286 246 1268 c 2,61,-1
 234 1250 l 1,62,-1
 246 1254 l 1,63,-1
 258 1260 l 1,64,-1
 282 1266 l 1,65,-1
 318 1270 l 1,66,67
 376 1270 376 1270 448 1210 c 1,68,69
 504 1148 504 1148 504 1042 c 0,70,71
 504 958 504 958 442 889 c 128,-1,72
 380 820 380 820 278 820 c 0,73,74
 190 820 190 820 120 898 c 1,75,76
 66 978 66 978 66 1074 c 0,77,78
 66 1240 66 1240 192 1368 c 0,79,80
 248 1424 248 1424 330 1458 c 128,-1,81
 412 1492 412 1492 496 1492 c 0,82,83
 662 1492 662 1492 783 1370 c 128,-1,84
 904 1248 904 1248 904 1054 c 0,85,86
 904 998 904 998 890 951 c 128,-1,87
 876 904 876 904 844 858 c 1,20,21
378 1074 m 2,88,89
 378 1094 378 1094 374 1098 c 0,90,91
 368 1124 368 1124 346 1146 c 0,92,93
 328 1168 328 1168 290 1168 c 0,94,95
 258 1168 258 1168 228 1144 c 1,96,-1
 192 1084 l 1,97,-1
 188 1064 l 1,98,-1
 186 1046 l 1,99,-1
 186 1036 l 2,100,101
 186 1008 186 1008 198 980 c 1,102,103
 212 960 212 960 238 944 c 2,104,-1
 260 934 l 1,105,-1
 278 932 l 2,106,107
 312 932 312 932 348 962 c 1,108,109
 372 992 372 992 378 1026 c 2,110,-1
 380 1038 l 1,111,-1
 380 1052 l 1,112,-1
 378 1074 l 2,88,89
EndSplineSet
EndChar

StartChar: at
Encoding: 64 64 35
Width: 1834
GlyphClass: 2
Flags: W
LayerCount: 2
Fore
SplineSet
1376 936 m 1,0,-1
 1260 546 l 1,1,-1
 1182 266 l 2,2,3
 1170 212 1170 212 1170 174 c 0,4,5
 1170 150 1170 150 1186 128 c 0,6,7
 1202 112 1202 112 1242 100 c 1,8,9
 1312 100 1312 100 1412 171 c 128,-1,10
 1512 242 1512 242 1585 403 c 128,-1,11
 1658 564 1658 564 1658 738 c 0,12,13
 1658 904 1658 904 1579 1043 c 128,-1,14
 1500 1182 1500 1182 1352 1260 c 128,-1,15
 1204 1338 1204 1338 1024 1338 c 0,16,17
 798 1338 798 1338 609 1224 c 128,-1,18
 420 1110 420 1110 300 880 c 1,19,20
 246 766 246 766 216 646 c 128,-1,21
 186 526 186 526 186 408 c 0,22,23
 186 302 186 302 210 194 c 1,24,-1
 240 96 l 1,25,-1
 258 56 l 1,26,-1
 286 0 l 2,27,28
 374 -170 374 -170 564 -278 c 1,29,30
 636 -314 636 -314 748 -343 c 128,-1,31
 860 -372 860 -372 952 -372 c 0,32,33
 1202 -372 1202 -372 1407 -238 c 128,-1,34
 1612 -104 1612 -104 1736 168 c 1,35,-1
 1792 168 l 1,36,37
 1708 -92 1708 -92 1474 -262 c 128,-1,38
 1240 -432 1240 -432 946 -432 c 0,39,40
 720 -432 720 -432 518 -322 c 0,41,42
 420 -270 420 -270 343 -193 c 128,-1,43
 266 -116 266 -116 206 -12 c 0,44,45
 156 82 156 82 120 202 c 1,46,47
 94 314 94 314 94 434 c 0,48,49
 94 690 94 690 213 915 c 128,-1,50
 332 1140 332 1140 553 1264 c 128,-1,51
 774 1388 774 1388 1018 1388 c 0,52,53
 1126 1388 1126 1388 1212 1368 c 0,54,55
 1246 1362 1246 1362 1298 1344 c 0,56,57
 1326 1336 1326 1336 1340 1328 c 0,58,59
 1358 1322 1358 1322 1382 1304 c 1,60,61
 1538 1232 1538 1232 1630 1062 c 1,62,-1
 1664 984 l 1,63,-1
 1694 894 l 1,64,65
 1716 802 1716 802 1716 720 c 0,66,67
 1716 540 1716 540 1638 367 c 128,-1,68
 1560 194 1560 194 1434 110 c 0,69,70
 1368 70 1368 70 1307 50 c 128,-1,71
 1246 30 1246 30 1176 30 c 256,72,73
 1106 30 1106 30 1064 66 c 0,74,75
 1028 102 1028 102 1028 164 c 2,76,-1
 1030 234 l 1,77,-1
 1044 308 l 1,78,79
 992 236 992 236 922 172 c 2,80,-1
 822 86 l 1,81,82
 726 30 726 30 660 30 c 0,83,84
 602 30 602 30 538 90 c 1,85,86
 484 154 484 154 484 256 c 0,87,88
 484 386 484 386 573 564 c 128,-1,89
 662 742 662 742 822 860 c 0,90,91
 934 942 934 942 1022 942 c 0,92,93
 1082 942 1082 942 1122 912 c 0,94,95
 1162 886 1162 886 1190 806 c 1,96,-1
 1222 914 l 1,97,-1
 1376 936 l 1,0,-1
1034 896 m 0,98,99
 962 896 962 896 882 816 c 1,100,-1
 828 756 l 1,101,-1
 780 686 l 1,102,-1
 696 512 l 1,103,-1
 652 384 l 1,104,-1
 642 332 l 1,105,-1
 638 286 l 1,106,107
 638 218 638 218 672 182 c 1,108,109
 710 148 710 148 750 148 c 0,110,111
 804 148 804 148 864 184 c 0,112,113
 920 222 920 222 1000 322 c 1,114,115
 1052 394 1052 394 1098 498 c 1,116,117
 1154 678 1154 678 1154 756 c 0,118,119
 1154 816 1154 816 1114 856 c 1,120,121
 1080 896 1080 896 1034 896 c 0,98,99
EndSplineSet
EndChar

StartChar: bracketleft
Encoding: 91 91 36
Width: 666
GlyphClass: 2
Flags: W
LayerCount: 2
Fore
SplineSet
-14 -246 m 1,0,-1
 -28 -234 l 1,1,-1
 26 70 l 1,2,-1
 84 438 l 1,3,-1
 140 818 l 1,4,-1
 176 1100 l 1,5,-1
 216 1436 l 1,6,-1
 230 1450 l 1,7,-1
 356 1448 l 1,8,-1
 414 1448 l 1,9,-1
 478 1444 l 1,10,-1
 510 1444 l 1,11,-1
 536 1444 l 1,12,-1
 626 1444 l 1,13,-1
 668 1452 l 1,14,-1
 660 1380 l 1,15,-1
 564 1380 l 1,16,-1
 512 1378 l 1,17,-1
 464 1372 l 1,18,-1
 452 1366 l 1,19,-1
 436 1354 l 1,20,-1
 414 1258 l 1,21,-1
 358 922 l 1,22,-1
 316 644 l 1,23,-1
 270 308 l 2,24,25
 222 -28 222 -28 222 -116 c 0,26,27
 222 -138 222 -138 252 -162 c 1,28,-1
 296 -174 l 1,29,-1
 380 -178 l 1,30,-1
 456 -178 l 1,31,-1
 444 -248 l 1,32,-1
 368 -242 l 1,33,-1
 266 -240 l 1,34,35
 46 -240 46 -240 -14 -246 c 1,0,-1
EndSplineSet
EndChar

StartChar: backslash
Encoding: 92 92 37
Width: 554
GlyphClass: 2
Flags: W
LayerCount: 2
Fore
SplineSet
0 1456 m 1,0,-1
 140 1456 l 1,1,-1
 554 -24 l 1,2,-1
 414 -24 l 1,3,-1
 0 1456 l 1,0,-1
EndSplineSet
EndChar

StartChar: bracketright
Encoding: 93 93 38
Width: 666
GlyphClass: 2
Flags: W
LayerCount: 2
Fore
SplineSet
-6 -248 m 1,0,-1
 2 -174 l 1,1,-1
 86 -178 l 1,2,-1
 160 -176 l 2,3,4
 192 -176 192 -176 210 -166 c 1,5,-1
 224 -154 l 1,6,-1
 242 -106 l 1,7,-1
 292 210 l 1,8,-1
 392 900 l 1,9,-1
 436 1310 l 1,10,11
 436 1352 436 1352 415 1364 c 128,-1,12
 394 1376 394 1376 362 1378 c 2,13,-1
 270 1380 l 1,14,-1
 204 1378 l 1,15,-1
 214 1452 l 1,16,-1
 340 1450 l 1,17,-1
 394 1450 l 2,18,19
 442 1450 442 1450 454 1446 c 1,20,-1
 572 1448 l 1,21,-1
 610 1448 l 1,22,-1
 640 1448 l 1,23,-1
 672 1452 l 1,24,-1
 688 1438 l 1,25,-1
 628 1116 l 1,26,-1
 522 388 l 1,27,-1
 472 6 l 1,28,-1
 444 -236 l 1,29,-1
 434 -246 l 1,30,-1
 216 -242 l 1,31,-1
 -6 -248 l 1,0,-1
EndSplineSet
EndChar

StartChar: asciicircum
Encoding: 94 94 39
Width: 1212
GlyphClass: 2
Flags: W
LayerCount: 2
Fore
SplineSet
352 560 m 1,0,-1
 138 560 l 1,1,-1
 534 1356 l 1,2,-1
 738 1356 l 1,3,-1
 1134 560 l 1,4,-1
 920 560 l 1,5,-1
 636 1112 l 1,6,-1
 352 560 l 1,0,-1
EndSplineSet
EndChar

StartChar: underscore
Encoding: 95 95 40
Width: 1000
GlyphClass: 2
Flags: W
LayerCount: 2
Fore
SplineSet
-12 -150 m 1,0,-1
 1012 -150 l 1,1,-1
 1012 -270 l 1,2,-1
 -12 -270 l 1,3,-1
 -12 -150 l 1,0,-1
EndSplineSet
EndChar

StartChar: grave
Encoding: 96 96 41
Width: 666
GlyphClass: 2
Flags: W
LayerCount: 2
Fore
SplineSet
666 1036 m 1,0,-1
 586 1036 l 1,1,-1
 344 1208 l 1,2,-1
 302 1236 l 1,3,-1
 276 1264 l 2,4,5
 268 1276 268 1276 258 1312 c 1,6,7
 258 1344 258 1344 281 1367 c 128,-1,8
 304 1390 304 1390 340 1390 c 0,9,10
 372 1390 372 1390 394 1374 c 0,11,12
 414 1364 414 1364 470 1292 c 2,13,-1
 666 1036 l 1,0,-1
EndSplineSet
EndChar

StartChar: braceleft
Encoding: 123 123 42
Width: 666
GlyphClass: 2
Flags: W
LayerCount: 2
Fore
SplineSet
296 596 m 1,0,1
 366 578 366 578 398 540 c 0,2,3
 426 502 426 502 426 434 c 2,4,-1
 426 404 l 1,5,-1
 418 368 l 1,6,-1
 346 -50 l 1,7,-1
 342 -90 l 1,8,9
 342 -152 342 -152 371 -187 c 128,-1,10
 400 -222 400 -222 468 -248 c 1,11,-1
 432 -248 l 1,12,-1
 404 -248 l 1,13,-1
 382 -248 l 2,14,15
 320 -248 320 -248 284 -242 c 0,16,17
 214 -230 214 -230 176 -186 c 1,18,19
 144 -142 144 -142 144 -74 c 0,20,21
 144 -24 144 -24 152 6 c 2,22,-1
 222 410 l 1,23,-1
 228 468 l 1,24,25
 228 566 228 566 104 596 c 1,26,27
 250 632 250 632 288 784 c 1,28,-1
 366 1222 l 1,29,30
 378 1314 378 1314 430 1366 c 1,31,32
 474 1416 474 1416 570 1440 c 1,33,34
 636 1450 636 1450 768 1450 c 1,35,-1
 746 1442 l 1,36,37
 682 1424 682 1424 628 1374 c 1,38,39
 602 1340 602 1340 576 1250 c 1,40,-1
 498 812 l 2,41,42
 480 730 480 730 432 666 c 1,43,44
 400 638 400 638 296 596 c 1,0,1
EndSplineSet
EndChar

StartChar: bar
Encoding: 124 124 43
Width: 1000
GlyphClass: 2
Flags: W
LayerCount: 2
Fore
SplineSet
458 1308 m 1,0,-1
 544 1308 l 1,1,-1
 544 -516 l 1,2,-1
 458 -516 l 1,3,-1
 458 1308 l 1,0,-1
EndSplineSet
EndChar

StartChar: braceright
Encoding: 125 125 44
Width: 666
GlyphClass: 2
Flags: W
LayerCount: 2
Fore
SplineSet
384 596 m 1,0,1
 324 614 324 614 284 652 c 1,2,3
 252 690 252 690 252 752 c 1,4,-1
 258 812 l 1,5,-1
 336 1250 l 1,6,-1
 340 1298 l 2,7,8
 340 1336 340 1336 326 1364 c 0,9,10
 320 1382 320 1382 290 1416 c 1,11,-1
 212 1450 l 1,12,13
 358 1450 358 1450 416 1438 c 0,14,15
 460 1432 460 1432 502 1388 c 0,16,17
 540 1344 540 1344 540 1274 c 2,18,-1
 540 1250 l 1,19,-1
 536 1222 l 1,20,-1
 458 784 l 1,21,-1
 452 736 l 1,22,23
 452 638 452 638 576 596 c 1,24,25
 502 584 502 584 444 530 c 0,26,27
 422 508 422 508 392 410 c 1,28,-1
 320 6 l 2,29,30
 314 -36 314 -36 304 -68 c 128,-1,31
 294 -100 294 -100 276 -126 c 0,32,33
 246 -182 246 -182 200 -204 c 0,34,35
 158 -228 158 -228 76 -246 c 1,36,-1
 -86 -248 l 1,37,38
 -26 -236 -26 -236 9 -211 c 128,-1,39
 44 -186 44 -186 71 -148 c 128,-1,40
 98 -110 98 -110 106 -50 c 2,41,-1
 180 368 l 2,42,43
 198 474 198 474 244 522 c 0,44,45
 262 540 262 540 300 562 c 1,46,-1
 384 596 l 1,0,1
EndSplineSet
EndChar

StartChar: asciitilde
Encoding: 126 126 45
Width: 1212
GlyphClass: 2
Flags: W
LayerCount: 2
Fore
SplineSet
1082 834 m 1,0,-1
 1138 834 l 1,1,2
 1138 694 1138 694 1060 607 c 128,-1,3
 982 520 982 520 876 520 c 2,4,-1
 814 522 l 1,5,-1
 756 536 l 1,6,-1
 644 578 l 1,7,-1
 508 636 l 1,8,-1
 384 680 l 1,9,-1
 342 690 l 1,10,-1
 302 696 l 1,11,12
 172 696 172 696 130 520 c 1,13,-1
 74 520 l 1,14,15
 74 586 74 586 92 646 c 128,-1,16
 110 706 110 706 152 756 c 0,17,18
 226 836 226 836 328 836 c 1,19,-1
 372 834 l 2,20,21
 396 834 396 834 436 820 c 2,22,-1
 516 796 l 1,23,-1
 586 770 l 1,24,-1
 702 720 l 1,25,-1
 844 666 l 1,26,-1
 910 658 l 1,27,28
 982 658 982 658 1024 702 c 0,29,30
 1060 738 1060 738 1082 834 c 1,0,-1
EndSplineSet
EndChar

StartChar: cent
Encoding: 162 162 46
Width: 721
GlyphClass: 2
Flags: W
LayerCount: 2
Fore
SplineSet
598 156 m 1,0,1
 537 71 537 71 467 31 c 128,-1,2
 397 -9 397 -9 304 -17 c 1,3,-1
 228 -265 l 1,4,-1
 187 -265 l 1,5,-1
 262 -17 l 1,6,7
 177 -8 177 -8 128.5 47 c 128,-1,8
 80 102 80 102 80 188 c 0,9,10
 80 345 80 345 191.5 478.5 c 128,-1,11
 303 612 303 612 457 638 c 1,12,-1
 541 917 l 1,13,-1
 580 917 l 1,14,-1
 499 638 l 1,15,16
 580 638 580 638 616.5 607 c 128,-1,17
 653 576 653 576 653 523 c 0,18,19
 653 482 653 482 631.5 455.5 c 128,-1,20
 610 429 610 429 580 429 c 0,21,22
 557 429 557 429 544 442 c 128,-1,23
 531 455 531 455 531 476 c 0,24,25
 531 491 531 491 536 502 c 128,-1,26
 541 513 541 513 560.5 534.5 c 128,-1,27
 580 556 580 556 580 570 c 0,28,29
 580 578 580 578 575 585 c 0,30,31
 565 596 565 596 549.5 601 c 128,-1,32
 534 606 534 606 489 606 c 1,33,-1
 322 49 l 1,34,-1
 352 47 l 1,35,36
 470 47 470 47 580 173 c 1,37,-1
 598 156 l 1,0,1
284 57 m 1,38,-1
 445 598 l 1,39,40
 383 570 383 570 342 533 c 0,41,42
 274 467 274 467 237 380.5 c 128,-1,43
 200 294 200 294 200 205 c 0,44,45
 200 146 200 146 224 108 c 0,46,47
 243 81 243 81 284 57 c 1,38,-1
EndSplineSet
EndChar

StartChar: multiply
Encoding: 215 215 47
Width: 975
GlyphClass: 2
Flags: W
LayerCount: 2
Fore
SplineSet
267 230 m 1,0,-1
 515 479 l 1,1,-1
 267 728 l 1,2,-1
 308 768 l 1,3,-1
 556 520 l 1,4,-1
 805 768 l 1,5,-1
 844 728 l 1,6,-1
 595 480 l 1,7,-1
 845 230 l 1,8,-1
 805 190 l 1,9,-1
 555 439 l 1,10,-1
 307 190 l 1,11,-1
 267 230 l 1,0,-1
EndSplineSet
EndChar

StartChar: divide
Encoding: 247 247 48
Width: 792
GlyphClass: 2
Flags: W
LayerCount: 2
Fore
SplineSet
418 757 m 0,0,1
 443 757 443 757 461 739 c 128,-1,2
 479 721 479 721 479 695 c 0,3,4
 479 670 479 670 461 652 c 128,-1,5
 443 634 443 634 417 634 c 0,6,7
 392 634 392 634 373.5 652 c 128,-1,8
 355 670 355 670 355 695 c 0,9,10
 355 721 355 721 373.5 739 c 128,-1,11
 392 757 392 757 418 757 c 0,0,1
797 450 m 1,12,-1
 38 450 l 1,13,-1
 38 508 l 1,14,-1
 797 508 l 1,15,-1
 797 450 l 1,12,-1
418 320 m 0,16,17
 443 320 443 320 461 301.5 c 128,-1,18
 479 283 479 283 479 257 c 0,19,20
 479 233 479 233 461 215 c 128,-1,21
 443 197 443 197 418 197 c 0,22,23
 392 197 392 197 373.5 215 c 128,-1,24
 355 233 355 233 355 257 c 0,25,26
 355 283 355 283 373.5 301.5 c 128,-1,27
 392 320 392 320 418 320 c 0,16,17
EndSplineSet
EndChar

StartChar: tm_visarga
Encoding: 2947 2947 49
Width: 1524
GlyphClass: 2
Flags: W
LayerCount: 2
Fore
SplineSet
632 308 m 1,0,-1
 632 288 l 1,1,2
 620 178 620 178 544 90 c 1,3,4
 474 -2 474 -2 338 -2 c 0,5,6
 222 -2 222 -2 147 77 c 128,-1,7
 72 156 72 156 72 296 c 2,8,-1
 72 306 l 1,9,-1
 72 316 l 1,10,-1
 74 328 l 1,11,12
 74 386 74 386 94 432 c 2,13,-1
 112 466 l 1,14,-1
 164 538 l 1,15,16
 242 634 242 634 362 634 c 0,17,18
 496 634 496 634 565 538 c 128,-1,19
 634 442 634 442 634 328 c 1,20,-1
 632 308 l 1,0,-1
476 464 m 1,21,22
 438 524 438 524 358 524 c 0,23,24
 302 524 302 524 250 466 c 1,25,26
 202 406 202 406 190 330 c 2,27,-1
 188 314 l 1,28,-1
 188 300 l 2,29,30
 188 226 188 226 224 160 c 1,31,32
 262 104 262 104 326 104 c 0,33,34
 396 104 396 104 453 169 c 128,-1,35
 510 234 510 234 510 308 c 1,36,-1
 512 320 l 1,37,-1
 512 334 l 2,38,39
 512 392 512 392 476 464 c 1,21,22
1446 308 m 1,40,-1
 1446 288 l 1,41,42
 1434 178 1434 178 1360 88 c 128,-1,43
 1286 -2 1286 -2 1154 -2 c 0,44,45
 1036 -2 1036 -2 962 78 c 128,-1,46
 888 158 888 158 888 294 c 2,47,-1
 888 306 l 1,48,-1
 888 316 l 1,49,-1
 890 328 l 1,50,51
 890 386 890 386 908 432 c 1,52,53
 930 476 930 476 980 538 c 0,54,55
 1058 634 1058 634 1176 634 c 0,56,57
 1316 634 1316 634 1382 541 c 128,-1,58
 1448 448 1448 448 1448 328 c 1,59,-1
 1446 308 l 1,40,-1
1290 464 m 0,60,61
 1252 524 1252 524 1172 524 c 0,62,63
 1116 524 1116 524 1068 466 c 0,64,65
 1026 410 1026 410 1006 330 c 1,66,-1
 1004 314 l 1,67,-1
 1004 300 l 2,68,69
 1004 226 1004 226 1040 160 c 1,70,71
 1078 104 1078 104 1142 104 c 0,72,73
 1214 104 1214 104 1270 170 c 128,-1,74
 1326 236 1326 236 1326 308 c 1,75,-1
 1328 320 l 1,76,-1
 1328 334 l 2,77,78
 1328 406 1328 406 1290 464 c 0,60,61
1210 1210 m 1,79,-1
 1208 1186 l 2,80,81
 1196 1086 1196 1086 1123 994 c 128,-1,82
 1050 902 1050 902 916 902 c 0,83,84
 792 902 792 902 721 987 c 128,-1,85
 650 1072 650 1072 650 1204 c 2,86,-1
 650 1214 l 1,87,-1
 650 1226 l 1,88,-1
 652 1240 l 2,89,90
 664 1346 664 1346 740 1446 c 1,91,92
 818 1540 818 1540 940 1540 c 0,93,94
 1072 1540 1072 1540 1142 1443 c 128,-1,95
 1212 1346 1212 1346 1212 1234 c 1,96,-1
 1210 1210 l 1,79,-1
1054 1372 m 0,97,98
 1018 1432 1018 1432 936 1432 c 0,99,100
 878 1432 878 1432 829 1376 c 128,-1,101
 780 1320 780 1320 768 1240 c 2,102,-1
 766 1222 l 1,103,-1
 766 1206 l 2,104,105
 766 1132 766 1132 802 1068 c 1,106,107
 840 1012 840 1012 904 1012 c 0,108,109
 984 1012 984 1012 1032 1071 c 128,-1,110
 1080 1130 1080 1130 1092 1218 c 1,111,-1
 1092 1228 l 1,112,-1
 1092 1240 l 2,113,114
 1092 1314 1092 1314 1054 1372 c 0,97,98
EndSplineSet
EndChar

StartChar: tm_a
Encoding: 2949 2949 50
Width: 1748
GlyphClass: 2
Flags: W
LayerCount: 2
Fore
SplineSet
1656 792 m 1,0,-1
 1656 754 l 1,1,-1
 1654 676 l 1,2,-1
 1654 628 l 1,3,-1
 1646 594 l 1,4,-1
 1640 510 l 1,5,-1
 1622 424 l 1,6,7
 1604 270 1604 270 1570 186 c 1,8,-1
 1556 130 l 1,9,-1
 1544 90 l 1,10,-1
 1528 34 l 1,11,-1
 1508 -20 l 1,12,-1
 1494 -64 l 1,13,-1
 1476 -102 l 1,14,-1
 1464 -132 l 1,15,-1
 1444 -168 l 2,16,17
 1414 -218 1414 -218 1390 -230 c 1,18,19
 1360 -230 1360 -230 1336 -200 c 1,20,21
 1322 -174 1322 -174 1316 -134 c 1,22,23
 1316 -96 1316 -96 1342 -38 c 2,24,-1
 1398 104 l 1,25,-1
 1422 176 l 1,26,-1
 1444 258 l 1,27,-1
 1270 258 l 1,28,29
 1232 178 1232 178 1181 119 c 128,-1,30
 1130 60 1130 60 1057 19 c 128,-1,31
 984 -22 984 -22 906 -48 c 0,32,33
 876 -60 876 -60 835 -71 c 128,-1,34
 794 -82 794 -82 736 -94 c 1,35,-1
 684 -100 l 1,36,37
 640 -100 640 -100 634 -104 c 1,38,-1
 618 -104 l 1,39,-1
 606 -106 l 1,40,-1
 590 -106 l 1,41,-1
 578 -106 l 2,42,43
 470 -106 470 -106 377 -86 c 128,-1,44
 284 -66 284 -66 205 -25 c 128,-1,45
 126 16 126 16 78 76 c 0,46,47
 36 134 36 134 36 206 c 0,48,49
 36 272 36 272 102 331 c 128,-1,50
 168 390 168 390 280 390 c 2,51,-1
 1166 390 l 1,52,-1
 1170 406 l 1,53,-1
 1176 426 l 1,54,-1
 1178 436 l 1,55,-1
 1180 446 l 1,56,-1
 1186 478 l 1,57,-1
 1190 504 l 1,58,-1
 1188 528 l 1,59,-1
 1188 556 l 1,60,61
 1182 612 1182 612 1169 649 c 128,-1,62
 1156 686 1156 686 1124 734 c 0,63,64
 1078 812 1078 812 966 846 c 1,65,66
 980 832 980 832 998 792 c 1,67,-1
 1012 728 l 1,68,-1
 1012 718 l 1,69,-1
 1012 690 l 1,70,-1
 1008 664 l 2,71,72
 996 588 996 588 926 530 c 0,73,74
 856 476 856 476 760 476 c 0,75,76
 670 476 670 476 600 536 c 1,77,78
 544 598 544 598 544 688 c 0,79,80
 544 812 544 812 639 893 c 128,-1,81
 734 974 734 974 870 974 c 0,82,83
 1076 974 1076 974 1202 845 c 128,-1,84
 1328 716 1328 716 1328 500 c 1,85,-1
 1326 474 l 2,86,87
 1326 448 1326 448 1322 444 c 2,88,-1
 1320 436 l 1,89,-1
 1316 408 l 1,90,-1
 1314 390 l 1,91,-1
 1474 390 l 1,92,-1
 1496 522 l 1,93,-1
 1512 680 l 1,94,-1
 1516 752 l 1,95,-1
 1518 822 l 1,96,-1
 1516 870 l 1,97,-1
 1514 914 l 2,98,99
 1514 938 1514 938 1522 948 c 1,100,-1
 1550 960 l 1,101,-1
 1576 954 l 1,102,-1
 1604 942 l 1,103,-1
 1614 934 l 1,104,-1
 1626 926 l 2,105,106
 1638 920 1638 920 1644 896 c 2,107,-1
 1652 846 l 1,108,-1
 1654 836 l 1,109,-1
 1654 826 l 1,110,-1
 1656 792 l 1,0,-1
300 258 m 1,111,-1
 278 258 l 1,112,-1
 254 256 l 2,113,114
 224 256 224 256 198 242 c 1,115,116
 172 236 172 236 172 202 c 2,117,-1
 174 182 l 1,118,-1
 182 164 l 2,119,120
 204 110 204 110 309 63 c 128,-1,121
 414 16 414 16 600 16 c 0,122,123
 800 16 800 16 916 81 c 128,-1,124
 1032 146 1032 146 1116 258 c 1,125,-1
 300 258 l 1,111,-1
864 794 m 0,126,127
 846 820 846 820 798 838 c 1,128,-1
 790 838 l 2,129,130
 748 838 748 838 719 809 c 128,-1,131
 690 780 690 780 666 718 c 1,132,-1
 666 708 l 1,133,-1
 664 702 l 1,134,-1
 664 692 l 2,135,136
 664 668 664 668 688 622 c 1,137,138
 708 602 708 602 760 584 c 1,139,-1
 770 584 l 2,140,141
 812 584 812 584 849 624 c 128,-1,142
 886 664 886 664 886 708 c 0,143,144
 886 758 886 758 864 794 c 0,126,127
EndSplineSet
EndChar

StartChar: tm_aa
Encoding: 2950 2950 51
Width: 1982
GlyphClass: 2
Flags: W
LayerCount: 2
Fore
SplineSet
1748 -342 m 0,0,1
 1600 -444 1600 -444 1362 -490 c 1,2,-1
 1298 -496 l 1,3,-1
 1236 -498 l 1,4,-1
 1096 -492 l 1,5,-1
 1038 -484 l 1,6,-1
 994 -472 l 2,7,8
 920 -454 920 -454 870 -418 c 1,9,-1
 846 -396 l 1,10,-1
 830 -378 l 1,11,-1
 826 -374 l 1,12,-1
 814 -346 l 1,13,-1
 808 -312 l 1,14,-1
 808 -304 l 1,15,-1
 814 -262 l 1,16,17
 820 -250 820 -250 850 -244 c 1,18,-1
 864 -248 l 1,19,-1
 878 -256 l 1,20,-1
 898 -272 l 1,21,-1
 946 -312 l 1,22,-1
 986 -334 l 1,23,-1
 1048 -358 l 1,24,25
 1124 -380 1124 -380 1234 -380 c 0,26,27
 1448 -380 1448 -380 1576 -306 c 0,28,29
 1636 -274 1636 -274 1682 -233 c 128,-1,30
 1728 -192 1728 -192 1756 -148 c 1,31,32
 1772 -132 1772 -132 1782 -90 c 2,33,-1
 1790 -36 l 1,34,35
 1790 10 1790 10 1752 43 c 128,-1,36
 1714 76 1714 76 1658 76 c 2,37,-1
 1536 76 l 1,38,-1
 1520 24 l 1,39,-1
 1504 -22 l 1,40,-1
 1474 -104 l 1,41,-1
 1460 -134 l 1,42,-1
 1440 -170 l 2,43,44
 1410 -228 1410 -228 1386 -230 c 0,45,46
 1356 -230 1356 -230 1332 -200 c 1,47,48
 1318 -174 1318 -174 1312 -134 c 1,49,50
 1312 -96 1312 -96 1338 -38 c 2,51,-1
 1394 104 l 1,52,-1
 1418 176 l 1,53,-1
 1440 258 l 1,54,-1
 1266 258 l 1,55,56
 1202 106 1202 106 1061 25 c 128,-1,57
 920 -56 920 -56 740 -94 c 1,58,-1
 686 -100 l 1,59,60
 636 -100 636 -100 632 -104 c 1,61,-1
 616 -104 l 1,62,-1
 604 -106 l 1,63,-1
 588 -106 l 1,64,-1
 576 -106 l 2,65,66
 362 -106 362 -106 198 -22 c 128,-1,67
 34 62 34 62 34 206 c 0,68,69
 34 278 34 278 98 334 c 0,70,71
 132 362 132 362 172 376 c 0,72,73
 198 382 198 382 222 386 c 128,-1,74
 246 390 246 390 276 390 c 2,75,-1
 1164 390 l 1,76,-1
 1168 408 l 1,77,-1
 1174 434 l 1,78,-1
 1176 446 l 1,79,-1
 1182 478 l 1,80,-1
 1186 504 l 1,81,-1
 1184 528 l 1,82,-1
 1184 556 l 1,83,84
 1172 654 1172 654 1120 734 c 1,85,86
 1074 816 1074 816 964 846 c 1,87,88
 976 836 976 836 992 796 c 1,89,-1
 1010 718 l 1,90,-1
 1008 708 l 1,91,-1
 1008 700 l 1,92,-1
 1006 682 l 1,93,-1
 1004 664 l 2,94,95
 992 588 992 588 922 530 c 0,96,97
 852 476 852 476 756 476 c 0,98,99
 666 476 666 476 596 536 c 1,100,101
 540 598 540 598 540 688 c 0,102,103
 540 812 540 812 634 894 c 0,104,105
 682 934 682 934 738 954 c 128,-1,106
 794 974 794 974 866 974 c 0,107,108
 1072 974 1072 974 1198 845 c 128,-1,109
 1324 716 1324 716 1324 500 c 1,110,-1
 1322 474 l 2,111,112
 1322 448 1322 448 1318 444 c 2,113,-1
 1316 436 l 1,114,-1
 1312 408 l 1,115,-1
 1310 390 l 1,116,-1
 1470 390 l 1,117,-1
 1492 522 l 1,118,-1
 1508 680 l 1,119,-1
 1512 752 l 1,120,-1
 1514 822 l 1,121,-1
 1512 870 l 1,122,-1
 1510 914 l 2,123,124
 1510 938 1510 938 1518 948 c 1,125,-1
 1546 960 l 1,126,-1
 1572 954 l 1,127,-1
 1600 942 l 1,128,-1
 1610 934 l 1,129,-1
 1622 926 l 2,130,131
 1634 920 1634 920 1640 896 c 2,132,-1
 1648 846 l 1,133,-1
 1650 836 l 1,134,-1
 1650 826 l 1,135,-1
 1652 780 l 1,136,-1
 1652 736 l 1,137,-1
 1650 636 l 1,138,-1
 1648 576 l 1,139,-1
 1634 500 l 1,140,-1
 1622 422 l 1,141,-1
 1602 318 l 1,142,-1
 1588 262 l 1,143,-1
 1574 210 l 1,144,-1
 1658 208 l 2,145,146
 1788 208 1788 208 1856 138 c 1,147,148
 1924 74 1924 74 1924 -30 c 0,149,150
 1924 -222 1924 -222 1748 -342 c 0,0,1
296 258 m 1,151,-1
 274 258 l 1,152,-1
 250 256 l 2,153,154
 220 256 220 256 194 242 c 1,155,156
 168 236 168 236 168 202 c 2,157,-1
 170 182 l 1,158,-1
 178 164 l 2,159,160
 200 110 200 110 305 63 c 128,-1,161
 410 16 410 16 596 16 c 0,162,163
 796 16 796 16 912 81 c 128,-1,164
 1028 146 1028 146 1112 258 c 1,165,-1
 296 258 l 1,151,-1
860 794 m 0,166,167
 842 820 842 820 794 838 c 1,168,-1
 786 838 l 2,169,170
 744 838 744 838 715 809 c 128,-1,171
 686 780 686 780 662 718 c 1,172,-1
 662 708 l 1,173,-1
 660 702 l 1,174,-1
 660 692 l 2,175,176
 660 668 660 668 684 622 c 1,177,178
 702 602 702 602 756 584 c 1,179,-1
 766 584 l 2,180,181
 808 584 808 584 845 624 c 128,-1,182
 882 664 882 664 882 708 c 0,183,184
 882 758 882 758 860 794 c 0,166,167
EndSplineSet
EndChar

StartChar: tm_i
Encoding: 2951 2951 52
Width: 1866
GlyphClass: 2
Flags: W
LayerCount: 2
Fore
SplineSet
1776 614 m 1,0,-1
 1758 516 l 2,1,2
 1746 460 1746 460 1728 408 c 0,3,4
 1718 384 1718 384 1712 368 c 128,-1,5
 1706 352 1706 352 1684 312 c 0,6,7
 1636 224 1636 224 1566 192 c 1,8,-1
 1558 190 l 1,9,-1
 1550 190 l 2,10,11
 1532 190 1532 190 1516 212 c 0,12,13
 1504 234 1504 234 1504 262 c 2,14,-1
 1506 288 l 2,15,16
 1510 308 1510 308 1516 312 c 2,17,-1
 1540 348 l 1,18,-1
 1572 398 l 2,19,20
 1590 428 1590 428 1614 506 c 128,-1,21
 1638 584 1638 584 1638 704 c 0,22,23
 1638 942 1638 942 1494 1131 c 128,-1,24
 1350 1320 1350 1320 1074 1320 c 0,25,26
 802 1320 802 1320 602 1076 c 128,-1,27
 402 832 402 832 402 528 c 1,28,-1
 404 452 l 2,29,30
 404 404 404 404 412 380 c 2,31,-1
 432 270 l 1,32,-1
 440 230 l 1,33,-1
 454 196 l 1,34,-1
 464 170 l 1,35,-1
 538 196 l 1,36,-1
 588 210 l 1,37,-1
 646 220 l 1,38,-1
 720 232 l 1,39,-1
 764 234 l 1,40,-1
 808 236 l 1,41,-1
 842 234 l 1,42,-1
 876 234 l 1,43,-1
 914 234 l 1,44,-1
 944 226 l 1,45,-1
 1030 210 l 1,46,-1
 1056 204 l 2,47,48
 1070 204 1070 204 1086 194 c 2,49,-1
 1146 170 l 1,50,51
 1196 248 1196 248 1232 342 c 1,52,-1
 1256 432 l 1,53,-1
 1264 524 l 1,54,-1
 1264 536 l 1,55,-1
 1264 550 l 2,56,57
 1264 588 1264 588 1260 611 c 128,-1,58
 1256 634 1256 634 1242 660 c 1,59,60
 1236 686 1236 686 1218 712 c 0,61,62
 1202 742 1202 742 1180 768 c 0,63,64
 1106 866 1106 866 976 866 c 1,65,-1
 944 864 l 2,66,67
 932 864 932 864 926 858 c 2,68,-1
 914 852 l 1,69,-1
 936 840 l 1,70,71
 958 834 958 834 988 806 c 0,72,73
 1010 790 1010 790 1044 728 c 0,74,75
 1060 698 1060 698 1068 669 c 128,-1,76
 1076 640 1076 640 1076 600 c 0,77,78
 1076 530 1076 530 1016 442 c 1,79,80
 956 372 956 372 838 372 c 0,81,82
 748 372 748 372 678 440 c 1,83,84
 652 472 652 472 628 522 c 1,85,-1
 616 568 l 1,86,-1
 612 626 l 1,87,-1
 612 634 l 2,88,89
 612 754 612 754 714 872 c 0,90,91
 758 918 758 918 828 952 c 0,92,93
 898 982 898 982 986 982 c 0,94,95
 1166 982 1166 982 1287 860 c 128,-1,96
 1408 738 1408 738 1408 520 c 0,97,98
 1408 416 1408 416 1376 320 c 0,99,100
 1362 274 1362 274 1336 224 c 128,-1,101
 1310 174 1310 174 1272 118 c 1,102,103
 1326 88 1326 88 1368 52 c 2,104,-1
 1408 14 l 1,105,-1
 1446 -30 l 1,106,107
 1510 -118 1510 -118 1510 -214 c 0,108,109
 1510 -322 1510 -322 1389 -412 c 128,-1,110
 1268 -502 1268 -502 1094 -502 c 2,111,-1
 1082 -502 l 1,112,-1
 1074 -502 l 1,113,-1
 1026 -500 l 2,114,115
 990 -500 990 -500 960 -490 c 2,116,-1
 872 -466 l 2,117,118
 774 -436 774 -436 698 -380 c 1,119,120
 596 -438 596 -438 488 -470 c 1,121,-1
 382 -494 l 2,122,123
 364 -498 364 -498 340 -500 c 128,-1,124
 316 -502 316 -502 298 -502 c 0,125,126
 264 -502 264 -502 232 -502 c 1,127,128
 198 -496 198 -496 176 -492 c 128,-1,129
 154 -488 154 -488 114 -462 c 0,130,131
 56 -426 56 -426 28 -374 c 1,132,-1
 16 -344 l 1,133,-1
 12 -316 l 1,134,-1
 12 -306 l 1,135,-1
 12 -296 l 1,136,-1
 14 -266 l 1,137,-1
 18 -238 l 1,138,139
 36 -146 36 -146 116 -63 c 128,-1,140
 196 20 196 20 338 102 c 1,141,-1
 306 210 l 1,142,-1
 284 322 l 1,143,-1
 274 424 l 1,144,-1
 270 524 l 1,145,146
 270 866 270 866 499 1159 c 128,-1,147
 728 1452 728 1452 1094 1452 c 0,148,149
 1404 1452 1404 1452 1593 1234 c 128,-1,150
 1782 1016 1782 1016 1782 704 c 1,151,-1
 1776 614 l 1,0,-1
1348 -146 m 0,152,153
 1338 -124 1338 -124 1288 -66 c 1,154,-1
 1242 -26 l 1,155,-1
 1184 12 l 1,156,157
 1114 -76 1114 -76 1022 -156 c 2,158,-1
 932 -230 l 1,159,-1
 834 -300 l 1,160,-1
 886 -326 l 1,161,-1
 952 -354 l 1,162,163
 1036 -380 1036 -380 1098 -380 c 0,164,165
 1224 -380 1224 -380 1288 -334 c 0,166,167
 1352 -292 1352 -292 1366 -230 c 2,168,-1
 1368 -222 l 1,169,-1
 1368 -214 l 2,170,171
 1368 -186 1368 -186 1348 -146 c 0,152,153
486 -176 m 1,172,-1
 446 -116 l 1,173,-1
 408 -52 l 1,174,-1
 396 -30 l 1,175,-1
 386 -10 l 1,176,-1
 318 -52 l 1,177,-1
 286 -74 l 1,178,-1
 264 -98 l 1,179,-1
 214 -152 l 1,180,-1
 180 -198 l 1,181,-1
 162 -236 l 1,182,-1
 152 -268 l 1,183,-1
 152 -276 l 2,184,185
 152 -322 152 -322 192 -350 c 0,186,187
 204 -356 204 -356 230 -366 c 128,-1,188
 256 -376 256 -376 286 -376 c 2,189,-1
 294 -376 l 1,190,-1
 350 -374 l 2,191,192
 370 -374 370 -374 398 -360 c 1,193,-1
 442 -348 l 2,194,195
 474 -342 474 -342 484 -332 c 1,196,-1
 554 -302 l 1,197,-1
 580 -288 l 1,198,-1
 534 -236 l 1,199,-1
 486 -176 l 1,172,-1
994 88 m 1,200,-1
 930 102 l 1,201,-1
 862 108 l 1,202,-1
 800 110 l 1,203,-1
 754 110 l 1,204,-1
 706 106 l 2,205,206
 674 106 674 106 620 94 c 2,207,-1
 564 78 l 1,208,-1
 508 58 l 1,209,-1
 534 2 l 1,210,-1
 570 -60 l 1,211,-1
 610 -116 l 1,212,-1
 654 -170 l 1,213,-1
 682 -200 l 1,214,-1
 710 -226 l 1,215,-1
 724 -216 l 1,216,-1
 740 -208 l 1,217,218
 776 -182 776 -182 832 -140 c 0,219,220
 852 -124 852 -124 906 -80 c 1,221,-1
 982 -10 l 1,222,-1
 1058 68 l 1,223,-1
 994 88 l 1,200,-1
932 626 m 2,224,225
 932 666 932 666 903 713 c 128,-1,226
 874 760 874 760 828 760 c 0,227,228
 790 760 790 760 761 719 c 128,-1,229
 732 678 732 678 732 622 c 2,230,-1
 732 612 l 2,231,232
 732 582 732 582 762 530 c 1,233,234
 790 490 790 490 846 490 c 0,235,236
 878 490 878 490 900 520 c 0,237,238
 914 544 914 544 932 600 c 1,239,-1
 932 608 l 1,240,-1
 932 616 l 1,241,-1
 932 626 l 2,224,225
EndSplineSet
EndChar

StartChar: tm_ii
Encoding: 2952 2952 53
Width: 1332
GlyphClass: 2
Flags: W
LayerCount: 2
Fore
SplineSet
1138 856 m 1,0,-1
 1140 848 l 1,1,-1
 1138 842 l 2,2,3
 1132 822 1132 822 1116 806 c 1,4,-1
 1080 784 l 1,5,-1
 1070 780 l 1,6,-1
 1058 780 l 1,7,-1
 1044 782 l 1,8,-1
 1032 786 l 1,9,-1
 1022 792 l 1,10,-1
 914 830 l 1,11,-1
 852 842 l 1,12,-1
 794 846 l 1,13,14
 822 824 822 824 858 748 c 1,15,-1
 886 678 l 1,16,-1
 910 598 l 1,17,-1
 928 502 l 1,18,-1
 934 418 l 1,19,-1
 930 362 l 1,20,-1
 924 306 l 2,21,22
 912 218 912 218 874 130 c 1,23,24
 852 60 852 60 802 12 c 1,25,-1
 782 0 l 1,26,-1
 764 -2 l 1,27,-1
 752 0 l 1,28,-1
 744 2 l 1,29,-1
 716 26 l 1,30,-1
 698 60 l 1,31,-1
 696 66 l 1,32,-1
 696 74 l 1,33,-1
 698 90 l 1,34,-1
 702 102 l 1,35,36
 714 120 714 120 746 192 c 1,37,-1
 778 298 l 1,38,-1
 786 358 l 1,39,-1
 790 418 l 1,40,-1
 790 456 l 1,41,-1
 786 508 l 1,42,-1
 784 536 l 2,43,44
 784 550 784 550 768 580 c 1,45,46
 746 660 746 660 718 706 c 0,47,48
 706 730 706 730 695 750 c 128,-1,49
 684 770 684 770 668 786 c 2,50,-1
 646 816 l 1,51,-1
 544 774 l 2,52,53
 448 734 448 734 322 540 c 1,54,-1
 314 530 l 1,55,-1
 310 522 l 1,56,57
 230 382 230 382 208 258 c 1,58,-1
 190 72 l 1,59,-1
 190 48 l 1,60,-1
 186 20 l 2,61,62
 186 2 186 2 172 2 c 0,63,64
 138 2 138 2 102 26 c 1,65,66
 80 48 80 48 58 90 c 1,67,-1
 54 100 l 1,68,-1
 52 112 l 1,69,-1
 48 132 l 1,70,-1
 48 156 l 1,71,-1
 50 210 l 2,72,73
 50 226 50 226 50 242 c 1,74,75
 56 260 56 260 58 266 c 2,76,-1
 80 356 l 1,77,-1
 104 418 l 1,78,-1
 142 508 l 1,79,-1
 190 594 l 1,80,81
 280 740 280 740 434 854 c 0,82,83
 508 908 508 908 592 938 c 1,84,-1
 672 962 l 1,85,-1
 746 970 l 1,86,-1
 760 970 l 2,87,88
 900 970 900 970 972 950 c 2,89,-1
 1040 930 l 2,90,91
 1072 924 1072 924 1088 910 c 2,92,-1
 1120 882 l 1,93,-1
 1136 862 l 1,94,-1
 1138 856 l 1,0,-1
654 318 m 0,95,96
 622 270 622 270 562 270 c 0,97,98
 512 270 512 270 464 318 c 1,99,-1
 438 368 l 1,100,-1
 432 422 l 1,101,102
 432 466 432 466 462 520 c 0,103,104
 492 568 492 568 562 568 c 0,105,106
 622 568 622 568 654 523 c 128,-1,107
 686 478 686 478 686 422 c 0,108,109
 686 368 686 368 654 318 c 0,95,96
1236 316 m 256,110,111
 1202 270 1202 270 1144 270 c 0,112,113
 1088 270 1088 270 1052 316 c 1,114,115
 1034 348 1034 348 1027 369 c 128,-1,116
 1020 390 1020 390 1020 414 c 0,117,118
 1020 478 1020 478 1053 523 c 128,-1,119
 1086 568 1086 568 1148 568 c 0,120,121
 1206 568 1206 568 1238 530 c 128,-1,122
 1270 492 1270 492 1270 418 c 0,123,124
 1270 362 1270 362 1236 316 c 256,110,111
EndSplineSet
EndChar

StartChar: tm_u
Encoding: 2953 2953 54
Width: 1774
GlyphClass: 2
Flags: W
LayerCount: 2
Fore
SplineSet
1690 128 m 1,0,-1
 1636 86 l 1,1,-1
 1574 56 l 1,2,-1
 1500 26 l 1,3,4
 1386 0 1386 0 1302 0 c 2,5,-1
 386 0 l 2,6,7
 238 0 238 0 162 48 c 1,8,9
 98 94 98 94 98 180 c 0,10,11
 98 262 98 262 166 313 c 128,-1,12
 234 364 234 364 438 364 c 2,13,-1
 458 364 l 1,14,-1
 480 366 l 1,15,16
 544 366 544 366 593 378 c 128,-1,17
 642 390 642 390 714 428 c 0,18,19
 822 486 822 486 822 612 c 0,20,21
 822 730 822 730 728 804 c 1,22,23
 640 880 640 880 518 880 c 2,24,-1
 510 880 l 2,25,26
 448 880 448 880 440 876 c 1,27,-1
 416 876 l 1,28,29
 460 864 460 864 482 836 c 2,30,-1
 498 818 l 1,31,-1
 518 782 l 1,32,-1
 530 742 l 1,33,-1
 536 710 l 1,34,-1
 538 686 l 1,35,-1
 540 662 l 1,36,37
 540 584 540 584 492 531 c 128,-1,38
 444 478 444 478 350 446 c 1,39,-1
 334 442 l 1,40,-1
 318 442 l 1,41,-1
 310 442 l 1,42,-1
 302 442 l 1,43,-1
 270 444 l 1,44,-1
 238 450 l 2,45,46
 178 462 178 462 131 504 c 128,-1,47
 84 546 84 546 64 638 c 2,48,-1
 62 648 l 1,49,-1
 62 660 l 1,50,-1
 60 670 l 1,51,-1
 60 682 l 2,52,53
 60 802 60 802 180 902 c 1,54,55
 246 946 246 946 328 974 c 0,56,57
 416 1000 416 1000 480 1000 c 1,58,-1
 504 1002 l 1,59,-1
 526 1002 l 2,60,61
 710 1002 710 1002 828 900 c 0,62,63
 940 804 940 804 964 642 c 1,64,-1
 964 634 l 1,65,-1
 966 626 l 1,66,-1
 966 616 l 1,67,-1
 966 608 l 2,68,69
 966 426 966 426 804 330 c 1,70,-1
 720 294 l 1,71,-1
 638 264 l 1,72,-1
 550 250 l 1,73,-1
 456 244 l 1,74,-1
 446 244 l 1,75,-1
 438 244 l 1,76,-1
 430 244 l 1,77,-1
 422 244 l 1,78,-1
 364 244 l 1,79,-1
 328 244 l 1,80,-1
 276 234 l 2,81,82
 246 230 246 230 246 180 c 0,83,84
 246 144 246 144 274 138 c 128,-1,85
 302 132 302 132 374 132 c 2,86,-1
 386 132 l 1,87,-1
 1302 132 l 1,88,-1
 1404 138 l 2,89,90
 1424 138 1424 138 1442 146 c 2,91,-1
 1480 160 l 1,92,-1
 1524 182 l 1,93,-1
 1592 224 l 1,94,-1
 1610 236 l 1,95,-1
 1630 250 l 1,96,-1
 1646 262 l 1,97,-1
 1664 274 l 1,98,-1
 1670 276 l 1,99,-1
 1676 278 l 1,100,-1
 1686 276 l 1,101,102
 1704 268 1704 268 1714 252 c 1,103,-1
 1728 210 l 1,104,-1
 1724 184 l 2,105,106
 1724 170 1724 170 1716 160 c 2,107,-1
 1690 128 l 1,0,-1
402 710 m 1,108,-1
 400 720 l 2,109,110
 390 760 390 760 362 793 c 128,-1,111
 334 826 334 826 292 826 c 2,112,-1
 280 826 l 1,113,-1
 272 824 l 2,114,115
 236 818 236 818 219 795 c 128,-1,116
 202 772 202 772 184 722 c 1,117,-1
 182 708 l 1,118,-1
 182 694 l 1,119,-1
 184 682 l 1,120,-1
 184 672 l 1,121,122
 194 624 194 624 225 591 c 128,-1,123
 256 558 256 558 296 558 c 2,124,-1
 306 558 l 1,125,-1
 316 560 l 2,126,127
 348 566 348 566 384 602 c 1,128,-1
 400 636 l 1,129,-1
 406 678 l 1,130,-1
 406 690 l 1,131,-1
 404 702 l 1,132,-1
 402 710 l 1,108,-1
EndSplineSet
EndChar

StartChar: tm_uu
Encoding: 2954 2954 55
Width: 2446
GlyphClass: 2
Flags: W
LayerCount: 2
Fore
SplineSet
2152 130 m 1,0,-1
 2090 84 l 1,1,-1
 1962 26 l 1,2,3
 1848 0 1848 0 1764 0 c 2,4,-1
 400 0 l 2,5,6
 254 0 254 0 178 48 c 1,7,8
 110 98 110 98 110 180 c 0,9,10
 110 260 110 260 178 310 c 1,11,12
 244 364 244 364 452 364 c 2,13,-1
 474 364 l 1,14,-1
 498 366 l 1,15,16
 566 366 566 366 616 380 c 0,17,18
 674 392 674 392 728 430 c 1,19,20
 782 458 782 458 808 501 c 128,-1,21
 834 544 834 544 834 612 c 0,22,23
 834 718 834 718 744 806 c 1,24,25
 706 834 706 834 639 857 c 128,-1,26
 572 880 572 880 532 880 c 2,27,-1
 524 880 l 2,28,29
 462 880 462 880 454 876 c 1,30,-1
 430 876 l 1,31,32
 474 864 474 864 496 836 c 1,33,34
 518 816 518 816 532 782 c 2,35,-1
 544 742 l 1,36,-1
 550 710 l 1,37,-1
 552 686 l 1,38,-1
 554 666 l 1,39,40
 554 596 554 596 506 530 c 1,41,42
 462 480 462 480 364 446 c 1,43,-1
 348 442 l 1,44,-1
 332 442 l 1,45,-1
 324 442 l 1,46,-1
 316 442 l 1,47,-1
 282 444 l 1,48,-1
 250 450 l 2,49,50
 198 462 198 462 150 502 c 128,-1,51
 102 542 102 542 78 638 c 1,52,-1
 76 650 l 1,53,-1
 76 662 l 1,54,-1
 74 672 l 1,55,-1
 74 684 l 2,56,57
 74 808 74 808 194 904 c 1,58,-1
 254 940 l 1,59,-1
 332 974 l 1,60,61
 436 1000 436 1000 494 1000 c 1,62,-1
 518 1002 l 1,63,-1
 540 1002 l 2,64,65
 724 1002 724 1002 837 903 c 128,-1,66
 950 804 950 804 976 642 c 1,67,-1
 976 632 l 1,68,-1
 978 624 l 1,69,-1
 978 616 l 1,70,-1
 978 608 l 2,71,72
 978 420 978 420 822 332 c 1,73,-1
 742 296 l 2,74,75
 698 276 698 276 654 266 c 2,76,-1
 570 250 l 1,77,-1
 480 244 l 1,78,-1
 464 244 l 1,79,-1
 452 244 l 1,80,-1
 444 244 l 1,81,-1
 436 244 l 1,82,-1
 378 244 l 1,83,-1
 342 244 l 1,84,-1
 290 234 l 2,85,86
 260 230 260 230 260 180 c 0,87,88
 260 144 260 144 288 138 c 128,-1,89
 316 132 316 132 388 132 c 2,90,-1
 400 132 l 1,91,-1
 1764 132 l 2,92,93
 1862 132 1862 132 1934 162 c 1,94,-1
 1992 190 l 1,95,-1
 2048 224 l 1,96,-1
 2058 232 l 1,97,-1
 2070 240 l 1,98,-1
 2096 256 l 1,99,-1
 2124 274 l 1,100,-1
 2130 276 l 1,101,-1
 2138 278 l 1,102,-1
 2148 276 l 2,103,104
 2162 272 2162 272 2172 254 c 2,105,-1
 2194 208 l 1,106,-1
 2190 186 l 1,107,-1
 2180 164 l 1,108,-1
 2152 130 l 1,0,-1
416 710 m 1,109,-1
 414 720 l 2,110,111
 404 760 404 760 376 793 c 128,-1,112
 348 826 348 826 306 826 c 2,113,-1
 294 826 l 1,114,-1
 286 824 l 2,115,116
 250 818 250 818 233 795 c 128,-1,117
 216 772 216 772 198 722 c 1,118,-1
 196 708 l 1,119,-1
 196 694 l 1,120,-1
 198 682 l 1,121,-1
 198 672 l 1,122,123
 208 624 208 624 239 591 c 128,-1,124
 270 558 270 558 310 558 c 2,125,-1
 320 558 l 1,126,-1
 330 560 l 2,127,128
 362 566 362 566 398 602 c 1,129,-1
 414 636 l 1,130,-1
 420 678 l 1,131,-1
 420 690 l 1,132,-1
 418 702 l 1,133,-1
 416 710 l 1,109,-1
2400 920 m 1,134,-1
 2400 912 l 1,135,-1
 2398 904 l 1,136,-1
 2396 896 l 1,137,-1
 2388 878 l 1,138,-1
 2366 856 l 1,139,-1
 2330 840 l 1,140,-1
 2318 842 l 1,141,-1
 2296 846 l 1,142,-1
 2278 852 l 1,143,-1
 2196 866 l 1,144,-1
 2160 872 l 1,145,-1
 2158 802 l 2,146,147
 2158 746 2158 746 2140 650 c 2,148,-1
 2138 638 l 1,149,-1
 2136 628 l 1,150,-1
 2130 592 l 2,151,152
 2130 572 2130 572 2120 546 c 2,153,-1
 2108 512 l 1,154,-1
 2092 476 l 1,155,-1
 2058 408 l 1,156,-1
 2044 380 l 1,157,-1
 2026 354 l 1,158,-1
 1990 312 l 1,159,-1
 1958 290 l 1,160,-1
 1948 288 l 1,161,-1
 1938 288 l 1,162,-1
 1930 292 l 2,163,164
 1914 300 1914 300 1900 318 c 1,165,-1
 1882 354 l 1,166,-1
 1882 364 l 1,167,-1
 1884 376 l 1,168,-1
 1890 388 l 1,169,-1
 1912 422 l 1,170,-1
 1930 456 l 1,171,-1
 1946 486 l 1,172,-1
 1960 520 l 1,173,-1
 1984 592 l 1,174,-1
 1986 602 l 1,175,-1
 1990 612 l 1,176,-1
 2012 714 l 1,177,-1
 2018 800 l 1,178,-1
 2016 824 l 1,179,-1
 2016 842 l 1,180,-1
 2014 854 l 1,181,-1
 1946 826 l 2,182,183
 1882 798 1882 798 1784 658 c 0,184,185
 1758 620 1758 620 1736 572 c 2,186,-1
 1692 472 l 1,187,-1
 1664 400 l 1,188,-1
 1634 326 l 1,189,-1
 1630 318 l 1,190,-1
 1628 312 l 1,191,-1
 1616 298 l 1,192,-1
 1600 296 l 2,193,194
 1586 296 1586 296 1560 316 c 1,195,-1
 1532 366 l 1,196,-1
 1528 376 l 1,197,-1
 1526 386 l 1,198,-1
 1526 396 l 2,199,200
 1526 428 1526 428 1540 468 c 2,201,-1
 1578 558 l 1,202,-1
 1594 592 l 1,203,-1
 1610 626 l 1,204,-1
 1652 698 l 1,205,-1
 1684 748 l 1,206,207
 1678 790 1678 790 1628 822 c 1,208,-1
 1582 846 l 1,209,-1
 1526 868 l 1,210,-1
 1498 872 l 1,211,-1
 1474 874 l 1,212,-1
 1460 874 l 1,213,-1
 1452 874 l 2,214,215
 1412 874 1412 874 1378 860 c 2,216,-1
 1308 824 l 1,217,218
 1290 810 1290 810 1265 786 c 128,-1,219
 1240 762 1240 762 1220 736 c 1,220,-1
 1200 696 l 1,221,-1
 1192 660 l 1,222,223
 1202 676 1202 676 1218 684 c 2,224,-1
 1254 700 l 1,225,226
 1274 700 1274 700 1278 704 c 2,227,-1
 1300 706 l 1,228,229
 1362 706 1362 706 1411 645 c 128,-1,230
 1460 584 1460 584 1460 512 c 2,231,-1
 1460 504 l 2,232,233
 1460 422 1460 422 1400 356 c 0,234,235
 1370 326 1370 326 1334 308 c 1,236,237
 1296 294 1296 294 1258 294 c 0,238,239
 1190 294 1190 294 1134 350 c 1,240,-1
 1102 402 l 1,241,-1
 1072 476 l 1,242,-1
 1066 508 l 1,243,244
 1066 534 1066 534 1062 540 c 1,245,-1
 1062 548 l 1,246,-1
 1062 558 l 1,247,-1
 1060 566 l 1,248,-1
 1060 574 l 2,249,250
 1060 738 1060 738 1180 863 c 128,-1,251
 1300 988 1300 988 1478 988 c 0,252,253
 1552 988 1552 988 1636 958 c 0,254,255
 1700 934 1700 934 1766 848 c 1,256,257
 1792 874 1792 874 1870 924 c 1,258,-1
 1922 948 l 1,259,-1
 1986 970 l 1,260,-1
 2058 984 l 1,261,-1
 2128 988 l 1,262,263
 2240 988 2240 988 2308 968 c 1,264,265
 2390 950 2390 950 2398 926 c 2,266,-1
 2400 920 l 1,134,-1
1322 568 m 0,267,268
 1304 592 1304 592 1282 598 c 1,269,-1
 1274 598 l 1,270,-1
 1268 600 l 1,271,272
 1246 600 1246 600 1206 570 c 1,273,274
 1180 538 1180 538 1180 504 c 2,275,-1
 1180 486 l 1,276,-1
 1184 470 l 2,277,278
 1190 446 1190 446 1208 422 c 1,279,280
 1224 408 1224 408 1258 402 c 0,281,282
 1280 402 1280 402 1311 427 c 128,-1,283
 1342 452 1342 452 1342 500 c 0,284,285
 1342 542 1342 542 1322 568 c 0,267,268
EndSplineSet
EndChar

StartChar: tm_e
Encoding: 2958 2958 56
Width: 1528
GlyphClass: 2
Flags: W
LayerCount: 2
Fore
SplineSet
1492 748 m 2,0,1
 1492 730 1492 730 1475 718 c 128,-1,2
 1458 706 1458 706 1436 700 c 2,3,-1
 1398 690 l 1,4,-1
 1380 688 l 1,5,6
 1334 724 1334 724 1248 762 c 1,7,-1
 1190 784 l 1,8,-1
 1190 776 l 1,9,-1
 1194 758 l 1,10,-1
 1194 724 l 1,11,-1
 1196 682 l 1,12,-1
 1194 614 l 1,13,-1
 1194 578 l 1,14,-1
 1186 536 l 1,15,16
 1174 400 1174 400 1154 332 c 1,17,-1
 1118 166 l 1,18,-1
 1098 102 l 2,19,20
 1092 70 1092 70 1078 48 c 1,21,22
 1060 6 1060 6 1046 6 c 0,23,24
 1016 6 1016 6 986 38 c 1,25,-1
 970 68 l 1,26,-1
 952 110 l 1,27,-1
 964 174 l 1,28,-1
 1004 324 l 1,29,-1
 1022 434 l 1,30,-1
 1040 578 l 1,31,-1
 1042 628 l 1,32,-1
 1044 690 l 1,33,-1
 1044 714 l 1,34,-1
 1044 738 l 1,35,-1
 1044 802 l 1,36,-1
 1044 828 l 1,37,-1
 1016 830 l 1,38,-1
 950 840 l 1,39,-1
 914 842 l 1,40,-1
 880 846 l 1,41,-1
 828 848 l 1,42,-1
 782 850 l 1,43,44
 604 850 604 850 484 784 c 0,45,46
 422 748 422 748 375 711 c 128,-1,47
 328 674 328 674 288 622 c 2,48,-1
 264 592 l 1,49,-1
 242 554 l 1,50,-1
 218 486 l 1,51,-1
 222 502 l 1,52,-1
 246 538 l 2,53,54
 256 548 256 548 298 568 c 0,55,56
 348 588 348 588 400 588 c 0,57,58
 488 588 488 588 556 501 c 128,-1,59
 624 414 624 414 624 300 c 1,60,-1
 622 262 l 2,61,62
 622 242 622 242 614 226 c 1,63,64
 596 146 596 146 530 72 c 128,-1,65
 464 -2 464 -2 358 -2 c 2,66,-1
 344 -2 l 2,67,68
 216 -2 216 -2 138 108 c 1,69,-1
 84 228 l 1,70,71
 66 294 66 294 66 366 c 2,72,-1
 66 374 l 2,73,74
 66 602 66 602 270 788 c 128,-1,75
 474 974 474 974 782 974 c 0,76,77
 1008 974 1008 974 1148 936 c 2,78,-1
 1276 898 l 2,79,80
 1338 880 1338 880 1378 854 c 1,81,82
 1418 836 1418 836 1460 798 c 0,83,84
 1474 788 1474 788 1492 756 c 1,85,-1
 1492 748 l 2,0,1
488 320 m 1,86,-1
 488 336 l 1,87,88
 482 386 482 386 448 428 c 0,89,90
 418 470 418 470 366 470 c 0,91,92
 318 470 318 470 277 428 c 128,-1,93
 236 386 236 386 218 320 c 2,94,-1
 214 304 l 1,95,-1
 214 288 l 1,96,-1
 214 278 l 1,97,-1
 216 268 l 1,98,99
 216 228 216 228 252 170 c 1,100,101
 290 120 290 120 344 120 c 0,102,103
 414 120 414 120 452 178 c 1,104,105
 490 250 490 250 490 304 c 1,106,-1
 488 320 l 1,86,-1
EndSplineSet
EndChar

StartChar: tm_ee
Encoding: 2959 2959 57
Width: 1522
GlyphClass: 2
Flags: W
LayerCount: 2
Fore
SplineSet
1468 718 m 1,0,-1
 1430 700 l 1,1,-1
 1390 690 l 1,2,-1
 1372 688 l 1,3,-1
 1366 692 l 2,4,5
 1346 706 1346 706 1336 712 c 0,6,7
 1320 724 1320 724 1302 732 c 2,8,-1
 1236 766 l 1,9,-1
 1178 792 l 1,10,-1
 1178 784 l 1,11,-1
 1180 766 l 1,12,-1
 1180 736 l 1,13,-1
 1180 696 l 1,14,-1
 1178 622 l 1,15,-1
 1178 592 l 1,16,-1
 1178 566 l 1,17,-1
 1174 536 l 1,18,-1
 1174 450 l 1,19,-1
 1166 406 l 1,20,-1
 1142 270 l 2,21,22
 1124 186 1124 186 1092 122 c 2,23,-1
 1068 70 l 1,24,-1
 1038 18 l 1,25,-1
 1030 6 l 1,26,-1
 1024 -2 l 1,27,28
 1008 -32 1008 -32 940 -100 c 0,29,30
 920 -124 920 -124 885 -153 c 128,-1,31
 850 -182 850 -182 836 -192 c 0,32,33
 750 -260 750 -260 678 -300 c 2,34,-1
 606 -344 l 1,35,-1
 592 -352 l 1,36,-1
 576 -358 l 1,37,-1
 560 -362 l 1,38,-1
 546 -364 l 1,39,-1
 532 -358 l 1,40,-1
 514 -346 l 1,41,-1
 504 -308 l 1,42,-1
 504 -294 l 1,43,-1
 508 -282 l 1,44,-1
 520 -250 l 1,45,-1
 542 -226 l 1,46,-1
 614 -186 l 2,47,48
 632 -176 632 -176 651 -164 c 128,-1,49
 670 -152 670 -152 693 -135 c 128,-1,50
 716 -118 716 -118 728 -108 c 0,51,52
 752 -90 752 -90 774 -68 c 2,53,-1
 850 6 l 1,54,-1
 920 98 l 1,55,-1
 930 112 l 1,56,-1
 940 128 l 2,57,58
 964 168 964 168 988 242 c 1,59,-1
 1004 310 l 1,60,-1
 1024 420 l 1,61,62
 1032 492 1032 492 1033 522 c 128,-1,63
 1034 552 1034 552 1034 570 c 2,64,-1
 1036 618 l 1,65,-1
 1036 680 l 1,66,-1
 1036 690 l 1,67,-1
 1036 740 l 1,68,-1
 1036 784 l 1,69,-1
 1034 818 l 1,70,-1
 1034 832 l 1,71,-1
 1010 834 l 1,72,-1
 948 844 l 1,73,74
 916 844 916 844 910 848 c 2,75,-1
 868 850 l 1,76,-1
 828 852 l 1,77,-1
 790 854 l 1,78,-1
 780 854 l 1,79,-1
 770 854 l 2,80,81
 680 854 680 854 608 834 c 2,82,-1
 574 826 l 2,83,84
 562 826 562 826 536 812 c 2,85,-1
 468 776 l 2,86,87
 344 710 344 710 272 622 c 0,88,89
 240 588 240 588 224 554 c 1,90,-1
 202 490 l 1,91,-1
 210 506 l 2,92,93
 214 520 214 520 231 536 c 128,-1,94
 248 552 248 552 292 580 c 1,95,96
 338 600 338 600 388 600 c 2,97,-1
 396 600 l 2,98,99
 490 600 490 600 560 512 c 0,100,101
 588 476 588 476 608 420 c 128,-1,102
 628 364 628 364 628 300 c 2,103,-1
 626 266 l 1,104,-1
 620 234 l 2,105,106
 602 158 602 158 531 78 c 128,-1,107
 460 -2 460 -2 346 -2 c 0,108,109
 206 -2 206 -2 132 94 c 128,-1,110
 58 190 58 190 58 366 c 0,111,112
 58 600 58 600 268 787 c 128,-1,113
 478 974 478 974 782 974 c 0,114,115
 1000 974 1000 974 1146 936 c 1,116,-1
 1272 898 l 2,117,118
 1332 876 1332 876 1334 876 c 0,119,120
 1360 860 1360 860 1372 854 c 0,121,122
 1420 830 1420 830 1452 798 c 0,123,124
 1466 788 1466 788 1484 756 c 1,125,126
 1484 732 1484 732 1468 718 c 1,0,-1
492 322 m 1,127,-1
 490 334 l 2,128,129
 484 388 484 388 449 436 c 128,-1,130
 414 484 414 484 354 484 c 0,131,132
 298 484 298 484 252 430 c 0,133,134
 228 398 228 398 206 312 c 1,135,-1
 204 302 l 1,136,-1
 204 292 l 2,137,138
 204 224 204 224 239 172 c 128,-1,139
 274 120 274 120 340 120 c 0,140,141
 416 120 416 120 456 180 c 0,142,143
 492 240 492 240 492 310 c 2,144,-1
 492 322 l 1,127,-1
EndSplineSet
EndChar

StartChar: tm_ai
Encoding: 2960 2960 58
Width: 1692
GlyphClass: 2
Flags: W
LayerCount: 2
Fore
SplineSet
1488 282 m 1,0,-1
 1426 240 l 1,1,-1
 1350 200 l 1,2,3
 1278 170 1278 170 1182 152 c 1,4,-1
 1128 146 l 1,5,-1
 1076 144 l 1,6,-1
 528 144 l 2,7,8
 402 144 402 144 319 91 c 128,-1,9
 236 38 236 38 200 -82 c 1,10,-1
 194 -118 l 1,11,-1
 192 -152 l 2,12,13
 192 -220 192 -220 241 -289 c 128,-1,14
 290 -358 290 -358 386 -358 c 0,15,16
 498 -358 498 -358 584 -295 c 128,-1,17
 670 -232 670 -232 710 -154 c 1,18,-1
 718 -136 l 1,19,-1
 724 -120 l 1,20,-1
 730 -100 l 1,21,-1
 744 -54 l 1,22,-1
 748 -44 l 1,23,-1
 752 -34 l 1,24,-1
 760 -10 l 1,25,-1
 770 4 l 1,26,-1
 786 18 l 1,27,-1
 812 22 l 1,28,-1
 824 20 l 1,29,-1
 836 16 l 1,30,-1
 864 -4 l 1,31,-1
 886 -42 l 1,32,-1
 886 -50 l 1,33,-1
 884 -64 l 1,34,-1
 882 -82 l 1,35,-1
 878 -92 l 1,36,-1
 876 -102 l 1,37,-1
 868 -122 l 1,38,-1
 866 -132 l 2,39,40
 866 -146 866 -146 862 -154 c 1,41,-1
 862 -176 l 2,42,43
 862 -254 862 -254 922 -309 c 128,-1,44
 982 -364 982 -364 1056 -364 c 1,45,-1
 1092 -362 l 1,46,-1
 1128 -356 l 2,47,48
 1182 -344 1182 -344 1230 -296 c 1,49,50
 1268 -264 1268 -264 1300 -154 c 1,51,-1
 1304 -112 l 1,52,-1
 1306 -78 l 1,53,-1
 1306 -58 l 2,54,55
 1306 -44 1306 -44 1310 -40 c 2,56,-1
 1312 -20 l 1,57,-1
 1320 0 l 1,58,-1
 1332 14 l 1,59,-1
 1352 20 l 1,60,-1
 1364 18 l 1,61,-1
 1378 14 l 2,62,63
 1400 8 1400 8 1416 -8 c 1,64,-1
 1438 -44 l 1,65,-1
 1440 -54 l 1,66,-1
 1442 -68 l 1,67,-1
 1440 -90 l 1,68,-1
 1438 -118 l 1,69,-1
 1434 -138 l 1,70,-1
 1434 -164 l 2,71,72
 1434 -226 1434 -226 1406 -280 c 1,73,74
 1382 -342 1382 -342 1324 -388 c 1,75,76
 1216 -486 1216 -486 1068 -486 c 2,77,-1
 1060 -486 l 1,78,-1
 1052 -486 l 1,79,-1
 1042 -484 l 1,80,-1
 1034 -484 l 1,81,-1
 980 -482 l 2,82,83
 964 -482 964 -482 936 -468 c 1,84,85
 908 -460 908 -460 886 -448 c 1,86,-1
 858 -424 l 1,87,88
 812 -390 812 -390 778 -316 c 1,89,-1
 772 -288 l 1,90,-1
 770 -260 l 1,91,-1
 766 -266 l 1,92,-1
 762 -278 l 2,93,94
 746 -314 746 -314 714 -348 c 128,-1,95
 682 -382 682 -382 628 -416 c 0,96,97
 520 -484 520 -484 380 -484 c 2,98,-1
 370 -484 l 2,99,100
 240 -484 240 -484 151 -380 c 128,-1,101
 62 -276 62 -276 62 -148 c 1,102,-1
 64 -114 l 2,103,104
 64 -82 64 -82 68 -78 c 0,105,106
 98 90 98 90 236 190 c 1,107,108
 282 218 282 218 369 247 c 128,-1,109
 456 276 456 276 540 276 c 2,110,-1
 1076 276 l 2,111,112
 1250 276 1250 276 1364 358 c 0,113,114
 1422 398 1422 398 1456 459 c 128,-1,115
 1490 520 1490 520 1490 596 c 2,116,-1
 1490 610 l 2,117,118
 1490 704 1490 704 1428 773 c 128,-1,119
 1366 842 1366 842 1278 842 c 1,120,-1
 1244 840 l 2,121,122
 1226 840 1226 840 1210 832 c 0,123,124
 1130 808 1130 808 1055 723 c 128,-1,125
 980 638 980 638 956 486 c 1,126,-1
 954 478 l 1,127,-1
 952 464 l 1,128,-1
 940 404 l 2,129,130
 934 380 934 380 904 380 c 2,131,-1
 884 382 l 1,132,-1
 860 388 l 2,133,134
 840 394 840 394 824 414 c 128,-1,135
 808 434 808 434 808 468 c 0,136,137
 808 516 808 516 820 569 c 128,-1,138
 832 622 832 622 856 680 c 1,139,-1
 852 686 l 1,140,141
 820 744 820 744 757 795 c 128,-1,142
 694 846 694 846 606 846 c 1,143,-1
 514 840 l 2,144,145
 470 834 470 834 442 808 c 1,146,147
 522 808 522 808 562 762 c 0,148,149
 598 726 598 726 620 658 c 1,150,-1
 624 628 l 1,151,-1
 626 598 l 1,152,153
 626 500 626 500 560 442 c 0,154,155
 514 402 514 402 424 378 c 1,156,-1
 408 376 l 1,157,-1
 394 376 l 2,158,159
 290 376 290 376 244 422 c 1,160,161
 210 462 210 462 182 532 c 1,162,-1
 174 570 l 1,163,-1
 172 608 l 1,164,165
 172 762 172 762 294 860 c 0,166,167
 322 886 322 886 352 900 c 2,168,-1
 422 942 l 1,169,170
 490 970 490 970 562 970 c 2,171,-1
 576 970 l 1,172,-1
 590 970 l 1,173,-1
 598 970 l 1,174,-1
 606 970 l 2,175,176
 716 970 716 970 794 924 c 1,177,178
 878 882 878 882 932 800 c 1,179,180
 994 868 994 868 1078 920 c 1,181,182
 1118 940 1118 940 1172 956 c 1,183,-1
 1228 966 l 1,184,-1
 1286 970 l 1,185,186
 1434 970 1434 970 1536 862 c 0,187,188
 1576 820 1576 820 1602 748 c 1,189,-1
 1618 690 l 2,190,191
 1628 646 1628 646 1628 600 c 0,192,193
 1628 392 1628 392 1488 282 c 1,0,-1
470 682 m 0,194,195
 444 724 444 724 400 724 c 1,196,-1
 388 722 l 1,197,-1
 376 720 l 2,198,199
 350 712 350 712 320 678 c 1,200,201
 296 644 296 644 296 604 c 0,202,203
 296 592 296 592 299 577 c 128,-1,204
 302 562 302 562 320 528 c 0,205,206
 334 508 334 508 372 488 c 1,207,-1
 382 484 l 1,208,-1
 394 484 l 1,209,-1
 410 486 l 1,210,-1
 430 492 l 1,211,-1
 476 528 l 1,212,213
 498 554 498 554 498 592 c 0,214,215
 498 642 498 642 470 682 c 0,194,195
EndSplineSet
EndChar

StartChar: tm_o
Encoding: 2962 2962 59
Width: 1616
GlyphClass: 2
Flags: W
LayerCount: 2
Fore
SplineSet
1450 114 m 0,0,1
 1364 0 1364 0 1194 0 c 0,2,3
 1094 0 1094 0 1021 72 c 128,-1,4
 948 144 948 144 948 238 c 2,5,-1
 948 256 l 2,6,7
 948 270 948 270 952 274 c 2,8,-1
 916 226 l 1,9,-1
 896 168 l 1,10,-1
 890 140 l 1,11,-1
 888 114 l 1,12,-1
 888 106 l 2,13,14
 888 16 888 16 952 -44 c 128,-1,15
 1016 -104 1016 -104 1100 -104 c 2,16,-1
 1316 -106 l 2,17,18
 1352 -106 1352 -106 1360 -120 c 1,19,-1
 1366 -164 l 1,20,-1
 1364 -172 l 1,21,-1
 1364 -180 l 1,22,23
 1358 -200 1358 -200 1336 -216 c 1,24,25
 1316 -236 1316 -236 1282 -236 c 2,26,-1
 1028 -238 l 1,27,28
 974 -368 974 -368 848 -424 c 0,29,30
 780 -452 780 -452 718 -466 c 1,31,-1
 654 -476 l 1,32,-1
 582 -480 l 1,33,34
 414 -480 414 -480 305 -422 c 128,-1,35
 196 -364 196 -364 196 -244 c 0,36,37
 196 -174 196 -174 238 -132 c 0,38,39
 276 -98 276 -98 328 -86 c 1,40,-1
 338 -86 l 1,41,-1
 348 -86 l 2,42,43
 374 -86 374 -86 386 -96 c 2,44,-1
 406 -120 l 1,45,-1
 410 -130 l 1,46,-1
 412 -140 l 1,47,-1
 410 -148 l 1,48,-1
 404 -154 l 1,49,50
 368 -166 368 -166 346 -188 c 0,51,52
 342 -192 342 -192 324 -256 c 1,53,54
 324 -296 324 -296 388 -330 c 0,55,56
 422 -346 422 -346 462 -354 c 1,57,-1
 566 -362 l 1,58,-1
 666 -356 l 2,59,60
 716 -350 716 -350 742 -334 c 2,61,-1
 794 -308 l 1,62,-1
 848 -272 l 1,63,-1
 900 -208 l 1,64,-1
 914 -180 l 1,65,-1
 890 -164 l 2,66,67
 866 -152 866 -152 839 -120 c 128,-1,68
 812 -88 812 -88 780 -26 c 1,69,-1
 764 30 l 1,70,-1
 758 102 l 1,71,72
 758 208 758 208 806 294 c 128,-1,73
 854 380 854 380 920 422 c 1,74,-1
 966 446 l 1,75,-1
 1010 454 l 2,76,77
 1028 454 1028 454 1050 435 c 128,-1,78
 1072 416 1072 416 1072 368 c 2,79,-1
 1072 350 l 1,80,-1
 1070 330 l 1,81,-1
 1068 310 l 1,82,-1
 1068 292 l 2,83,84
 1068 242 1068 242 1077 218 c 128,-1,85
 1086 194 1086 194 1108 168 c 1,86,87
 1134 146 1134 146 1200 128 c 1,88,-1
 1222 128 l 1,89,-1
 1238 132 l 2,90,91
 1266 138 1266 138 1291 155 c 128,-1,92
 1316 172 1316 172 1348 204 c 1,93,94
 1396 264 1396 264 1396 366 c 0,95,96
 1396 560 1396 560 1252 686 c 1,97,98
 1178 744 1178 744 1104 780 c 128,-1,99
 1030 816 1030 816 928 838 c 1,100,-1
 872 844 l 1,101,-1
 820 846 l 1,102,-1
 742 840 l 1,103,-1
 704 838 l 2,104,105
 690 838 690 838 660 824 c 1,106,107
 550 796 550 796 440 722 c 0,108,109
 342 654 342 654 270 528 c 1,110,-1
 322 556 l 1,111,-1
 366 568 l 1,112,-1
 378 568 l 1,113,-1
 392 568 l 1,114,-1
 408 568 l 1,115,-1
 428 568 l 1,116,-1
 462 562 l 1,117,-1
 498 550 l 1,118,119
 546 526 546 526 588 464 c 128,-1,120
 630 402 630 402 630 302 c 0,121,122
 630 198 630 198 553 99 c 128,-1,123
 476 0 476 0 342 0 c 0,124,125
 254 0 254 0 160 78 c 1,126,127
 124 118 124 118 100 174 c 1,128,129
 80 240 80 240 80 310 c 0,130,131
 80 580 80 580 306 773 c 128,-1,132
 532 966 532 966 844 966 c 2,133,-1
 864 966 l 1,134,-1
 884 966 l 2,135,136
 1008 966 1008 966 1114 920 c 1,137,138
 1232 880 1232 880 1328 798 c 1,139,140
 1432 718 1432 718 1484 616 c 128,-1,141
 1536 514 1536 514 1536 386 c 0,142,143
 1536 230 1536 230 1450 114 c 0,0,1
468 402 m 0,144,145
 454 432 454 432 384 454 c 1,146,-1
 370 454 l 2,147,148
 320 454 320 454 272 412 c 0,149,150
 230 370 230 370 212 292 c 1,151,-1
 212 282 l 1,152,-1
 210 276 l 1,153,154
 210 218 210 218 240 176 c 1,155,156
 268 144 268 144 334 124 c 1,157,-1
 342 124 l 2,158,159
 390 124 390 124 444 172 c 128,-1,160
 498 220 498 220 498 292 c 0,161,162
 498 342 498 342 468 402 c 0,144,145
EndSplineSet
EndChar

StartChar: tm_oo
Encoding: 2963 2963 60
Width: 1606
GlyphClass: 2
Flags: W
LayerCount: 2
Fore
SplineSet
1442 114 m 0,0,1
 1356 0 1356 0 1186 0 c 0,2,3
 1086 0 1086 0 1013 72 c 128,-1,4
 940 144 940 144 940 238 c 2,5,-1
 940 256 l 2,6,7
 940 270 940 270 944 274 c 2,8,-1
 908 226 l 1,9,-1
 888 168 l 1,10,-1
 882 140 l 1,11,-1
 880 114 l 1,12,-1
 880 106 l 2,13,14
 880 18 880 18 942 -44 c 1,15,16
 1008 -104 1008 -104 1092 -104 c 2,17,-1
 1308 -106 l 2,18,19
 1344 -106 1344 -106 1352 -120 c 1,20,-1
 1360 -164 l 1,21,-1
 1358 -172 l 1,22,-1
 1358 -180 l 1,23,-1
 1332 -212 l 2,24,25
 1314 -230 1314 -230 1274 -236 c 1,26,-1
 1020 -238 l 1,27,-1
 1002 -262 l 1,28,-1
 980 -290 l 1,29,-1
 900 -362 l 1,30,31
 856 -396 856 -396 804 -422 c 0,32,33
 736 -456 736 -456 652 -478 c 0,34,35
 570 -496 570 -496 518 -496 c 0,36,37
 398 -496 398 -496 310 -431 c 128,-1,38
 222 -366 222 -366 222 -270 c 0,39,40
 222 -180 222 -180 274 -122 c 0,41,42
 294 -100 294 -100 332 -76 c 1,43,-1
 404 -62 l 1,44,-1
 412 -62 l 2,45,46
 468 -62 468 -62 502 -90 c 0,47,48
 536 -114 536 -114 560 -154 c 2,49,-1
 572 -176 l 1,50,-1
 578 -198 l 1,51,-1
 584 -228 l 1,52,-1
 586 -256 l 1,53,-1
 580 -302 l 1,54,-1
 568 -336 l 1,55,-1
 554 -354 l 1,56,-1
 548 -362 l 1,57,-1
 624 -354 l 2,58,59
 678 -348 678 -348 746 -310 c 1,60,-1
 758 -302 l 1,61,-1
 772 -296 l 1,62,-1
 846 -242 l 2,63,64
 876 -216 876 -216 902 -180 c 1,65,-1
 878 -164 l 2,66,67
 868 -158 868 -158 828 -116 c 1,68,-1
 808 -86 l 1,69,-1
 778 -30 l 1,70,71
 750 32 750 32 750 102 c 0,72,73
 750 208 750 208 798 294 c 128,-1,74
 846 380 846 380 912 422 c 1,75,-1
 958 446 l 1,76,-1
 1002 454 l 2,77,78
 1020 454 1020 454 1042 435 c 128,-1,79
 1064 416 1064 416 1064 368 c 2,80,-1
 1064 350 l 1,81,-1
 1062 330 l 1,82,-1
 1060 310 l 1,83,-1
 1060 292 l 2,84,85
 1060 242 1060 242 1069 218 c 128,-1,86
 1078 194 1078 194 1100 168 c 1,87,88
 1126 146 1126 146 1192 128 c 1,89,-1
 1214 128 l 1,90,-1
 1230 132 l 2,91,92
 1258 138 1258 138 1283 155 c 128,-1,93
 1308 172 1308 172 1340 204 c 1,94,95
 1388 264 1388 264 1388 366 c 0,96,97
 1388 560 1388 560 1244 686 c 0,98,99
 1172 744 1172 744 1096 780 c 128,-1,100
 1020 816 1020 816 920 838 c 1,101,-1
 864 844 l 1,102,-1
 812 846 l 1,103,-1
 734 840 l 1,104,-1
 696 838 l 2,105,106
 682 838 682 838 652 824 c 1,107,108
 542 796 542 796 432 722 c 0,109,110
 334 654 334 654 262 528 c 1,111,-1
 314 556 l 1,112,-1
 358 568 l 1,113,-1
 370 568 l 1,114,-1
 384 568 l 1,115,-1
 400 568 l 1,116,-1
 420 568 l 2,117,118
 446 568 446 568 452 564 c 2,119,-1
 486 552 l 1,120,121
 530 528 530 528 578 466 c 0,122,123
 622 404 622 404 622 302 c 0,124,125
 622 198 622 198 545 99 c 128,-1,126
 468 0 468 0 334 0 c 0,127,128
 246 0 246 0 152 78 c 1,129,130
 120 114 120 114 92 174 c 1,131,132
 84 204 84 204 78 241 c 128,-1,133
 72 278 72 278 72 310 c 0,134,135
 72 578 72 578 299 772 c 128,-1,136
 526 966 526 966 836 966 c 2,137,-1
 856 966 l 1,138,-1
 876 966 l 2,139,140
 1000 966 1000 966 1106 920 c 1,141,142
 1224 880 1224 880 1320 798 c 1,143,144
 1424 718 1424 718 1476 616 c 128,-1,145
 1528 514 1528 514 1528 386 c 0,146,147
 1528 230 1528 230 1442 114 c 0,0,1
472 -250 m 1,148,-1
 472 -242 l 1,149,150
 466 -218 466 -218 448 -190 c 1,151,152
 430 -172 430 -172 396 -160 c 1,153,-1
 388 -160 l 1,154,-1
 380 -164 l 2,155,156
 372 -168 372 -168 365 -174 c 128,-1,157
 358 -180 358 -180 340 -200 c 1,158,159
 324 -228 324 -228 324 -262 c 2,160,-1
 324 -274 l 2,161,162
 324 -294 324 -294 347 -324 c 128,-1,163
 370 -354 370 -354 404 -362 c 1,164,165
 440 -362 440 -362 457 -334 c 128,-1,166
 474 -306 474 -306 474 -266 c 1,167,-1
 472 -250 l 1,148,-1
460 402 m 0,168,169
 446 432 446 432 376 454 c 1,170,-1
 364 454 l 2,171,172
 312 454 312 454 269 412 c 128,-1,173
 226 370 226 370 204 292 c 1,174,-1
 204 282 l 1,175,-1
 202 276 l 1,176,177
 202 218 202 218 232 176 c 1,178,179
 260 144 260 144 326 124 c 1,180,-1
 334 124 l 2,181,182
 382 124 382 124 436 172 c 128,-1,183
 490 220 490 220 490 292 c 0,184,185
 490 342 490 342 460 402 c 0,168,169
EndSplineSet
EndChar

StartChar: tm_au
Encoding: 2964 2964 61
Width: 3294
GlyphClass: 2
Flags: W
LayerCount: 2
Fore
SplineSet
3237 854 m 2,0,1
 3237 838 3237 838 3215 822 c 1,2,-1
 3165 802 l 1,3,-1
 3155 802 l 1,4,-1
 3145 804 l 1,5,-1
 3133 806 l 1,6,-1
 3065 826 l 1,7,-1
 3035 836 l 1,8,-1
 3025 836 l 1,9,-1
 3015 838 l 1,10,-1
 2993 838 l 1,11,-1
 2957 842 l 1,12,-1
 2923 840 l 1,13,-1
 2889 836 l 1,14,-1
 2851 830 l 1,15,-1
 2823 822 l 1,16,17
 2865 782 2865 782 2902 667 c 128,-1,18
 2939 552 2939 552 2939 450 c 2,19,-1
 2939 440 l 1,20,-1
 2939 432 l 1,21,-1
 2939 424 l 1,22,-1
 2939 416 l 1,23,-1
 2939 408 l 1,24,-1
 2935 362 l 2,25,26
 2935 336 2935 336 2927 314 c 1,27,28
 2915 232 2915 232 2891 167 c 128,-1,29
 2867 102 2867 102 2839 56 c 1,30,-1
 2805 12 l 1,31,-1
 2775 -4 l 1,32,-1
 2763 -2 l 1,33,-1
 2753 0 l 1,34,-1
 2721 24 l 1,35,36
 2709 42 2709 42 2703 78 c 1,37,-1
 2705 90 l 1,38,-1
 2717 116 l 1,39,-1
 2749 188 l 1,40,-1
 2781 286 l 1,41,-1
 2793 348 l 1,42,-1
 2797 416 l 1,43,-1
 2795 500 l 2,44,45
 2795 532 2795 532 2781 562 c 1,46,-1
 2751 666 l 1,47,-1
 2737 700 l 2,48,49
 2731 718 2731 718 2717 732 c 1,50,-1
 2703 754 l 1,51,-1
 2649 712 l 1,52,-1
 2595 658 l 1,53,-1
 2533 584 l 1,54,-1
 2513 554 l 1,55,-1
 2493 524 l 1,56,-1
 2459 462 l 1,57,-1
 2429 398 l 1,58,-1
 2399 322 l 1,59,-1
 2381 258 l 1,60,-1
 2369 198 l 1,61,-1
 2365 154 l 1,62,-1
 2365 108 l 2,63,64
 2365 76 2365 76 2369 72 c 2,65,-1
 2371 46 l 1,66,-1
 2373 30 l 2,67,68
 2373 16 2373 16 2369 12 c 2,69,-1
 2351 4 l 1,70,-1
 2343 2 l 1,71,-1
 2337 0 l 1,72,-1
 2329 0 l 1,73,-1
 2313 2 l 1,74,-1
 2297 6 l 1,75,76
 2273 18 2273 18 2254 37 c 128,-1,77
 2235 56 2235 56 2223 106 c 1,78,-1
 2221 124 l 1,79,-1
 2221 144 l 1,80,-1
 2223 210 l 1,81,-1
 2229 254 l 1,82,-1
 2239 292 l 2,83,84
 2251 350 2251 350 2287 424 c 2,85,-1
 2327 510 l 1,86,-1
 2379 594 l 1,87,88
 2379 614 2379 614 2365 644 c 2,89,-1
 2351 674 l 1,90,-1
 2331 712 l 1,91,92
 2301 760 2301 760 2239 804 c 128,-1,93
 2177 848 2177 848 2091 848 c 0,94,95
 1977 848 1977 848 1875 770 c 128,-1,96
 1773 692 1773 692 1725 528 c 1,97,-1
 1737 540 l 1,98,-1
 1751 552 l 1,99,-1
 1795 580 l 2,100,101
 1819 592 1819 592 1859 592 c 2,102,-1
 1875 592 l 1,103,-1
 1895 590 l 1,104,-1
 1907 588 l 2,105,106
 1973 576 1973 576 2035 496 c 0,107,108
 2095 424 2095 424 2095 306 c 0,109,110
 2095 180 2095 180 2019 88 c 128,-1,111
 1943 -4 1943 -4 1811 -4 c 0,112,113
 1723 -4 1723 -4 1645 92 c 1,114,115
 1575 188 1575 188 1575 364 c 2,116,-1
 1575 404 l 2,117,118
 1575 434 1575 434 1579 442 c 2,119,-1
 1585 484 l 1,120,-1
 1595 518 l 1,121,122
 1637 682 1637 682 1764 823 c 128,-1,123
 1891 964 1891 964 2099 964 c 0,124,125
 2213 964 2213 964 2273 924 c 1,126,127
 2307 908 2307 908 2332 890 c 128,-1,128
 2357 872 2357 872 2389 840 c 0,129,130
 2429 794 2429 794 2451 752 c 2,131,-1
 2471 714 l 1,132,133
 2517 770 2517 770 2568 814 c 128,-1,134
 2619 858 2619 858 2683 894 c 0,135,136
 2815 966 2815 966 2947 966 c 0,137,138
 3087 966 3087 966 3158 935 c 128,-1,139
 3229 904 3229 904 3237 862 c 1,140,-1
 3237 854 l 2,0,1
1971 308 m 1,141,-1
 1971 318 l 2,142,143
 1971 370 1971 370 1937 422 c 0,144,145
 1909 470 1909 470 1861 476 c 1,146,-1
 1849 476 l 1,147,-1
 1823 472 l 2,148,149
 1809 472 1809 472 1799 464 c 0,150,151
 1775 454 1775 454 1735 408 c 0,152,153
 1723 392 1723 392 1701 314 c 1,154,-1
 1701 306 l 1,155,-1
 1699 292 l 1,156,157
 1699 232 1699 232 1723 184 c 1,158,159
 1747 150 1747 150 1781 126 c 1,160,-1
 1795 122 l 1,161,-1
 1811 120 l 1,162,163
 1883 120 1883 120 1927 172 c 0,164,165
 1947 198 1947 198 1959 233 c 128,-1,166
 1971 268 1971 268 1971 300 c 2,167,-1
 1971 308 l 1,141,-1
1450 114 m 0,168,169
 1364 0 1364 0 1194 0 c 0,170,171
 1094 0 1094 0 1021 72 c 128,-1,172
 948 144 948 144 948 238 c 2,173,-1
 948 256 l 2,174,175
 948 270 948 270 952 274 c 2,176,-1
 916 226 l 1,177,-1
 896 168 l 1,178,-1
 890 140 l 1,179,-1
 888 114 l 1,180,-1
 888 106 l 2,181,182
 888 16 888 16 952 -44 c 128,-1,183
 1016 -104 1016 -104 1100 -104 c 2,184,-1
 1316 -106 l 2,185,186
 1352 -106 1352 -106 1360 -120 c 1,187,-1
 1366 -164 l 1,188,-1
 1364 -172 l 1,189,-1
 1364 -180 l 1,190,191
 1358 -200 1358 -200 1336 -216 c 1,192,193
 1316 -236 1316 -236 1282 -236 c 2,194,-1
 1028 -238 l 1,195,196
 974 -368 974 -368 848 -424 c 0,197,198
 780 -452 780 -452 718 -466 c 1,199,-1
 654 -476 l 1,200,-1
 582 -480 l 1,201,202
 414 -480 414 -480 305 -422 c 128,-1,203
 196 -364 196 -364 196 -244 c 0,204,205
 196 -174 196 -174 238 -132 c 0,206,207
 276 -98 276 -98 328 -86 c 1,208,-1
 338 -86 l 1,209,-1
 348 -86 l 2,210,211
 374 -86 374 -86 386 -96 c 2,212,-1
 406 -120 l 1,213,-1
 410 -130 l 1,214,-1
 412 -140 l 1,215,-1
 410 -148 l 1,216,-1
 404 -154 l 1,217,218
 368 -166 368 -166 346 -188 c 0,219,220
 342 -192 342 -192 324 -256 c 1,221,222
 324 -296 324 -296 388 -330 c 0,223,224
 422 -346 422 -346 462 -354 c 1,225,-1
 566 -362 l 1,226,-1
 666 -356 l 2,227,228
 716 -350 716 -350 742 -334 c 2,229,-1
 794 -308 l 1,230,-1
 848 -272 l 1,231,-1
 900 -208 l 1,232,-1
 914 -180 l 1,233,-1
 890 -164 l 2,234,235
 866 -152 866 -152 839 -120 c 128,-1,236
 812 -88 812 -88 780 -26 c 1,237,-1
 764 30 l 1,238,-1
 758 102 l 1,239,240
 758 208 758 208 806 294 c 128,-1,241
 854 380 854 380 920 422 c 1,242,-1
 966 446 l 1,243,-1
 1010 454 l 2,244,245
 1028 454 1028 454 1050 435 c 128,-1,246
 1072 416 1072 416 1072 368 c 2,247,-1
 1072 350 l 1,248,-1
 1070 330 l 1,249,-1
 1068 310 l 1,250,-1
 1068 292 l 2,251,252
 1068 242 1068 242 1077 218 c 128,-1,253
 1086 194 1086 194 1108 168 c 1,254,255
 1134 146 1134 146 1200 128 c 1,256,-1
 1222 128 l 1,257,-1
 1238 132 l 2,258,259
 1266 138 1266 138 1291 155 c 128,-1,260
 1316 172 1316 172 1348 204 c 1,261,262
 1396 264 1396 264 1396 366 c 0,263,264
 1396 560 1396 560 1252 686 c 1,265,266
 1178 744 1178 744 1104 780 c 128,-1,267
 1030 816 1030 816 928 838 c 1,268,-1
 872 844 l 1,269,-1
 820 846 l 1,270,-1
 742 840 l 1,271,-1
 704 838 l 2,272,273
 690 838 690 838 660 824 c 1,274,275
 550 796 550 796 440 722 c 0,276,277
 342 654 342 654 270 528 c 1,278,-1
 322 556 l 1,279,-1
 366 568 l 1,280,-1
 378 568 l 1,281,-1
 392 568 l 1,282,-1
 408 568 l 1,283,-1
 428 568 l 1,284,-1
 462 562 l 1,285,-1
 498 550 l 1,286,287
 546 526 546 526 588 464 c 128,-1,288
 630 402 630 402 630 302 c 0,289,290
 630 198 630 198 553 99 c 128,-1,291
 476 0 476 0 342 0 c 0,292,293
 254 0 254 0 160 78 c 1,294,295
 124 118 124 118 100 174 c 1,296,297
 80 240 80 240 80 310 c 0,298,299
 80 580 80 580 306 773 c 128,-1,300
 532 966 532 966 844 966 c 2,301,-1
 864 966 l 1,302,-1
 884 966 l 2,303,304
 1008 966 1008 966 1114 920 c 1,305,306
 1232 880 1232 880 1328 798 c 1,307,308
 1432 718 1432 718 1484 616 c 128,-1,309
 1536 514 1536 514 1536 386 c 0,310,311
 1536 230 1536 230 1450 114 c 0,168,169
468 402 m 0,312,313
 454 432 454 432 384 454 c 1,314,-1
 370 454 l 2,315,316
 320 454 320 454 272 412 c 0,317,318
 230 370 230 370 212 292 c 1,319,-1
 212 282 l 1,320,-1
 210 276 l 1,321,322
 210 218 210 218 240 176 c 1,323,324
 268 144 268 144 334 124 c 1,325,-1
 342 124 l 2,326,327
 390 124 390 124 444 172 c 128,-1,328
 498 220 498 220 498 292 c 0,329,330
 498 342 498 342 468 402 c 0,312,313
EndSplineSet
EndChar

StartChar: tm_ka
Encoding: 2965 2965 62
Width: 1242
GlyphClass: 2
Flags: W
LayerCount: 2
Fore
SplineSet
1080 84 m 0,0,1
 1000 -2 1000 -2 858 -2 c 0,2,3
 842 -2 842 -2 834 8 c 1,4,-1
 828 34 l 1,5,-1
 828 46 l 1,6,-1
 832 66 l 1,7,-1
 848 92 l 2,8,9
 860 104 860 104 890 110 c 1,10,11
 948 110 948 110 994 164 c 1,12,13
 1030 218 1030 218 1030 286 c 0,14,15
 1030 330 1030 330 1001 374 c 128,-1,16
 972 418 972 418 904 418 c 2,17,-1
 862 418 l 1,18,19
 862 256 862 256 727 127 c 128,-1,20
 592 -2 592 -2 424 -2 c 0,21,22
 264 -2 264 -2 164 82 c 1,23,24
 82 166 82 166 82 288 c 0,25,26
 82 396 82 396 146 462 c 1,27,28
 196 520 196 520 286 544 c 1,29,-1
 302 546 l 1,30,-1
 320 548 l 1,31,-1
 348 548 l 1,32,33
 348 596 348 596 352 602 c 2,34,-1
 368 658 l 1,35,36
 404 768 404 768 529 869 c 128,-1,37
 654 970 654 970 842 970 c 0,38,39
 952 970 952 970 1032 947 c 128,-1,40
 1112 924 1112 924 1112 884 c 1,41,-1
 1110 872 l 1,42,-1
 1106 862 l 2,43,44
 1096 842 1096 842 1086 832 c 2,45,-1
 1058 812 l 1,46,-1
 1046 808 l 1,47,-1
 1038 808 l 1,48,-1
 1024 810 l 1,49,-1
 924 838 l 1,50,-1
 880 844 l 1,51,-1
 872 842 l 1,52,-1
 874 826 l 1,53,-1
 884 788 l 1,54,-1
 890 742 l 1,55,-1
 896 690 l 1,56,-1
 896 682 l 1,57,-1
 896 674 l 1,58,-1
 896 664 l 1,59,-1
 896 656 l 1,60,-1
 894 596 l 1,61,-1
 894 574 l 1,62,-1
 890 546 l 1,63,64
 1000 546 1000 546 1080 475 c 128,-1,65
 1160 404 1160 404 1160 288 c 0,66,67
 1160 166 1160 166 1080 84 c 0,0,1
348 418 m 2,68,69
 288 418 288 418 249 386 c 128,-1,70
 210 354 210 354 210 296 c 2,71,-1
 210 278 l 1,72,-1
 212 262 l 2,73,74
 222 206 222 206 265 163 c 128,-1,75
 308 120 308 120 408 120 c 0,76,77
 538 120 538 120 619 196 c 128,-1,78
 700 272 700 272 730 418 c 1,79,-1
 348 418 l 2,68,69
764 680 m 1,80,-1
 762 694 l 1,81,-1
 762 714 l 2,82,83
 762 730 762 730 758 738 c 1,84,-1
 758 760 l 2,85,86
 758 776 758 776 754 780 c 2,87,-1
 744 824 l 1,88,-1
 742 842 l 1,89,90
 666 830 666 830 605 781 c 128,-1,91
 544 732 544 732 506 668 c 1,92,-1
 478 604 l 1,93,-1
 468 550 l 1,94,-1
 752 550 l 1,95,-1
 754 560 l 1,96,-1
 758 586 l 1,97,-1
 760 608 l 1,98,-1
 764 634 l 1,99,-1
 764 644 l 1,100,-1
 764 656 l 1,101,-1
 764 666 l 1,102,-1
 764 680 l 1,80,-1
EndSplineSet
EndChar

StartChar: tm_nga
Encoding: 2969 2969 63
Width: 1746
GlyphClass: 2
Flags: W
LayerCount: 2
Fore
SplineSet
1666 824 m 1,0,-1
 1668 806 l 1,1,-1
 1668 786 l 1,2,-1
 1668 766 l 1,3,-1
 1668 732 l 1,4,-1
 1666 698 l 1,5,-1
 1664 672 l 1,6,-1
 1658 576 l 1,7,-1
 1646 478 l 2,8,9
 1640 428 1640 428 1626 384 c 0,10,11
 1578 196 1578 196 1482 98 c 128,-1,12
 1386 0 1386 0 1174 0 c 2,13,-1
 920 0 l 2,14,15
 888 0 888 0 876 22 c 1,16,-1
 870 70 l 1,17,-1
 872 78 l 1,18,-1
 876 90 l 1,19,-1
 884 102 l 1,20,-1
 896 114 l 1,21,-1
 906 124 l 1,22,-1
 916 132 l 2,23,24
 950 156 950 156 971 187 c 128,-1,25
 992 218 992 218 992 268 c 0,26,27
 992 330 992 330 958 364 c 1,28,29
 926 402 926 402 880 402 c 0,30,31
 832 402 832 402 806 388 c 2,32,-1
 770 362 l 1,33,-1
 764 358 l 1,34,-1
 760 328 l 2,35,36
 760 302 760 302 756 298 c 0,37,38
 744 212 744 212 716 156 c 1,39,-1
 698 106 l 1,40,-1
 662 44 l 1,41,-1
 630 10 l 2,42,43
 618 -2 618 -2 604 -2 c 2,44,-1
 592 0 l 1,45,-1
 582 2 l 1,46,-1
 550 26 l 1,47,48
 538 44 538 44 532 80 c 1,49,-1
 534 92 l 1,50,-1
 546 118 l 1,51,-1
 580 190 l 1,52,-1
 612 288 l 1,53,-1
 624 350 l 1,54,-1
 628 418 l 1,55,-1
 626 502 l 2,56,57
 626 522 626 522 614 558 c 1,58,-1
 608 594 l 1,59,-1
 596 624 l 1,60,61
 596 636 596 636 578 664 c 2,62,-1
 540 734 l 1,63,-1
 524 756 l 1,64,-1
 468 708 l 2,65,66
 428 676 428 676 346 564 c 1,67,-1
 334 546 l 1,68,-1
 322 526 l 1,69,-1
 288 464 l 1,70,-1
 258 400 l 1,71,72
 228 326 228 326 210 260 c 1,73,-1
 198 200 l 1,74,-1
 194 156 l 1,75,-1
 194 110 l 2,76,77
 194 78 194 78 198 74 c 2,78,-1
 200 48 l 1,79,-1
 202 32 l 2,80,81
 202 18 202 18 198 14 c 2,82,-1
 180 6 l 1,83,-1
 172 4 l 1,84,-1
 166 2 l 1,85,-1
 158 2 l 1,86,-1
 142 4 l 1,87,-1
 126 8 l 1,88,89
 104 18 104 18 84 38 c 128,-1,90
 64 58 64 58 52 108 c 2,91,-1
 50 116 l 1,92,-1
 50 128 l 1,93,-1
 50 136 l 1,94,-1
 50 146 l 1,95,-1
 52 210 l 1,96,-1
 54 238 l 1,97,-1
 66 284 l 1,98,-1
 86 352 l 1,99,-1
 96 386 l 1,100,-1
 114 422 l 1,101,102
 200 628 200 628 381 798 c 128,-1,103
 562 968 562 968 776 968 c 0,104,105
 918 968 918 968 989 937 c 128,-1,106
 1060 906 1060 906 1066 864 c 1,107,-1
 1066 856 l 2,108,109
 1066 844 1066 844 1048 826 c 1,110,-1
 1000 806 l 1,111,-1
 992 804 l 1,112,-1
 974 804 l 1,113,-1
 964 808 l 1,114,-1
 892 830 l 1,115,-1
 862 838 l 1,116,-1
 850 838 l 1,117,-1
 834 838 l 1,118,-1
 826 838 l 1,119,-1
 808 840 l 1,120,-1
 786 840 l 1,121,-1
 758 838 l 1,122,-1
 718 834 l 1,123,-1
 680 828 l 1,124,-1
 652 820 l 1,125,126
 682 780 682 780 720 690 c 1,127,-1
 744 614 l 1,128,-1
 760 528 l 1,129,-1
 762 508 l 1,130,-1
 764 490 l 1,131,-1
 772 494 l 1,132,-1
 816 512 l 1,133,-1
 874 522 l 1,134,-1
 884 524 l 1,135,-1
 896 524 l 2,136,137
 980 524 980 524 1033 482 c 128,-1,138
 1086 440 1086 440 1114 386 c 1,139,-1
 1124 354 l 1,140,-1
 1132 324 l 1,141,-1
 1134 304 l 1,142,-1
 1136 284 l 2,143,144
 1136 260 1136 260 1124 214 c 1,145,-1
 1098 168 l 1,146,-1
 1072 140 l 1,147,-1
 1060 132 l 1,148,-1
 1166 132 l 2,149,150
 1292 132 1292 132 1370 203 c 128,-1,151
 1448 274 1448 274 1486 458 c 1,152,-1
 1494 518 l 1,153,-1
 1502 578 l 1,154,-1
 1514 686 l 1,155,-1
 1518 790 l 1,156,-1
 1516 836 l 1,157,-1
 1516 858 l 2,158,159
 1516 872 1516 872 1512 880 c 2,160,-1
 1510 894 l 1,161,-1
 1510 906 l 1,162,-1
 1510 916 l 2,163,164
 1510 936 1510 936 1522 954 c 1,165,-1
 1562 962 l 1,166,-1
 1582 960 l 1,167,-1
 1598 954 l 2,168,169
 1622 942 1622 942 1644 908 c 2,170,-1
 1660 878 l 1,171,-1
 1666 844 l 1,172,-1
 1666 824 l 1,0,-1
EndSplineSet
EndChar

StartChar: tm_ca
Encoding: 2970 2970 64
Width: 1208
GlyphClass: 2
Flags: W
LayerCount: 2
Fore
SplineSet
1178 486 m 1,0,-1
 1176 480 l 2,1,2
 1170 456 1170 456 1148 436 c 0,3,4
 1144 432 1144 432 1136 430 c 128,-1,5
 1128 428 1128 428 1094 420 c 1,6,-1
 858 420 l 1,7,8
 858 268 858 268 725 133 c 128,-1,9
 592 -2 592 -2 422 -2 c 0,10,11
 256 -2 256 -2 166 82 c 128,-1,12
 76 166 76 166 76 288 c 0,13,14
 76 398 76 398 149 474 c 128,-1,15
 222 550 222 550 312 550 c 2,16,-1
 346 550 l 1,17,18
 346 594 346 594 350 602 c 2,19,-1
 366 658 l 1,20,21
 408 762 408 762 532 868 c 0,22,23
 598 920 598 920 672 945 c 128,-1,24
 746 970 746 970 840 970 c 0,25,26
 950 970 950 970 1030 947 c 128,-1,27
 1110 924 1110 924 1110 884 c 1,28,-1
 1108 874 l 2,29,30
 1108 862 1108 862 1094 846 c 1,31,-1
 1052 816 l 1,32,-1
 1040 812 l 1,33,-1
 1030 812 l 1,34,-1
 1018 814 l 1,35,36
 944 838 944 838 912 844 c 2,37,-1
 872 850 l 1,38,-1
 872 832 l 1,39,-1
 880 790 l 1,40,41
 880 746 880 746 884 742 c 2,42,-1
 890 690 l 1,43,-1
 890 674 l 1,44,-1
 890 658 l 1,45,-1
 888 598 l 1,46,-1
 888 574 l 2,47,48
 888 554 888 554 884 550 c 1,49,-1
 1128 550 l 2,50,51
 1164 550 1164 550 1170 534 c 2,52,-1
 1178 494 l 1,53,-1
 1178 486 l 1,0,-1
346 420 m 2,54,55
 286 420 286 420 247 382 c 128,-1,56
 208 344 208 344 208 288 c 2,57,-1
 208 278 l 2,58,59
 208 224 208 224 252 174 c 128,-1,60
 296 124 296 124 410 124 c 0,61,62
 522 124 522 124 610 200 c 128,-1,63
 698 276 698 276 728 420 c 1,64,-1
 346 420 l 2,54,55
754 680 m 1,65,-1
 754 704 l 1,66,-1
 750 732 l 1,67,-1
 750 754 l 2,68,69
 750 770 750 770 746 778 c 2,70,-1
 738 820 l 1,71,-1
 736 838 l 1,72,73
 660 826 660 826 605 778 c 128,-1,74
 550 730 550 730 512 664 c 1,75,-1
 486 604 l 1,76,-1
 478 550 l 1,77,-1
 746 550 l 1,78,-1
 746 560 l 1,79,-1
 750 586 l 1,80,-1
 752 608 l 1,81,-1
 754 634 l 1,82,-1
 754 644 l 1,83,-1
 754 656 l 1,84,-1
 754 664 l 1,85,-1
 754 680 l 1,65,-1
EndSplineSet
EndChar

StartChar: tm_ja
Encoding: 2972 2972 65
Width: 1668
GlyphClass: 2
Flags: W
LayerCount: 2
Fore
SplineSet
1452 280 m 0,0,1
 1328 190 1328 190 1142 150 c 1,2,3
 1098 150 1098 150 1090 146 c 2,4,-1
 1042 144 l 1,5,-1
 490 144 l 2,6,7
 370 144 370 144 294 91 c 128,-1,8
 218 38 218 38 178 -82 c 1,9,10
 178 -102 178 -102 174 -106 c 2,11,-1
 172 -134 l 1,12,-1
 172 -156 l 2,13,14
 172 -176 172 -176 176 -180 c 0,15,16
 182 -222 182 -222 224 -286 c 1,17,18
 268 -336 268 -336 342 -336 c 0,19,20
 366 -336 366 -336 388 -328 c 2,21,-1
 434 -308 l 1,22,-1
 476 -278 l 1,23,-1
 510 -252 l 1,24,-1
 524 -238 l 1,25,-1
 624 -150 l 2,26,27
 686 -96 686 -96 806 -22 c 1,28,29
 862 6 862 6 916 20 c 1,30,-1
 978 30 l 1,31,-1
 1050 34 l 1,32,33
 1214 34 1214 34 1302 -32 c 128,-1,34
 1390 -98 1390 -98 1390 -224 c 0,35,36
 1390 -334 1390 -334 1292 -404 c 128,-1,37
 1194 -474 1194 -474 1056 -474 c 0,38,39
 948 -474 948 -474 890 -452 c 128,-1,40
 832 -430 832 -430 794 -396 c 0,41,42
 778 -382 778 -382 770 -368 c 2,43,-1
 760 -342 l 1,44,-1
 760 -332 l 1,45,-1
 760 -324 l 2,46,47
 760 -302 760 -302 772 -274 c 0,48,49
 776 -268 776 -268 810 -258 c 1,50,-1
 820 -258 l 1,51,-1
 828 -262 l 1,52,-1
 858 -284 l 1,53,-1
 888 -308 l 1,54,-1
 950 -346 l 1,55,56
 1010 -366 1010 -366 1050 -366 c 0,57,58
 1136 -366 1136 -366 1176 -338 c 1,59,60
 1218 -314 1218 -314 1236 -278 c 1,61,-1
 1244 -248 l 1,62,-1
 1248 -224 l 1,63,64
 1248 -172 1248 -172 1200 -120 c 1,65,66
 1150 -82 1150 -82 1056 -82 c 0,67,68
 994 -82 994 -82 940 -96 c 0,69,70
 916 -102 916 -102 890 -113 c 128,-1,71
 864 -124 864 -124 838 -142 c 0,72,73
 754 -200 754 -200 680 -270 c 2,74,-1
 668 -282 l 1,75,-1
 656 -294 l 1,76,-1
 588 -354 l 1,77,-1
 514 -408 l 1,78,79
 426 -458 426 -458 336 -458 c 0,80,81
 224 -458 224 -458 131 -372 c 128,-1,82
 38 -286 38 -286 38 -118 c 2,83,-1
 38 -98 l 1,84,-1
 40 -78 l 1,85,-1
 46 8 l 2,86,87
 52 48 52 48 80 80 c 1,88,89
 114 140 114 140 196 192 c 0,90,91
 334 276 334 276 506 276 c 2,92,-1
 1042 276 l 2,93,94
 1218 276 1218 276 1337 362 c 128,-1,95
 1456 448 1456 448 1456 596 c 2,96,-1
 1456 610 l 2,97,98
 1456 704 1456 704 1394 773 c 128,-1,99
 1332 842 1332 842 1244 842 c 1,100,-1
 1212 840 l 2,101,102
 1196 840 1196 840 1178 832 c 0,103,104
 1102 814 1102 814 1028 728 c 0,105,106
 962 652 962 652 922 486 c 2,107,-1
 920 478 l 1,108,-1
 918 464 l 1,109,-1
 906 404 l 2,110,111
 900 380 900 380 872 380 c 2,112,-1
 852 382 l 1,113,-1
 828 388 l 2,114,115
 810 394 810 394 790 414 c 0,116,117
 774 434 774 434 774 468 c 2,118,-1
 776 518 l 2,119,120
 776 544 776 544 784 566 c 2,121,-1
 800 628 l 1,122,-1
 824 680 l 1,123,-1
 820 686 l 1,124,125
 786 746 786 746 720 794 c 1,126,127
 658 846 658 846 572 846 c 1,128,-1
 480 840 l 2,129,130
 444 834 444 834 410 808 c 1,131,132
 492 808 492 808 531 763 c 128,-1,133
 570 718 570 718 586 654 c 1,134,-1
 590 626 l 1,135,-1
 592 598 l 1,136,137
 592 510 592 510 526 440 c 1,138,139
 480 400 480 400 388 378 c 1,140,-1
 374 376 l 1,141,-1
 362 376 l 2,142,143
 258 376 258 376 212 422 c 1,144,145
 178 462 178 462 150 532 c 1,146,-1
 142 570 l 1,147,-1
 140 608 l 1,148,149
 140 754 140 754 260 860 c 1,150,-1
 322 902 l 1,151,-1
 388 938 l 1,152,153
 454 968 454 968 524 968 c 1,154,-1
 540 970 l 1,155,-1
 556 970 l 1,156,-1
 564 970 l 1,157,-1
 572 970 l 2,158,159
 682 970 682 970 762 924 c 1,160,161
 846 882 846 882 900 800 c 1,162,163
 954 866 954 866 1044 920 c 0,164,165
 1084 942 1084 942 1138 956 c 1,166,-1
 1194 966 l 1,167,-1
 1252 970 l 1,168,169
 1412 970 1412 970 1503 862 c 128,-1,170
 1594 754 1594 754 1594 600 c 0,171,172
 1594 496 1594 496 1560 417 c 128,-1,173
 1526 338 1526 338 1452 280 c 0,0,1
436 682 m 0,174,175
 410 724 410 724 366 724 c 1,176,-1
 354 722 l 1,177,-1
 342 720 l 2,178,179
 318 712 318 712 286 676 c 0,180,181
 262 646 262 646 262 604 c 0,182,183
 262 568 262 568 286 532 c 1,184,-1
 312 504 l 1,185,-1
 344 486 l 1,186,-1
 352 484 l 1,187,-1
 362 484 l 1,188,-1
 380 486 l 1,189,-1
 400 494 l 2,190,191
 422 502 422 502 443 529 c 128,-1,192
 464 556 464 556 464 592 c 0,193,194
 464 642 464 642 436 682 c 0,174,175
EndSplineSet
EndChar

StartChar: tm_nya
Encoding: 2974 2974 66
Width: 1802
GlyphClass: 2
Flags: W
LayerCount: 2
Fore
SplineSet
1504 -276 m 1,0,1
 1292 -436 1292 -436 1004 -476 c 1,2,-1
 964 -478 l 1,3,-1
 926 -480 l 1,4,5
 582 -480 582 -480 336 -294 c 0,6,7
 220 -202 220 -202 151 -65 c 128,-1,8
 82 72 82 72 82 242 c 2,9,-1
 82 250 l 1,10,-1
 82 260 l 1,11,-1
 80 268 l 1,12,-1
 80 278 l 1,13,-1
 82 324 l 2,14,15
 82 362 82 362 86 370 c 0,16,17
 106 528 106 528 175 655 c 128,-1,18
 244 782 244 782 332 804 c 1,19,-1
 344 806 l 1,20,-1
 356 808 l 1,21,-1
 368 810 l 1,22,-1
 380 808 l 1,23,-1
 390 802 l 1,24,-1
 396 796 l 1,25,-1
 404 790 l 1,26,-1
 416 774 l 2,27,28
 422 768 422 768 422 758 c 2,29,-1
 418 748 l 1,30,-1
 412 740 l 1,31,32
 320 660 320 660 269 531 c 128,-1,33
 218 402 218 402 218 266 c 0,34,35
 218 -6 218 -6 423 -180 c 128,-1,36
 628 -354 628 -354 922 -354 c 0,37,38
 1176 -354 1176 -354 1383 -203 c 128,-1,39
 1590 -52 1590 -52 1590 156 c 0,40,41
 1590 222 1590 222 1558 266 c 0,42,43
 1542 292 1542 292 1524 300 c 0,44,45
 1506 312 1506 312 1480 312 c 0,46,47
 1448 312 1448 312 1432 304 c 2,48,-1
 1404 288 l 1,49,-1
 1392 280 l 1,50,-1
 1382 272 l 1,51,-1
 1374 236 l 1,52,53
 1374 216 1374 216 1366 200 c 2,54,-1
 1358 168 l 2,55,56
 1358 154 1358 154 1348 138 c 1,57,-1
 1332 78 l 1,58,-1
 1314 36 l 2,59,60
 1302 12 1302 12 1286 6 c 1,61,62
 1256 6 1256 6 1224 38 c 1,63,64
 1200 72 1200 72 1188 110 c 1,65,-1
 1190 142 l 1,66,-1
 1204 178 l 1,67,-1
 1216 218 l 1,68,-1
 1244 322 l 1,69,-1
 1264 432 l 1,70,-1
 1282 574 l 1,71,-1
 1284 618 l 1,72,-1
 1286 674 l 1,73,-1
 1286 688 l 1,74,-1
 1286 714 l 1,75,-1
 1286 738 l 1,76,-1
 1286 806 l 1,77,-1
 1286 834 l 1,78,-1
 1268 836 l 1,79,-1
 1226 844 l 1,80,-1
 1202 844 l 2,81,82
 1184 844 1184 844 1178 848 c 2,83,-1
 1126 854 l 1,84,-1
 1112 854 l 1,85,-1
 1098 854 l 1,86,-1
 1086 854 l 1,87,-1
 1076 854 l 1,88,-1
 1036 854 l 1,89,-1
 990 850 l 1,90,-1
 908 830 l 2,91,92
 858 818 858 818 794 776 c 0,93,94
 690 710 690 710 630 622 c 1,95,-1
 616 598 l 1,96,-1
 592 550 l 1,97,-1
 572 486 l 1,98,-1
 578 502 l 1,99,-1
 602 534 l 2,100,101
 620 552 620 552 666 572 c 1,102,-1
 706 584 l 1,103,-1
 766 588 l 1,104,105
 862 588 862 588 928 502 c 1,106,107
 990 412 990 412 990 300 c 0,108,109
 990 268 990 268 986 262 c 1,110,111
 986 244 986 244 978 222 c 0,112,113
 960 148 960 148 888 73 c 128,-1,114
 816 -2 816 -2 720 -2 c 2,115,-1
 708 -2 l 2,116,117
 568 -2 568 -2 488 102 c 1,118,119
 422 208 422 208 422 362 c 0,120,121
 422 598 422 598 602 786 c 128,-1,122
 782 974 782 974 1080 974 c 0,123,124
 1302 974 1302 974 1430 936 c 0,125,126
 1490 920 1490 920 1545 898 c 128,-1,127
 1600 876 1600 876 1634 852 c 1,128,129
 1672 832 1672 832 1702 796 c 0,130,131
 1710 788 1710 788 1730 752 c 1,132,-1
 1732 744 l 1,133,-1
 1726 732 l 1,134,-1
 1714 718 l 1,135,-1
 1674 702 l 1,136,-1
 1634 694 l 1,137,-1
 1616 692 l 1,138,139
 1548 740 1548 740 1484 770 c 2,140,-1
 1426 796 l 1,141,-1
 1426 786 l 1,142,-1
 1430 762 l 1,143,-1
 1432 720 l 1,144,-1
 1434 668 l 1,145,-1
 1432 606 l 1,146,-1
 1426 536 l 1,147,-1
 1422 518 l 1,148,-1
 1422 500 l 1,149,-1
 1414 444 l 1,150,-1
 1404 394 l 1,151,-1
 1412 400 l 1,152,-1
 1418 406 l 1,153,-1
 1424 410 l 1,154,-1
 1458 428 l 1,155,-1
 1526 436 l 1,156,157
 1622 436 1622 436 1676 350 c 1,158,-1
 1700 306 l 1,159,-1
 1718 262 l 1,160,-1
 1728 216 l 1,161,-1
 1732 162 l 1,162,163
 1732 -92 1732 -92 1504 -276 c 1,0,1
842 322 m 1,164,-1
 842 342 l 1,165,166
 836 392 836 392 804 432 c 1,167,168
 776 474 776 474 716 474 c 0,169,170
 652 474 652 474 606 416 c 1,171,-1
 588 388 l 1,172,-1
 574 350 l 1,173,-1
 566 288 l 1,174,175
 566 228 566 228 605 178 c 128,-1,176
 644 128 644 128 702 128 c 256,177,178
 760 128 760 128 808 182 c 1,179,180
 844 236 844 236 844 304 c 1,181,-1
 842 322 l 1,164,-1
EndSplineSet
EndChar

StartChar: tm_tta
Encoding: 2975 2975 67
Width: 1598
GlyphClass: 2
Flags: W
LayerCount: 2
Fore
SplineSet
1528 156 m 1,0,-1
 1462 98 l 2,1,2
 1430 74 1430 74 1312 37 c 128,-1,3
 1194 0 1194 0 1036 0 c 2,4,-1
 380 0 l 2,5,6
 238 0 238 0 154 84 c 128,-1,7
 70 168 70 168 70 324 c 2,8,-1
 70 334 l 2,9,10
 70 456 70 456 118 588 c 128,-1,11
 166 720 166 720 222 806 c 1,12,-1
 260 870 l 1,13,-1
 304 920 l 2,14,15
 330 946 330 946 364 966 c 1,16,17
 394 966 394 966 412 948 c 1,18,-1
 434 902 l 1,19,-1
 436 896 l 1,20,-1
 436 888 l 2,21,22
 436 874 436 874 426 864 c 2,23,-1
 408 846 l 1,24,-1
 390 826 l 1,25,-1
 372 804 l 1,26,-1
 334 752 l 1,27,-1
 300 686 l 1,28,-1
 272 622 l 1,29,-1
 242 542 l 1,30,-1
 226 484 l 1,31,-1
 214 434 l 1,32,-1
 204 338 l 1,33,34
 204 250 204 250 252 184 c 1,35,36
 300 132 300 132 380 132 c 2,37,-1
 1036 132 l 1,38,-1
 1090 132 l 1,39,-1
 1128 132 l 1,40,-1
 1162 136 l 1,41,-1
 1206 138 l 2,42,43
 1224 138 1224 138 1254 152 c 1,44,45
 1326 172 1326 172 1372 202 c 1,46,-1
 1416 236 l 1,47,-1
 1446 264 l 1,48,-1
 1454 268 l 1,49,-1
 1464 270 l 1,50,-1
 1472 270 l 2,51,52
 1492 270 1492 270 1516 252 c 0,53,54
 1540 238 1540 238 1548 206 c 1,55,-1
 1548 194 l 2,56,57
 1548 182 1548 182 1528 156 c 1,0,-1
EndSplineSet
EndChar

StartChar: tm_nna
Encoding: 2979 2979 68
Width: 2472
GlyphClass: 2
Flags: W
LayerCount: 2
Fore
SplineSet
2440 758 m 2,0,1
 2440 732 2440 732 2424 710 c 0,2,3
 2420 700 2420 700 2392 688 c 1,4,-1
 2376 690 l 1,5,-1
 2362 702 l 1,6,7
 2286 784 2286 784 2200 814 c 1,8,-1
 2130 832 l 1,9,-1
 2132 818 l 1,10,-1
 2136 784 l 1,11,-1
 2136 776 l 1,12,-1
 2138 738 l 1,13,-1
 2140 716 l 1,14,15
 2140 476 2140 476 2104 302 c 128,-1,16
 2068 128 2068 128 2024 50 c 1,17,18
 2012 18 2012 18 1996 8 c 2,19,-1
 1964 -8 l 1,20,21
 1934 -8 1934 -8 1906 18 c 0,22,23
 1896 30 1896 30 1880 78 c 1,24,-1
 1882 96 l 1,25,-1
 1892 114 l 1,26,27
 1920 152 1920 152 1962 324 c 1,28,-1
 1986 488 l 1,29,-1
 1994 560 l 1,30,-1
 1996 642 l 1,31,-1
 1998 686 l 1,32,-1
 1998 730 l 1,33,-1
 1998 754 l 1,34,-1
 1996 778 l 1,35,-1
 1994 812 l 1,36,-1
 1992 842 l 1,37,38
 1936 842 1936 842 1864 818 c 1,39,-1
 1804 792 l 1,40,-1
 1738 756 l 1,41,42
 1764 724 1764 724 1792 644 c 0,43,44
 1812 592 1812 592 1832 474 c 1,45,-1
 1832 446 l 1,46,-1
 1834 418 l 1,47,48
 1834 256 1834 256 1749 127 c 128,-1,49
 1664 -2 1664 -2 1526 -2 c 0,50,51
 1426 -2 1426 -2 1360 82 c 1,52,53
 1310 182 1310 182 1310 288 c 0,54,55
 1310 424 1310 424 1375 551 c 128,-1,56
 1440 678 1440 678 1546 772 c 1,57,58
 1528 796 1528 796 1497 814 c 128,-1,59
 1466 832 1466 832 1422 844 c 1,60,-1
 1386 850 l 1,61,-1
 1352 852 l 1,62,-1
 1298 850 l 1,63,-1
 1278 848 l 1,64,-1
 1250 836 l 1,65,-1
 1210 816 l 1,66,-1
 1172 794 l 1,67,-1
 1152 780 l 1,68,-1
 1132 766 l 1,69,70
 1146 746 1146 746 1164 706 c 0,71,72
 1176 676 1176 676 1190 648 c 1,73,-1
 1208 588 l 1,74,-1
 1224 514 l 1,75,-1
 1230 466 l 1,76,-1
 1232 418 l 1,77,78
 1232 256 1232 256 1145 127 c 128,-1,79
 1058 -2 1058 -2 916 -2 c 0,80,81
 816 -2 816 -2 752 82 c 1,82,83
 706 168 706 168 706 288 c 0,84,85
 706 422 706 422 771 545 c 128,-1,86
 836 668 836 668 942 768 c 1,87,88
 928 780 928 780 852 818 c 1,89,-1
 814 832 l 1,90,-1
 754 846 l 1,91,-1
 734 850 l 1,92,-1
 716 852 l 1,93,-1
 700 854 l 1,94,-1
 686 854 l 1,95,-1
 660 854 l 1,96,-1
 620 846 l 1,97,-1
 554 830 l 1,98,99
 440 788 440 788 339 699 c 128,-1,100
 238 610 238 610 214 494 c 1,101,102
 242 534 242 534 285 565 c 128,-1,103
 328 596 328 596 404 596 c 0,104,105
 484 596 484 596 550 512 c 128,-1,106
 616 428 616 428 616 310 c 2,107,-1
 616 286 l 2,108,109
 616 266 616 266 612 262 c 2,110,-1
 600 212 l 1,111,112
 576 136 576 136 508 66 c 1,113,114
 436 -2 436 -2 332 -2 c 0,115,116
 232 -2 232 -2 152 80 c 1,117,118
 74 168 74 168 74 322 c 0,119,120
 74 570 74 570 253 769 c 128,-1,121
 432 968 432 968 704 968 c 2,122,-1
 716 968 l 1,123,-1
 732 968 l 1,124,-1
 746 966 l 1,125,-1
 760 966 l 2,126,127
 804 966 804 966 834 958 c 2,128,-1
 874 948 l 1,129,-1
 926 930 l 2,130,131
 976 914 976 914 1044 852 c 1,132,-1
 1066 868 l 1,133,-1
 1090 884 l 1,134,-1
 1142 910 l 1,135,-1
 1214 942 l 1,136,137
 1288 970 1288 970 1394 970 c 0,138,139
 1462 970 1462 970 1532 940 c 0,140,141
 1548 934 1548 934 1563 926 c 128,-1,142
 1578 918 1578 918 1594 906 c 0,143,144
 1624 890 1624 890 1658 856 c 1,145,-1
 1688 872 l 1,146,-1
 1722 892 l 2,147,148
 1774 920 1774 920 1847 945 c 128,-1,149
 1920 970 1920 970 2016 970 c 0,150,151
 2180 970 2180 970 2308 906 c 1,152,153
 2440 848 2440 848 2440 774 c 2,154,-1
 2440 758 l 2,0,1
490 338 m 2,155,156
 490 358 490 358 482 374 c 1,157,158
 476 408 476 408 444 442 c 1,159,160
 416 478 416 478 362 478 c 0,161,162
 300 478 300 478 244 416 c 1,163,164
 202 356 202 356 202 278 c 0,165,166
 202 216 202 216 236 170 c 0,167,168
 266 124 266 124 336 124 c 2,169,-1
 346 124 l 2,170,171
 394 124 394 124 446 174 c 1,172,173
 492 224 492 224 492 306 c 1,174,-1
 490 338 l 2,155,156
1676 554 m 1,175,176
 1658 622 1658 622 1626 676 c 1,177,-1
 1590 638 l 1,178,-1
 1538 574 l 1,179,-1
 1508 524 l 1,180,-1
 1480 464 l 1,181,-1
 1454 384 l 1,182,-1
 1442 310 l 1,183,-1
 1442 298 l 1,184,-1
 1442 288 l 1,185,-1
 1440 276 l 1,186,-1
 1440 266 l 2,187,188
 1440 194 1440 194 1460 162 c 0,189,190
 1478 138 1478 138 1534 124 c 1,191,-1
 1542 124 l 2,192,193
 1602 124 1602 124 1650 214 c 128,-1,194
 1698 304 1698 304 1698 418 c 2,195,-1
 1698 448 l 1,196,-1
 1698 468 l 1,197,-1
 1692 500 l 2,198,199
 1692 520 1692 520 1676 554 c 1,175,176
1094 426 m 1,200,-1
 1094 436 l 2,201,202
 1094 504 1094 504 1074 564 c 0,203,204
 1062 608 1062 608 1026 676 c 1,205,206
 992 644 992 644 938 576 c 1,207,-1
 874 470 l 1,208,-1
 856 430 l 1,209,-1
 842 378 l 1,210,-1
 834 310 l 1,211,212
 834 208 834 208 855 168 c 128,-1,213
 876 128 876 128 936 128 c 0,214,215
 994 128 994 128 1044 218 c 128,-1,216
 1094 308 1094 308 1094 418 c 2,217,-1
 1094 426 l 1,200,-1
EndSplineSet
EndChar

StartChar: tm_ta
Encoding: 2980 2980 69
Width: 1264
GlyphClass: 2
Flags: W
LayerCount: 2
Fore
SplineSet
972 -156 m 0,0,1
 776 -320 776 -320 480 -424 c 0,2,3
 396 -452 396 -452 312 -466 c 2,4,-1
 228 -476 l 1,5,-1
 146 -480 l 2,6,7
 122 -480 122 -480 110 -462 c 1,8,-1
 96 -420 l 1,9,10
 96 -394 96 -394 112 -377 c 128,-1,11
 128 -360 128 -360 152 -348 c 1,12,-1
 160 -346 l 1,13,-1
 168 -346 l 2,14,15
 410 -346 410 -346 617 -236 c 128,-1,16
 824 -126 824 -126 954 12 c 0,17,18
 1000 64 1000 64 1033 127 c 128,-1,19
 1066 190 1066 190 1066 234 c 0,20,21
 1066 326 1066 326 1030 374 c 1,22,23
 992 418 992 418 934 418 c 2,24,-1
 868 420 l 1,25,26
 868 268 868 268 735 133 c 128,-1,27
 602 -2 602 -2 432 -2 c 0,28,29
 266 -2 266 -2 176 82 c 128,-1,30
 86 166 86 166 86 288 c 0,31,32
 86 402 86 402 159 476 c 128,-1,33
 232 550 232 550 322 550 c 2,34,-1
 356 550 l 1,35,36
 356 594 356 594 360 602 c 2,37,-1
 376 658 l 1,38,39
 418 762 418 762 542 868 c 0,40,41
 608 920 608 920 682 945 c 128,-1,42
 756 970 756 970 850 970 c 0,43,44
 960 970 960 970 1040 947 c 128,-1,45
 1120 924 1120 924 1120 884 c 1,46,-1
 1118 874 l 2,47,48
 1118 862 1118 862 1104 846 c 1,49,-1
 1062 816 l 1,50,-1
 1050 812 l 1,51,-1
 1040 812 l 1,52,-1
 1028 814 l 1,53,54
 954 838 954 838 922 844 c 2,55,-1
 882 850 l 1,56,-1
 882 832 l 1,57,-1
 890 790 l 1,58,59
 890 746 890 746 894 742 c 2,60,-1
 900 690 l 1,61,-1
 898 610 l 1,62,-1
 898 586 l 1,63,-1
 894 550 l 1,64,65
 1018 550 1018 550 1107 490 c 128,-1,66
 1196 430 1196 430 1196 234 c 0,67,68
 1196 26 1196 26 972 -156 c 0,0,1
356 418 m 2,69,70
 310 418 310 418 256 382 c 1,71,72
 218 344 218 344 218 288 c 2,73,-1
 218 278 l 2,74,75
 218 224 218 224 262 174 c 128,-1,76
 306 124 306 124 420 124 c 0,77,78
 542 124 542 124 625 199 c 128,-1,79
 708 274 708 274 738 418 c 1,80,-1
 356 418 l 2,69,70
764 680 m 1,81,-1
 764 704 l 1,82,-1
 760 732 l 1,83,-1
 760 754 l 2,84,85
 760 770 760 770 756 778 c 2,86,-1
 748 820 l 1,87,-1
 746 838 l 1,88,89
 670 826 670 826 615 778 c 128,-1,90
 560 730 560 730 522 664 c 1,91,-1
 496 604 l 1,92,-1
 488 550 l 1,93,-1
 756 550 l 1,94,-1
 756 560 l 1,95,-1
 760 586 l 1,96,-1
 762 608 l 1,97,-1
 764 634 l 1,98,-1
 764 644 l 1,99,-1
 764 656 l 1,100,-1
 764 664 l 1,101,-1
 764 680 l 1,81,-1
EndSplineSet
EndChar

StartChar: tm_na
Encoding: 2984 2984 70
Width: 1238
GlyphClass: 2
Flags: W
LayerCount: 2
Fore
SplineSet
932 -164 m 0,0,1
 736 -322 736 -322 440 -426 c 1,2,-1
 368 -446 l 1,3,-1
 266 -466 l 1,4,-1
 180 -476 l 1,5,-1
 100 -480 l 2,6,7
 86 -480 86 -480 62 -462 c 1,8,-1
 48 -420 l 1,9,10
 48 -396 48 -396 64 -374 c 0,11,12
 82 -356 82 -356 102 -350 c 2,13,-1
 112 -346 l 1,14,-1
 122 -346 l 2,15,16
 366 -346 366 -346 574 -236 c 0,17,18
 676 -184 676 -184 760 -123 c 128,-1,19
 844 -62 844 -62 908 12 c 1,20,-1
 990 128 l 1,21,22
 1020 186 1020 186 1020 234 c 0,23,24
 1020 332 1020 332 982 367 c 128,-1,25
 944 402 944 402 902 402 c 2,26,-1
 862 400 l 1,27,-1
 828 394 l 1,28,-1
 800 374 l 1,29,-1
 794 366 l 1,30,-1
 786 358 l 1,31,-1
 782 328 l 2,32,33
 782 302 782 302 778 298 c 0,34,35
 766 200 766 200 738 154 c 1,36,-1
 714 92 l 1,37,-1
 684 42 l 1,38,-1
 654 8 l 1,39,-1
 628 -2 l 1,40,-1
 616 0 l 1,41,-1
 606 2 l 1,42,-1
 574 26 l 1,43,44
 562 44 562 44 556 80 c 1,45,-1
 558 92 l 1,46,-1
 570 118 l 1,47,-1
 602 190 l 1,48,-1
 634 288 l 1,49,-1
 646 350 l 1,50,-1
 650 418 l 1,51,-1
 648 502 l 2,52,53
 648 522 648 522 636 558 c 2,54,-1
 622 612 l 2,55,56
 616 644 616 644 600 670 c 2,57,-1
 564 734 l 1,58,-1
 548 756 l 1,59,-1
 494 712 l 1,60,-1
 456 676 l 2,61,62
 442 660 442 660 419 631 c 128,-1,63
 396 602 396 602 378 576 c 2,64,-1
 362 552 l 1,65,-1
 346 526 l 1,66,-1
 312 464 l 1,67,-1
 282 400 l 1,68,69
 252 326 252 326 234 260 c 1,70,-1
 222 200 l 1,71,-1
 218 156 l 1,72,-1
 218 110 l 2,73,74
 218 78 218 78 222 74 c 2,75,-1
 224 48 l 1,76,-1
 226 32 l 2,77,78
 226 20 226 20 220 14 c 2,79,-1
 204 6 l 1,80,-1
 196 4 l 1,81,-1
 190 2 l 1,82,-1
 182 2 l 1,83,-1
 166 4 l 1,84,-1
 150 8 l 1,85,86
 126 20 126 20 108 39 c 128,-1,87
 90 58 90 58 76 108 c 2,88,-1
 74 118 l 1,89,-1
 74 128 l 1,90,-1
 74 136 l 1,91,-1
 74 148 l 1,92,-1
 76 212 l 1,93,-1
 88 274 l 1,94,-1
 108 348 l 1,95,-1
 136 422 l 1,96,97
 222 628 222 628 403 798 c 128,-1,98
 584 968 584 968 800 968 c 0,99,100
 940 968 940 968 1012 937 c 128,-1,101
 1084 906 1084 906 1090 864 c 1,102,-1
 1090 856 l 2,103,104
 1090 840 1090 840 1068 824 c 1,105,-1
 1018 804 l 1,106,-1
 1008 804 l 1,107,-1
 998 806 l 1,108,-1
 986 808 l 1,109,-1
 916 830 l 1,110,-1
 884 838 l 1,111,-1
 872 838 l 1,112,-1
 858 838 l 1,113,-1
 850 838 l 1,114,-1
 832 840 l 1,115,-1
 810 840 l 1,116,-1
 782 838 l 2,117,118
 750 838 750 838 744 834 c 2,119,-1
 704 828 l 1,120,-1
 676 820 l 1,121,122
 712 768 712 768 742 690 c 1,123,-1
 766 614 l 1,124,-1
 782 528 l 1,125,-1
 784 508 l 1,126,-1
 786 490 l 1,127,128
 794 496 794 496 842 512 c 1,129,-1
 906 516 l 1,130,-1
 916 516 l 2,131,132
 1038 516 1038 516 1100 428 c 0,133,134
 1128 384 1128 384 1142 340 c 1,135,-1
 1152 294 l 1,136,-1
 1156 240 l 1,137,138
 1156 16 1156 16 932 -164 c 0,0,1
EndSplineSet
EndChar

StartChar: tm_nnna
Encoding: 2985 2985 71
Width: 1930
GlyphClass: 2
Flags: W
LayerCount: 2
Fore
SplineSet
1902 758 m 2,0,1
 1902 732 1902 732 1886 710 c 0,2,3
 1882 700 1882 700 1854 688 c 1,4,-1
 1838 690 l 1,5,-1
 1824 702 l 1,6,7
 1748 784 1748 784 1662 814 c 1,8,-1
 1592 832 l 1,9,-1
 1594 818 l 1,10,-1
 1598 784 l 1,11,-1
 1598 776 l 1,12,-1
 1600 738 l 1,13,-1
 1602 716 l 1,14,15
 1602 480 1602 480 1566 302 c 128,-1,16
 1530 124 1530 124 1486 50 c 1,17,18
 1474 18 1474 18 1458 8 c 2,19,-1
 1426 -8 l 1,20,21
 1396 -8 1396 -8 1368 18 c 0,22,23
 1358 30 1358 30 1342 78 c 1,24,-1
 1344 96 l 1,25,-1
 1354 114 l 1,26,27
 1382 146 1382 146 1424 324 c 1,28,-1
 1448 488 l 1,29,-1
 1456 560 l 1,30,-1
 1458 642 l 1,31,-1
 1460 686 l 1,32,-1
 1460 730 l 1,33,-1
 1460 754 l 1,34,-1
 1458 778 l 1,35,-1
 1456 812 l 1,36,-1
 1454 842 l 1,37,38
 1362 842 1362 842 1271 818 c 128,-1,39
 1180 794 1180 794 1122 756 c 1,40,41
 1148 724 1148 724 1176 644 c 0,42,43
 1196 592 1196 592 1216 474 c 1,44,-1
 1216 446 l 1,45,-1
 1218 418 l 1,46,47
 1218 256 1218 256 1133 127 c 128,-1,48
 1048 -2 1048 -2 910 -2 c 0,49,50
 812 -2 812 -2 746 82 c 1,51,52
 732 110 732 110 721 140 c 128,-1,53
 710 170 710 170 705 191 c 128,-1,54
 700 212 700 212 698 231 c 128,-1,55
 696 250 696 250 696 288 c 0,56,57
 696 424 696 424 761 550 c 128,-1,58
 826 676 826 676 930 772 c 1,59,60
 910 794 910 794 854 824 c 1,61,-1
 762 846 l 1,62,-1
 746 848 l 1,63,-1
 732 852 l 1,64,-1
 704 856 l 1,65,-1
 676 856 l 1,66,-1
 630 852 l 2,67,68
 608 852 608 852 584 844 c 0,69,70
 484 820 484 820 370 736 c 0,71,72
 280 668 280 668 224 562 c 1,73,-1
 210 526 l 1,74,-1
 202 494 l 1,75,76
 230 534 230 534 273 565 c 128,-1,77
 316 596 316 596 392 596 c 0,78,79
 470 596 470 596 540 512 c 1,80,81
 604 426 604 426 604 310 c 2,82,-1
 604 286 l 2,83,84
 604 266 604 266 600 262 c 2,85,-1
 588 212 l 1,86,87
 564 134 564 134 496 66 c 128,-1,88
 428 -2 428 -2 320 -2 c 0,89,90
 222 -2 222 -2 142 82 c 128,-1,91
 62 166 62 166 62 322 c 0,92,93
 62 568 62 568 241 768 c 128,-1,94
 420 968 420 968 726 968 c 2,95,-1
 738 968 l 1,96,-1
 752 968 l 1,97,-1
 764 966 l 1,98,-1
 778 966 l 1,99,-1
 848 960 l 1,100,-1
 880 952 l 1,101,-1
 918 938 l 2,102,103
 978 916 978 916 1042 856 c 1,104,-1
 1074 872 l 1,105,-1
 1112 892 l 2,106,107
 1172 920 1172 920 1267 945 c 128,-1,108
 1362 970 1362 970 1478 970 c 0,109,110
 1642 970 1642 970 1770 906 c 1,111,112
 1902 848 1902 848 1902 774 c 2,113,-1
 1902 758 l 2,0,1
478 338 m 2,114,115
 478 358 478 358 470 374 c 1,116,117
 464 408 464 408 432 442 c 1,118,119
 404 478 404 478 350 478 c 0,120,121
 288 478 288 478 232 416 c 1,122,123
 190 356 190 356 190 278 c 0,124,125
 190 216 190 216 224 170 c 128,-1,126
 258 124 258 124 324 124 c 2,127,-1
 334 124 l 2,128,129
 382 124 382 124 434 174 c 1,130,131
 480 224 480 224 480 306 c 1,132,-1
 478 338 l 2,114,115
1060 554 m 1,133,134
 1042 622 1042 622 1010 676 c 1,135,-1
 974 636 l 1,136,-1
 928 578 l 1,137,-1
 902 538 l 1,138,-1
 864 464 l 1,139,-1
 838 384 l 1,140,-1
 828 310 l 1,141,-1
 826 286 l 1,142,-1
 826 264 l 2,143,144
 826 194 826 194 846 160 c 0,145,146
 868 130 868 130 918 124 c 1,147,-1
 926 124 l 2,148,149
 986 124 986 124 1034 214 c 128,-1,150
 1082 304 1082 304 1082 418 c 2,151,-1
 1082 448 l 1,152,-1
 1082 468 l 1,153,-1
 1076 500 l 2,154,155
 1076 520 1076 520 1060 554 c 1,133,134
EndSplineSet
EndChar

StartChar: tm_pa
Encoding: 2986 2986 72
Width: 1268
GlyphClass: 2
Flags: W
LayerCount: 2
Fore
SplineSet
1184 806 m 2,0,1
 1184 762 1184 762 1188 756 c 1,2,-1
 1188 730 l 1,3,-1
 1188 706 l 1,4,-1
 1188 666 l 1,5,-1
 1186 630 l 1,6,7
 1186 516 1186 516 1156 414 c 128,-1,8
 1126 312 1126 312 1064 196 c 0,9,10
 956 0 956 0 678 0 c 2,11,-1
 398 0 l 2,12,13
 244 0 244 0 160 90 c 128,-1,14
 76 180 76 180 76 314 c 0,15,16
 76 450 76 450 124 580 c 1,17,-1
 172 696 l 2,18,19
 190 734 190 734 197 749 c 128,-1,20
 204 764 204 764 224 794 c 2,21,-1
 274 870 l 2,22,23
 290 894 290 894 318 922 c 0,24,25
 358 964 358 964 374 970 c 1,26,27
 404 970 404 970 426 952 c 0,28,29
 432 946 432 946 438 935 c 128,-1,30
 444 924 444 924 454 898 c 1,31,-1
 452 882 l 1,32,-1
 448 872 l 1,33,-1
 440 856 l 1,34,-1
 430 842 l 1,35,-1
 422 832 l 1,36,-1
 414 824 l 1,37,-1
 380 778 l 1,38,-1
 346 720 l 1,39,-1
 298 624 l 1,40,-1
 258 520 l 1,41,-1
 234 426 l 1,42,-1
 226 380 l 1,43,-1
 224 338 l 1,44,45
 224 252 224 252 266 188 c 1,46,47
 310 132 310 132 398 132 c 2,48,-1
 682 132 l 2,49,50
 848 132 848 132 930 261 c 128,-1,51
 1012 390 1012 390 1034 562 c 1,52,-1
 1036 598 l 1,53,-1
 1038 634 l 1,54,-1
 1036 768 l 1,55,-1
 1034 840 l 1,56,-1
 1032 918 l 1,57,-1
 1032 928 l 2,58,59
 1032 952 1032 952 1040 958 c 2,60,-1
 1062 966 l 1,61,-1
 1080 962 l 1,62,-1
 1102 962 l 2,63,64
 1130 962 1130 962 1152 934 c 1,65,66
 1176 910 1176 910 1182 856 c 2,67,-1
 1184 806 l 2,0,1
EndSplineSet
EndChar

StartChar: tm_ma
Encoding: 2990 2990 73
Width: 1294
GlyphClass: 2
Flags: W
LayerCount: 2
Fore
SplineSet
1078 170 m 1,0,1
 944 0 944 0 720 0 c 2,2,-1
 390 0 l 2,3,4
 236 0 236 0 158 90 c 128,-1,5
 80 180 80 180 80 300 c 1,6,-1
 86 382 l 1,7,-1
 102 468 l 2,8,9
 120 550 120 550 156 636 c 2,10,-1
 188 716 l 1,11,-1
 226 786 l 2,12,13
 248 828 248 828 269 860 c 128,-1,14
 290 892 290 892 308 914 c 0,15,16
 334 950 334 950 364 966 c 1,17,18
 396 966 396 966 414 950 c 0,19,20
 432 938 432 938 438 918 c 2,21,-1
 440 908 l 1,22,-1
 442 898 l 1,23,-1
 440 882 l 1,24,-1
 436 870 l 1,25,-1
 428 856 l 1,26,-1
 418 842 l 1,27,-1
 378 776 l 1,28,-1
 326 670 l 1,29,-1
 298 604 l 1,30,-1
 272 538 l 1,31,-1
 238 424 l 1,32,-1
 228 370 l 1,33,-1
 224 326 l 1,34,35
 224 224 224 224 272 176 c 1,36,37
 326 132 326 132 390 132 c 2,38,-1
 486 132 l 1,39,-1
 598 576 l 2,40,41
 648 780 648 780 728 877 c 128,-1,42
 808 974 808 974 932 974 c 2,43,-1
 940 974 l 1,44,-1
 952 974 l 1,45,-1
 960 972 l 1,46,-1
 970 972 l 2,47,48
 1046 972 1046 972 1136 868 c 1,49,50
 1210 770 1210 770 1210 572 c 0,51,52
 1210 344 1210 344 1078 170 c 1,0,1
1074 560 m 1,53,-1
 1074 570 l 2,54,55
 1074 694 1074 694 1040 778 c 128,-1,56
 1006 862 1006 862 936 862 c 0,57,58
 854 862 854 862 820 798 c 1,59,-1
 756 638 l 1,60,-1
 748 606 l 1,61,-1
 742 576 l 1,62,-1
 638 132 l 1,63,-1
 732 132 l 2,64,65
 860 132 860 132 940 224 c 128,-1,66
 1020 316 1020 316 1062 450 c 1,67,-1
 1070 500 l 1,68,-1
 1074 550 l 1,69,-1
 1074 560 l 1,53,-1
EndSplineSet
EndChar

StartChar: tm_ya
Encoding: 2991 2991 74
Width: 1602
GlyphClass: 2
Flags: W
LayerCount: 2
Fore
SplineSet
1518 842 m 1,0,-1
 1520 820 l 1,1,-1
 1520 798 l 1,2,-1
 1520 774 l 1,3,-1
 1518 680 l 1,4,-1
 1512 586 l 1,5,6
 1490 364 1490 364 1386 182 c 128,-1,7
 1282 0 1282 0 994 0 c 2,8,-1
 844 0 l 2,9,10
 728 0 728 0 658 52 c 0,11,12
 624 80 624 80 599 113 c 128,-1,13
 574 146 574 146 556 190 c 1,14,15
 538 120 538 120 480 68 c 1,16,17
 436 36 436 36 358 6 c 1,18,-1
 326 0 l 1,19,-1
 294 0 l 1,20,-1
 278 0 l 1,21,-1
 264 0 l 1,22,23
 174 12 174 12 126 74 c 1,24,25
 82 146 82 146 82 240 c 2,26,-1
 82 254 l 1,27,-1
 82 266 l 1,28,-1
 84 314 l 1,29,-1
 96 372 l 1,30,-1
 126 484 l 1,31,-1
 180 628 l 1,32,-1
 210 696 l 1,33,-1
 244 760 l 1,34,-1
 302 860 l 1,35,-1
 334 910 l 2,36,37
 376 970 376 970 396 970 c 0,38,39
 432 970 432 970 450 950 c 1,40,41
 468 938 468 938 476 900 c 1,42,-1
 468 878 l 1,43,-1
 452 856 l 1,44,-1
 444 846 l 1,45,-1
 436 834 l 1,46,-1
 366 708 l 1,47,-1
 346 668 l 1,48,-1
 314 598 l 1,49,-1
 268 472 l 1,50,-1
 234 326 l 1,51,-1
 222 266 l 1,52,-1
 220 218 l 2,53,54
 220 184 220 184 238 148 c 1,55,56
 258 128 258 128 300 128 c 0,57,58
 358 128 358 128 418 182 c 1,59,60
 462 232 462 232 498 306 c 1,61,-1
 512 342 l 1,62,-1
 520 378 l 1,63,-1
 524 404 l 1,64,-1
 530 430 l 1,65,-1
 536 472 l 1,66,-1
 552 528 l 2,67,68
 564 570 564 570 588 618 c 2,69,-1
 626 710 l 1,70,-1
 670 792 l 1,71,-1
 710 862 l 1,72,-1
 752 918 l 2,73,74
 784 958 784 958 814 970 c 1,75,76
 842 970 842 970 864 954 c 0,77,78
 886 942 886 942 894 918 c 2,79,-1
 898 908 l 1,80,-1
 900 900 l 1,81,-1
 894 882 l 1,82,-1
 882 864 l 1,83,-1
 878 858 l 1,84,-1
 874 852 l 1,85,-1
 866 842 l 1,86,-1
 858 834 l 1,87,-1
 816 776 l 1,88,-1
 766 686 l 1,89,-1
 730 614 l 1,90,-1
 698 538 l 1,91,-1
 666 436 l 2,92,93
 654 388 654 388 654 346 c 0,94,95
 654 252 654 252 706 190 c 1,96,97
 760 132 760 132 840 132 c 2,98,-1
 1026 132 l 2,99,100
 1204 132 1204 132 1290 286 c 1,101,-1
 1326 364 l 1,102,-1
 1352 456 l 2,103,104
 1364 506 1364 506 1370 560 c 2,105,-1
 1376 680 l 1,106,-1
 1374 724 l 1,107,-1
 1374 762 l 1,108,-1
 1374 824 l 1,109,-1
 1374 914 l 2,110,111
 1374 946 1374 946 1385 958 c 128,-1,112
 1396 970 1396 970 1418 970 c 2,113,-1
 1432 968 l 1,114,-1
 1448 966 l 2,115,116
 1486 960 1486 960 1504 930 c 1,117,118
 1516 898 1516 898 1518 864 c 2,119,-1
 1518 842 l 1,0,-1
EndSplineSet
EndChar

StartChar: tm_ra
Encoding: 2992 2992 75
Width: 1096
GlyphClass: 2
Flags: W
LayerCount: 2
Fore
SplineSet
1064 856 m 2,0,1
 1064 844 1064 844 1046 826 c 1,2,-1
 998 806 l 1,3,-1
 990 804 l 1,4,-1
 972 804 l 1,5,-1
 962 808 l 1,6,-1
 890 830 l 1,7,-1
 856 838 l 1,8,-1
 844 838 l 1,9,-1
 828 838 l 1,10,-1
 820 838 l 1,11,-1
 802 840 l 1,12,-1
 780 840 l 1,13,-1
 752 838 l 1,14,-1
 714 836 l 1,15,-1
 676 830 l 1,16,-1
 650 824 l 1,17,-1
 656 816 l 2,18,19
 682 778 682 778 720 668 c 1,20,-1
 742 574 l 1,21,-1
 760 466 l 1,22,-1
 760 450 l 1,23,-1
 760 436 l 1,24,-1
 760 422 l 2,25,26
 760 176 760 176 638 12 c 128,-1,27
 516 -152 516 -152 284 -302 c 1,28,-1
 252 -324 l 1,29,-1
 220 -344 l 1,30,-1
 212 -348 l 1,31,-1
 204 -352 l 1,32,-1
 194 -352 l 1,33,-1
 186 -354 l 2,34,35
 170 -354 170 -354 156 -342 c 128,-1,36
 142 -330 142 -330 130 -288 c 1,37,-1
 130 -280 l 1,38,-1
 130 -270 l 1,39,-1
 136 -250 l 1,40,-1
 148 -236 l 1,41,42
 272 -158 272 -158 367 -81 c 128,-1,43
 462 -4 462 -4 506 60 c 0,44,45
 594 182 594 182 622 318 c 1,46,-1
 624 368 l 1,47,-1
 626 418 l 1,48,-1
 624 502 l 2,49,50
 624 530 624 530 610 564 c 1,51,-1
 594 630 l 1,52,-1
 576 672 l 1,53,-1
 562 702 l 2,54,55
 556 720 556 720 542 734 c 2,56,-1
 526 756 l 1,57,-1
 472 712 l 2,58,59
 416 668 416 668 352 576 c 2,60,-1
 336 552 l 1,61,-1
 320 526 l 1,62,-1
 286 464 l 1,63,-1
 256 400 l 1,64,65
 226 326 226 326 208 260 c 1,66,-1
 196 200 l 1,67,-1
 192 156 l 1,68,-1
 192 110 l 2,69,70
 192 78 192 78 196 74 c 2,71,-1
 198 48 l 1,72,-1
 200 32 l 2,73,74
 200 18 200 18 196 14 c 2,75,-1
 178 6 l 1,76,-1
 170 4 l 1,77,-1
 164 2 l 1,78,-1
 156 2 l 1,79,-1
 140 4 l 1,80,-1
 124 8 l 1,81,82
 102 18 102 18 82 38 c 128,-1,83
 62 58 62 58 50 108 c 2,84,-1
 48 116 l 1,85,-1
 48 128 l 1,86,-1
 48 136 l 1,87,-1
 48 146 l 1,88,-1
 50 210 l 1,89,-1
 52 238 l 1,90,-1
 64 284 l 1,91,-1
 84 352 l 1,92,-1
 94 386 l 1,93,-1
 112 422 l 1,94,95
 198 626 198 626 378 797 c 128,-1,96
 558 968 558 968 774 968 c 0,97,98
 916 968 916 968 987 937 c 128,-1,99
 1058 906 1058 906 1064 864 c 1,100,-1
 1064 856 l 2,0,1
EndSplineSet
EndChar

StartChar: tm_rra
Encoding: 2993 2993 76
Width: 1398
GlyphClass: 2
Flags: W
LayerCount: 2
Fore
SplineSet
1106 28 m 0,0,1
 1002 -88 1002 -88 885 -179 c 128,-1,2
 768 -270 768 -270 634 -334 c 0,3,4
 568 -368 568 -368 492 -397 c 128,-1,5
 416 -426 416 -426 350 -442 c 2,6,-1
 220 -470 l 1,7,-1
 112 -480 l 2,8,9
 98 -480 98 -480 76 -462 c 1,10,-1
 62 -420 l 1,11,12
 62 -390 62 -390 74 -366 c 0,13,14
 86 -348 86 -348 112 -346 c 2,15,-1
 190 -340 l 1,16,-1
 270 -328 l 2,17,18
 364 -310 364 -310 443 -283 c 128,-1,19
 522 -256 522 -256 601 -212 c 128,-1,20
 680 -168 680 -168 754 -115 c 128,-1,21
 828 -62 828 -62 902 10 c 0,22,23
 1190 284 1190 284 1190 604 c 0,24,25
 1190 726 1190 726 1156 782 c 1,26,27
 1124 844 1124 844 1084 844 c 0,28,29
 1054 844 1054 844 994 801 c 128,-1,30
 934 758 934 758 866 664 c 1,31,-1
 830 604 l 1,32,-1
 790 534 l 1,33,-1
 758 458 l 1,34,-1
 720 366 l 1,35,-1
 640 128 l 1,36,-1
 628 78 l 1,37,-1
 620 36 l 2,38,39
 616 10 616 10 610 -2 c 128,-1,40
 604 -14 604 -14 588 -22 c 1,41,-1
 568 -20 l 1,42,-1
 548 -12 l 2,43,44
 530 -6 530 -6 516 8 c 2,45,-1
 496 34 l 1,46,-1
 492 42 l 1,47,-1
 492 50 l 1,48,-1
 494 74 l 1,49,-1
 508 132 l 1,50,-1
 548 274 l 1,51,-1
 560 310 l 1,52,-1
 572 348 l 1,53,-1
 578 370 l 1,54,-1
 586 390 l 1,55,-1
 618 514 l 1,56,-1
 628 626 l 1,57,-1
 628 634 l 1,58,-1
 628 644 l 2,59,60
 628 728 628 728 608 786 c 1,61,62
 592 846 592 846 572 846 c 256,63,64
 552 846 552 846 494 786 c 0,65,66
 440 726 440 726 374 612 c 1,67,-1
 320 508 l 1,68,-1
 266 386 l 1,69,70
 218 252 218 252 188 106 c 1,71,-1
 182 66 l 2,72,73
 182 46 182 46 172 26 c 0,74,75
 166 8 166 8 140 -6 c 1,76,-1
 122 -2 l 2,77,78
 102 2 102 2 96 8 c 2,79,-1
 72 32 l 1,80,-1
 52 80 l 1,81,82
 52 126 52 126 88 252 c 1,83,-1
 130 374 l 1,84,-1
 184 502 l 2,85,86
 220 578 220 578 266 657 c 128,-1,87
 312 736 312 736 362 804 c 0,88,89
 462 938 462 938 576 964 c 1,90,-1
 594 966 l 1,91,-1
 614 968 l 1,92,-1
 624 966 l 2,93,94
 656 960 656 960 678 920 c 2,95,-1
 698 882 l 1,96,-1
 720 812 l 2,97,98
 726 790 726 790 730 774 c 0,99,100
 732 752 732 752 736 732 c 2,101,-1
 740 680 l 1,102,-1
 770 728 l 1,103,-1
 830 806 l 2,104,105
 870 858 870 858 932 898 c 0,106,107
 966 922 966 922 1022 946 c 0,108,109
 1048 956 1048 956 1068 961 c 128,-1,110
 1088 966 1088 966 1110 968 c 0,111,112
 1190 968 1190 968 1256 876 c 128,-1,113
 1322 784 1322 784 1322 604 c 0,114,115
 1322 268 1322 268 1106 28 c 0,0,1
EndSplineSet
EndChar

StartChar: tm_la
Encoding: 2994 2994 77
Width: 1526
GlyphClass: 2
Flags: W
LayerCount: 2
Fore
SplineSet
1316 184 m 0,0,1
 1178 0 1178 0 982 0 c 0,2,3
 870 0 870 0 806 70 c 1,4,5
 746 142 746 142 746 262 c 0,6,7
 746 296 746 296 758 344 c 1,8,-1
 784 414 l 1,9,-1
 812 488 l 1,10,-1
 822 530 l 1,11,-1
 826 576 l 1,12,13
 826 692 826 692 753 773 c 128,-1,14
 680 854 680 854 578 854 c 0,15,16
 464 854 464 854 370 764 c 128,-1,17
 276 674 276 674 228 550 c 1,18,19
 252 578 252 578 280 586 c 2,20,-1
 336 600 l 1,21,-1
 356 600 l 1,22,-1
 380 600 l 1,23,-1
 390 600 l 2,24,25
 458 600 458 600 526 520 c 1,26,27
 552 482 552 482 568 432 c 0,28,29
 574 406 574 406 578 380 c 128,-1,30
 582 354 582 354 582 322 c 0,31,32
 582 188 582 188 500 93 c 128,-1,33
 418 -2 418 -2 300 -2 c 0,34,35
 206 -2 206 -2 135 88 c 128,-1,36
 64 178 64 178 64 310 c 0,37,38
 64 376 64 376 68 384 c 1,39,40
 68 432 68 432 78 458 c 1,41,42
 114 646 114 646 240 808 c 128,-1,43
 366 970 366 970 586 970 c 0,44,45
 754 970 754 970 855 861 c 128,-1,46
 956 752 956 752 956 600 c 1,47,-1
 954 540 l 2,48,49
 954 512 954 512 946 494 c 2,50,-1
 932 438 l 1,51,-1
 916 400 l 1,52,-1
 904 370 l 1,53,-1
 892 342 l 1,54,-1
 880 304 l 1,55,-1
 876 262 l 1,56,57
 876 200 876 200 899 165 c 128,-1,58
 922 130 922 130 982 130 c 0,59,60
 1108 130 1108 130 1198 242 c 128,-1,61
 1288 354 1288 354 1318 504 c 1,62,-1
 1324 550 l 1,63,-1
 1326 596 l 1,64,-1
 1326 604 l 1,65,-1
 1324 670 l 2,66,67
 1324 696 1324 696 1316 712 c 1,68,69
 1310 760 1310 760 1298 790 c 2,70,-1
 1278 846 l 1,71,-1
 1270 892 l 1,72,73
 1270 926 1270 926 1293 946 c 128,-1,74
 1316 966 1316 966 1350 966 c 1,75,76
 1390 960 1390 960 1424 866 c 0,77,78
 1440 818 1440 818 1448 756 c 1,79,-1
 1456 604 l 1,80,81
 1456 372 1456 372 1316 184 c 0,0,1
454 322 m 1,82,-1
 452 340 l 1,83,84
 452 396 452 396 424 439 c 128,-1,85
 396 482 396 482 340 482 c 0,86,87
 278 482 278 482 236 438 c 0,88,89
 200 396 200 396 192 344 c 0,90,91
 192 330 192 330 188 322 c 1,92,-1
 188 302 l 2,93,94
 188 226 188 226 217 178 c 128,-1,95
 246 130 246 130 300 124 c 1,96,-1
 312 124 l 2,97,98
 364 124 364 124 416 178 c 1,99,100
 454 248 454 248 454 306 c 2,101,-1
 454 322 l 1,82,-1
EndSplineSet
EndChar

StartChar: tm_lla
Encoding: 2995 2995 78
Width: 1778
GlyphClass: 2
Flags: W
LayerCount: 2
Fore
SplineSet
1742 856 m 2,0,1
 1742 840 1742 840 1720 824 c 1,2,-1
 1670 804 l 1,3,-1
 1660 804 l 1,4,-1
 1650 806 l 1,5,-1
 1638 808 l 1,6,-1
 1570 828 l 1,7,-1
 1540 838 l 1,8,-1
 1530 838 l 1,9,-1
 1520 840 l 1,10,-1
 1498 840 l 1,11,-1
 1462 844 l 1,12,-1
 1428 842 l 1,13,-1
 1394 838 l 1,14,-1
 1356 832 l 1,15,-1
 1328 824 l 1,16,17
 1370 784 1370 784 1407 669 c 128,-1,18
 1444 554 1444 554 1444 452 c 2,19,-1
 1444 442 l 1,20,-1
 1444 434 l 1,21,-1
 1444 426 l 1,22,-1
 1444 418 l 1,23,-1
 1444 410 l 1,24,-1
 1440 364 l 2,25,26
 1440 338 1440 338 1432 316 c 1,27,28
 1420 234 1420 234 1396 169 c 128,-1,29
 1372 104 1372 104 1344 58 c 1,30,-1
 1310 14 l 1,31,-1
 1280 -2 l 1,32,-1
 1268 0 l 1,33,-1
 1258 2 l 1,34,-1
 1226 26 l 1,35,36
 1214 44 1214 44 1208 80 c 1,37,-1
 1210 92 l 1,38,-1
 1222 118 l 1,39,-1
 1254 190 l 1,40,-1
 1286 288 l 1,41,-1
 1298 350 l 1,42,-1
 1302 418 l 1,43,-1
 1300 502 l 2,44,45
 1300 534 1300 534 1286 564 c 1,46,-1
 1256 668 l 1,47,-1
 1242 702 l 2,48,49
 1236 720 1236 720 1222 734 c 1,50,-1
 1208 756 l 1,51,-1
 1154 714 l 1,52,-1
 1100 660 l 1,53,-1
 1038 586 l 1,54,-1
 1018 556 l 1,55,-1
 998 526 l 1,56,-1
 964 464 l 1,57,-1
 934 400 l 1,58,-1
 904 324 l 1,59,-1
 886 260 l 1,60,-1
 874 200 l 1,61,-1
 870 156 l 1,62,-1
 870 110 l 2,63,64
 870 78 870 78 874 74 c 2,65,-1
 876 48 l 1,66,-1
 878 32 l 2,67,68
 878 18 878 18 874 14 c 2,69,-1
 856 6 l 1,70,-1
 848 4 l 1,71,-1
 842 2 l 1,72,-1
 834 2 l 1,73,-1
 818 4 l 1,74,-1
 802 8 l 1,75,76
 778 20 778 20 759 39 c 128,-1,77
 740 58 740 58 728 108 c 1,78,-1
 726 126 l 1,79,-1
 726 146 l 1,80,-1
 728 212 l 1,81,-1
 734 256 l 1,82,-1
 744 294 l 2,83,84
 756 352 756 352 792 426 c 2,85,-1
 832 512 l 1,86,-1
 884 596 l 1,87,88
 884 616 884 616 870 646 c 2,89,-1
 856 676 l 1,90,-1
 836 714 l 1,91,92
 806 762 806 762 744 806 c 128,-1,93
 682 850 682 850 596 850 c 0,94,95
 482 850 482 850 380 772 c 128,-1,96
 278 694 278 694 230 530 c 1,97,-1
 242 542 l 1,98,-1
 256 554 l 1,99,-1
 300 582 l 2,100,101
 324 594 324 594 364 594 c 2,102,-1
 380 594 l 1,103,-1
 400 592 l 1,104,-1
 412 590 l 2,105,106
 478 578 478 578 540 498 c 0,107,108
 600 426 600 426 600 308 c 0,109,110
 600 182 600 182 524 90 c 128,-1,111
 448 -2 448 -2 316 -2 c 0,112,113
 228 -2 228 -2 150 94 c 1,114,115
 80 190 80 190 80 366 c 2,116,-1
 80 406 l 2,117,118
 80 436 80 436 84 444 c 2,119,-1
 90 486 l 1,120,-1
 100 520 l 1,121,122
 142 684 142 684 269 825 c 128,-1,123
 396 966 396 966 604 966 c 0,124,125
 718 966 718 966 778 926 c 1,126,127
 812 910 812 910 837 892 c 128,-1,128
 862 874 862 874 894 842 c 0,129,130
 934 796 934 796 956 754 c 2,131,-1
 976 716 l 1,132,133
 1022 772 1022 772 1073 816 c 128,-1,134
 1124 860 1124 860 1188 896 c 0,135,136
 1320 968 1320 968 1452 968 c 0,137,138
 1592 968 1592 968 1663 937 c 128,-1,139
 1734 906 1734 906 1742 864 c 1,140,-1
 1742 856 l 2,0,1
476 310 m 1,141,-1
 476 320 l 2,142,143
 476 372 476 372 442 424 c 0,144,145
 414 472 414 472 366 478 c 1,146,-1
 354 478 l 1,147,-1
 328 474 l 2,148,149
 314 474 314 474 304 466 c 0,150,151
 280 456 280 456 240 410 c 0,152,153
 228 394 228 394 206 316 c 1,154,-1
 206 308 l 1,155,-1
 204 294 l 1,156,157
 204 234 204 234 228 186 c 1,158,159
 252 152 252 152 286 128 c 1,160,-1
 300 124 l 1,161,-1
 316 122 l 1,162,163
 388 122 388 122 432 174 c 0,164,165
 452 200 452 200 464 235 c 128,-1,166
 476 270 476 270 476 302 c 2,167,-1
 476 310 l 1,141,-1
EndSplineSet
EndChar

StartChar: tm_llla
Encoding: 2996 2996 79
Width: 1336
GlyphClass: 2
Flags: W
LayerCount: 2
Fore
SplineSet
1116 170 m 1,0,1
 982 0 982 0 760 0 c 2,2,-1
 660 0 l 1,3,-1
 666 -28 l 1,4,-1
 698 -68 l 2,5,6
 706 -78 706 -78 738 -88 c 2,7,-1
 788 -100 l 1,8,-1
 822 -102 l 1,9,-1
 854 -104 l 1,10,-1
 1040 -106 l 2,11,12
 1076 -106 1076 -106 1084 -120 c 1,13,-1
 1092 -164 l 1,14,-1
 1090 -172 l 1,15,-1
 1090 -180 l 1,16,-1
 1064 -212 l 2,17,18
 1046 -230 1046 -230 1006 -236 c 1,19,-1
 790 -238 l 1,20,21
 734 -366 734 -366 614 -424 c 1,22,23
 550 -450 550 -450 490 -466 c 1,24,-1
 426 -476 l 1,25,-1
 358 -480 l 1,26,27
 200 -480 200 -480 101 -415 c 128,-1,28
 2 -350 2 -350 2 -242 c 2,29,-1
 2 -234 l 1,30,-1
 2 -226 l 2,31,32
 2 -166 2 -166 44 -118 c 0,33,34
 72 -92 72 -92 128 -68 c 1,35,-1
 134 -66 l 1,36,-1
 142 -66 l 1,37,-1
 150 -66 l 2,38,39
 182 -66 182 -66 192 -76 c 2,40,-1
 212 -100 l 1,41,-1
 216 -110 l 1,42,-1
 218 -120 l 1,43,-1
 216 -128 l 1,44,-1
 210 -134 l 1,45,46
 202 -136 202 -136 152 -170 c 0,47,48
 148 -174 148 -174 130 -236 c 1,49,50
 130 -286 130 -286 180 -324 c 128,-1,51
 230 -362 230 -362 342 -362 c 0,52,53
 456 -362 456 -362 514 -334 c 1,54,55
 580 -310 580 -310 612 -278 c 128,-1,56
 644 -246 644 -246 660 -214 c 2,57,-1
 670 -188 l 1,58,-1
 646 -176 l 1,59,-1
 592 -140 l 1,60,-1
 572 -120 l 1,61,-1
 552 -98 l 1,62,-1
 514 -30 l 1,63,-1
 506 0 l 1,64,-1
 430 0 l 2,65,66
 276 0 276 0 194 88 c 1,67,68
 118 180 118 180 118 300 c 1,69,-1
 124 382 l 1,70,-1
 140 468 l 2,71,72
 152 530 152 530 194 634 c 2,73,-1
 226 714 l 1,74,-1
 262 782 l 1,75,-1
 294 840 l 1,76,-1
 346 916 l 2,77,78
 382 964 382 964 402 966 c 0,79,80
 434 966 434 966 452 950 c 0,81,82
 470 938 470 938 478 918 c 2,83,-1
 480 908 l 1,84,-1
 482 898 l 1,85,-1
 480 882 l 1,86,-1
 474 870 l 1,87,-1
 466 856 l 1,88,-1
 456 842 l 1,89,-1
 418 776 l 1,90,-1
 364 666 l 1,91,-1
 336 604 l 1,92,-1
 310 538 l 1,93,-1
 276 424 l 1,94,-1
 266 370 l 1,95,-1
 262 326 l 1,96,97
 262 222 262 222 311 177 c 128,-1,98
 360 132 360 132 430 132 c 2,99,-1
 524 132 l 1,100,-1
 636 576 l 2,101,102
 662 682 662 682 692 755 c 128,-1,103
 722 828 722 828 764 878 c 0,104,105
 844 974 844 974 972 974 c 2,106,-1
 980 974 l 1,107,-1
 992 974 l 1,108,-1
 1000 972 l 1,109,-1
 1010 972 l 2,110,111
 1094 972 1094 972 1171 872 c 128,-1,112
 1248 772 1248 772 1248 572 c 0,113,114
 1248 348 1248 348 1116 170 c 1,0,1
1112 560 m 1,115,-1
 1112 570 l 2,116,117
 1112 590 1112 590 1111 615 c 128,-1,118
 1110 640 1110 640 1105 676 c 128,-1,119
 1100 712 1100 712 1095 732 c 128,-1,120
 1090 752 1090 752 1078 774 c 0,121,122
 1044 862 1044 862 974 862 c 0,123,124
 892 862 892 862 858 798 c 1,125,-1
 794 638 l 1,126,-1
 786 606 l 1,127,-1
 780 576 l 1,128,-1
 678 132 l 1,129,-1
 770 132 l 2,130,131
 900 132 900 132 982 226 c 0,132,133
 992 238 992 238 1012 265 c 128,-1,134
 1032 292 1032 292 1052 326 c 0,135,136
 1080 382 1080 382 1100 450 c 1,137,-1
 1108 500 l 1,138,-1
 1112 550 l 1,139,-1
 1112 560 l 1,115,-1
EndSplineSet
EndChar

StartChar: tm_va
Encoding: 2997 2997 80
Width: 1606
GlyphClass: 2
Flags: W
LayerCount: 2
Fore
SplineSet
1534 726 m 1,0,-1
 1532 658 l 1,1,-1
 1532 626 l 1,2,-1
 1524 588 l 1,3,4
 1524 480 1524 480 1494 386 c 128,-1,5
 1464 292 1464 292 1400 184 c 0,6,7
 1298 0 1298 0 1020 0 c 2,8,-1
 792 0 l 2,9,10
 724 0 724 0 684 18 c 1,11,12
 652 38 652 38 652 76 c 0,13,14
 652 102 652 102 662 120 c 1,15,-1
 716 178 l 1,16,17
 798 248 798 248 838 340 c 0,18,19
 848 366 848 366 855 391 c 128,-1,20
 862 416 862 416 868 445 c 128,-1,21
 874 474 874 474 875 493 c 128,-1,22
 876 512 876 512 876 524 c 0,23,24
 876 648 876 648 793 745 c 128,-1,25
 710 842 710 842 574 842 c 0,26,27
 458 842 458 842 364 756 c 0,28,29
 278 676 278 676 232 554 c 1,30,-1
 262 580 l 1,31,-1
 294 594 l 1,32,-1
 334 602 l 1,33,-1
 376 604 l 1,34,-1
 386 604 l 2,35,36
 454 604 454 604 518 516 c 1,37,38
 586 432 586 432 586 318 c 2,39,-1
 586 302 l 1,40,-1
 586 286 l 2,41,42
 586 194 586 194 514 88 c 0,43,44
 454 0 454 0 302 0 c 0,45,46
 206 0 206 0 132 94 c 1,47,48
 64 190 64 190 64 366 c 2,49,-1
 64 406 l 2,50,51
 64 436 64 436 68 444 c 2,52,-1
 74 486 l 1,53,-1
 84 520 l 1,54,55
 126 688 126 688 253 827 c 128,-1,56
 380 966 380 966 586 966 c 0,57,58
 778 966 778 966 899 837 c 128,-1,59
 1020 708 1020 708 1020 520 c 0,60,61
 1020 392 1020 392 972 290 c 0,62,63
 946 236 946 236 917 199 c 128,-1,64
 888 162 888 162 844 132 c 1,65,-1
 1034 132 l 2,66,67
 1168 132 1168 132 1252 214 c 0,68,69
 1294 256 1294 256 1324 324 c 128,-1,70
 1354 392 1354 392 1376 498 c 1,71,-1
 1392 594 l 1,72,-1
 1398 672 l 1,73,-1
 1400 826 l 1,74,-1
 1400 848 l 1,75,-1
 1400 872 l 1,76,-1
 1400 888 l 1,77,-1
 1400 904 l 1,78,-1
 1398 916 l 1,79,-1
 1398 928 l 1,80,-1
 1404 952 l 1,81,-1
 1428 960 l 1,82,-1
 1446 956 l 1,83,-1
 1470 950 l 1,84,85
 1498 938 1498 938 1512 916 c 1,86,87
 1530 898 1530 898 1536 860 c 1,88,-1
 1534 726 l 1,0,-1
454 322 m 1,89,-1
 452 338 l 2,90,91
 446 394 446 394 418 436 c 0,92,93
 402 464 402 464 336 482 c 1,94,95
 290 482 290 482 248 446 c 1,96,97
 218 412 218 412 200 360 c 1,98,-1
 194 332 l 1,99,-1
 192 306 l 1,100,101
 192 232 192 232 220 180 c 128,-1,102
 248 128 248 128 310 128 c 0,103,104
 394 128 394 128 424 182 c 128,-1,105
 454 236 454 236 454 306 c 2,106,-1
 454 322 l 1,89,-1
EndSplineSet
EndChar

StartChar: tm_ssa
Encoding: 2999 2999 81
Width: 2022
GlyphClass: 2
Flags: W
LayerCount: 2
Fore
SplineSet
1892 42 m 1,0,1
 1814 0 1814 0 1678 0 c 2,2,-1
 1514 0 l 1,3,-1
 1478 -58 l 1,4,-1
 1436 -124 l 1,5,-1
 1392 -184 l 1,6,-1
 1348 -240 l 1,7,-1
 1268 -322 l 2,8,9
 1250 -340 1250 -340 1200 -362 c 1,10,-1
 1190 -362 l 2,11,12
 1172 -362 1172 -362 1144 -336 c 1,13,-1
 1136 -318 l 1,14,-1
 1128 -278 l 1,15,-1
 1140 -252 l 1,16,-1
 1164 -226 l 1,17,-1
 1246 -146 l 1,18,-1
 1270 -120 l 1,19,-1
 1294 -92 l 1,20,-1
 1330 -44 l 1,21,-1
 1356 0 l 1,22,-1
 760 0 l 1,23,-1
 692 2 l 2,24,25
 672 6 672 6 656 16 c 0,26,27
 634 34 634 34 634 68 c 2,28,-1
 634 82 l 1,29,-1
 638 94 l 2,30,31
 640 100 640 100 641 104 c 128,-1,32
 642 108 642 108 652 120 c 2,33,-1
 692 164 l 1,34,-1
 758 236 l 1,35,-1
 810 308 l 1,36,-1
 854 412 l 1,37,-1
 864 468 l 1,38,-1
 868 526 l 1,39,-1
 868 538 l 1,40,-1
 868 550 l 1,41,-1
 866 560 l 1,42,-1
 866 572 l 2,43,44
 866 620 866 620 842 674 c 0,45,46
 824 722 824 722 776 770 c 0,47,48
 694 856 694 856 560 856 c 0,49,50
 448 856 448 856 352 766 c 0,51,52
 308 720 308 720 274 667 c 128,-1,53
 240 614 240 614 214 550 c 1,54,55
 222 560 222 560 260 584 c 1,56,-1
 308 598 l 1,57,-1
 338 600 l 1,58,-1
 370 600 l 1,59,-1
 380 600 l 2,60,61
 454 600 454 600 514 519 c 128,-1,62
 574 438 574 438 574 314 c 0,63,64
 574 182 574 182 494 90 c 0,65,66
 460 50 460 50 404 24 c 128,-1,67
 348 -2 348 -2 286 -2 c 0,68,69
 204 -2 204 -2 120 88 c 1,70,71
 50 180 50 180 50 338 c 1,72,-1
 56 426 l 2,73,74
 62 482 62 482 76 518 c 1,75,76
 118 684 118 684 244 827 c 128,-1,77
 370 970 370 970 578 970 c 0,78,79
 766 970 766 970 878 850 c 0,80,81
 926 796 926 796 962 718 c 1,82,83
 994 638 994 638 994 576 c 2,84,-1
 994 566 l 1,85,-1
 996 558 l 1,86,-1
 996 548 l 1,87,-1
 996 540 l 2,88,89
 996 434 996 434 956 342 c 0,90,91
 936 294 936 294 908 246 c 0,92,93
 874 190 874 190 828 132 c 1,94,-1
 1438 132 l 1,95,-1
 1496 242 l 1,96,-1
 1478 242 l 1,97,-1
 1408 246 l 1,98,-1
 1362 254 l 1,99,-1
 1312 272 l 2,100,101
 1284 282 1284 282 1250 305 c 128,-1,102
 1216 328 1216 328 1186 362 c 0,103,104
 1128 430 1128 430 1128 550 c 1,105,-1
 1130 590 l 1,106,-1
 1140 630 l 2,107,108
 1162 704 1162 704 1235 778 c 128,-1,109
 1308 852 1308 852 1420 852 c 0,110,111
 1524 852 1524 852 1611 779 c 128,-1,112
 1698 706 1698 706 1698 544 c 1,113,-1
 1696 508 l 2,114,115
 1696 476 1696 476 1692 472 c 2,116,-1
 1686 444 l 1,117,-1
 1682 418 l 1,118,-1
 1670 366 l 1,119,-1
 1666 346 l 1,120,-1
 1672 348 l 1,121,-1
 1698 356 l 1,122,-1
 1740 362 l 1,123,-1
 1806 366 l 1,124,125
 1892 366 1892 366 1932 307 c 128,-1,126
 1972 248 1972 248 1972 182 c 0,127,128
 1972 90 1972 90 1892 42 c 1,0,1
444 326 m 1,129,-1
 442 344 l 2,130,131
 436 398 436 398 410 442 c 128,-1,132
 384 486 384 486 334 486 c 0,133,134
 278 486 278 486 238 450 c 1,135,136
 208 414 208 414 188 368 c 1,137,-1
 180 332 l 1,138,-1
 178 300 l 1,139,140
 178 232 178 232 205 180 c 128,-1,141
 232 128 232 128 286 128 c 0,142,143
 368 128 368 128 406 180 c 1,144,145
 444 250 444 250 444 310 c 2,146,-1
 444 326 l 1,129,-1
1858 186 m 1,147,-1
 1858 196 l 2,148,149
 1858 220 1858 220 1839 241 c 128,-1,150
 1820 262 1820 262 1782 262 c 0,151,152
 1726 262 1726 262 1718 258 c 2,153,-1
 1672 250 l 1,154,-1
 1642 242 l 1,155,-1
 1634 238 l 1,156,-1
 1626 220 l 1,157,-1
 1610 180 l 1,158,-1
 1606 176 l 1,159,-1
 1594 150 l 1,160,-1
 1586 132 l 1,161,-1
 1650 132 l 1,162,-1
 1672 132 l 1,163,-1
 1792 138 l 2,164,165
 1838 144 1838 144 1856 178 c 1,166,-1
 1858 186 l 1,147,-1
1534 674 m 0,167,168
 1504 732 1504 732 1416 732 c 0,169,170
 1358 732 1358 732 1300 678 c 1,171,172
 1260 626 1260 626 1252 560 c 1,173,-1
 1252 550 l 1,174,-1
 1252 540 l 1,175,-1
 1252 532 l 1,176,-1
 1252 520 l 1,177,-1
 1254 512 l 1,178,179
 1260 446 1260 446 1316 390 c 1,180,181
 1378 338 1378 338 1502 338 c 2,182,-1
 1514 338 l 1,183,-1
 1530 338 l 1,184,-1
 1536 358 l 1,185,-1
 1548 412 l 1,186,-1
 1552 438 l 1,187,-1
 1558 466 l 1,188,-1
 1564 506 l 1,189,-1
 1566 542 l 1,190,191
 1566 616 1566 616 1534 674 c 0,167,168
EndSplineSet
EndChar

StartChar: tm_sa
Encoding: 3000 3000 82
Width: 2052
GlyphClass: 2
Flags: W
LayerCount: 2
Fore
SplineSet
1844 182 m 0,0,1
 1706 -2 1706 -2 1510 -2 c 0,2,3
 1410 -2 1410 -2 1332 70 c 1,4,5
 1272 142 1272 142 1272 262 c 0,6,7
 1272 322 1272 322 1280 352 c 2,8,-1
 1304 430 l 1,9,-1
 1308 450 l 1,10,-1
 1316 470 l 1,11,-1
 1344 564 l 1,12,-1
 1352 616 l 1,13,-1
 1360 680 l 1,14,-1
 1360 692 l 1,15,-1
 1360 704 l 2,16,17
 1360 772 1360 772 1346 802 c 0,18,19
 1334 836 1334 836 1312 838 c 0,20,21
 1290 838 1290 838 1206 778 c 0,22,23
 1190 766 1190 766 1148 718 c 2,24,-1
 1064 610 l 1,25,-1
 996 500 l 1,26,-1
 934 368 l 1,27,-1
 916 330 l 1,28,-1
 878 240 l 1,29,-1
 870 226 l 1,30,-1
 866 212 l 1,31,-1
 848 168 l 1,32,-1
 834 128 l 1,33,-1
 826 106 l 1,34,35
 826 90 826 90 822 84 c 0,36,37
 812 40 812 40 800 20 c 1,38,39
 794 -4 794 -4 762 -6 c 1,40,-1
 742 -4 l 1,41,-1
 730 0 l 1,42,-1
 696 24 l 1,43,-1
 676 68 l 1,44,45
 676 94 676 94 684 110 c 2,46,-1
 700 156 l 1,47,-1
 728 236 l 1,48,-1
 762 322 l 1,49,-1
 816 440 l 1,50,-1
 878 546 l 1,51,52
 860 674 860 674 775 764 c 128,-1,53
 690 854 690 854 558 854 c 0,54,55
 438 854 438 854 351 768 c 128,-1,56
 264 682 264 682 212 566 c 1,57,-1
 204 546 l 1,58,-1
 198 526 l 1,59,60
 220 560 220 560 242 574 c 2,61,-1
 290 596 l 1,62,-1
 324 600 l 1,63,-1
 358 602 l 1,64,-1
 366 602 l 2,65,66
 428 602 428 602 497 523 c 128,-1,67
 566 444 566 444 566 328 c 1,68,-1
 564 304 l 1,69,-1
 564 280 l 2,70,71
 564 228 564 228 544 182 c 128,-1,72
 524 136 524 136 488 86 c 0,73,74
 422 -2 422 -2 280 -2 c 0,75,76
 194 -2 194 -2 124 95 c 128,-1,77
 54 192 54 192 54 366 c 1,78,-1
 56 414 l 1,79,-1
 56 446 l 1,80,-1
 64 468 l 1,81,-1
 74 514 l 1,82,-1
 96 582 l 1,83,84
 148 724 148 724 270 846 c 128,-1,85
 392 968 392 968 566 968 c 0,86,87
 718 968 718 968 820 885 c 128,-1,88
 922 802 922 802 966 688 c 1,89,90
 1062 826 1062 826 1162 900 c 1,91,92
 1262 966 1262 966 1328 966 c 0,93,94
 1392 966 1392 966 1450 900 c 0,95,96
 1466 878 1466 878 1480 820 c 0,97,98
 1488 792 1488 792 1492 766 c 128,-1,99
 1496 740 1496 740 1496 704 c 0,100,101
 1496 610 1496 610 1483 548 c 128,-1,102
 1470 486 1470 486 1450 440 c 2,103,-1
 1432 392 l 1,104,-1
 1418 348 l 1,105,-1
 1408 306 l 1,106,-1
 1404 262 l 1,107,108
 1404 208 1404 208 1428 166 c 0,109,110
 1454 128 1454 128 1510 128 c 0,111,112
 1624 128 1624 128 1714 240 c 128,-1,113
 1804 352 1804 352 1840 502 c 1,114,-1
 1846 554 l 1,115,-1
 1850 604 l 1,116,117
 1850 670 1850 670 1844 710 c 2,118,-1
 1836 760 l 1,119,120
 1836 786 1836 786 1826 802 c 1,121,-1
 1818 832 l 1,122,-1
 1810 852 l 1,123,-1
 1802 892 l 2,124,125
 1802 910 1802 910 1826 938 c 128,-1,126
 1850 966 1850 966 1886 966 c 0,127,128
 1918 966 1918 966 1952 872 c 0,129,130
 1968 824 1968 824 1976 758 c 1,131,-1
 1984 604 l 1,132,133
 1984 370 1984 370 1844 182 c 0,0,1
430 324 m 1,134,-1
 430 340 l 1,135,136
 424 392 424 392 394 437 c 128,-1,137
 364 482 364 482 312 482 c 0,138,139
 254 482 254 482 222 444 c 128,-1,140
 190 406 190 406 172 340 c 1,141,-1
 170 322 l 1,142,-1
 170 306 l 2,143,144
 170 234 170 234 202 176 c 0,145,146
 236 122 236 122 290 122 c 0,147,148
 342 122 342 122 394 176 c 1,149,150
 432 246 432 246 432 308 c 1,151,-1
 430 324 l 1,134,-1
EndSplineSet
EndChar

StartChar: tm_ha
Encoding: 3001 3001 83
Width: 2572
GlyphClass: 2
Flags: W
LayerCount: 2
Fore
SplineSet
2314 44 m 0,0,1
 2150 -132 2150 -132 1938 -204 c 1,2,-1
 1754 -248 l 1,3,4
 1664 -260 1664 -260 1588 -260 c 2,5,-1
 1032 -262 l 2,6,7
 826 -262 826 -262 695 -280 c 128,-1,8
 564 -298 564 -298 422 -422 c 1,9,-1
 390 -448 l 1,10,-1
 362 -478 l 1,11,-1
 348 -486 l 1,12,-1
 330 -490 l 1,13,-1
 322 -490 l 1,14,-1
 316 -488 l 1,15,16
 300 -488 300 -488 280 -470 c 128,-1,17
 260 -452 260 -452 248 -416 c 1,18,-1
 250 -410 l 1,19,-1
 254 -396 l 1,20,21
 314 -330 314 -330 390 -280 c 0,22,23
 426 -258 426 -258 474 -235 c 128,-1,24
 522 -212 522 -212 570 -196 c 0,25,26
 660 -172 660 -172 782 -148 c 1,27,-1
 902 -134 l 1,28,-1
 1032 -128 l 1,29,-1
 1592 -130 l 2,30,31
 1928 -130 1928 -130 2132 54 c 128,-1,32
 2336 238 2336 238 2370 598 c 1,33,-1
 2372 624 l 1,34,-1
 2372 650 l 2,35,36
 2372 744 2372 744 2346 794 c 128,-1,37
 2320 844 2320 844 2284 844 c 0,38,39
 2252 844 2252 844 2200 810 c 1,40,41
 2150 784 2150 784 2086 714 c 1,42,-1
 2034 650 l 1,43,-1
 1980 570 l 1,44,45
 1944 502 1944 502 1900 376 c 1,46,-1
 1834 134 l 1,47,-1
 1822 92 l 1,48,-1
 1812 54 l 1,49,-1
 1794 10 l 2,50,51
 1788 -2 1788 -2 1768 -10 c 1,52,-1
 1746 -8 l 1,53,-1
 1730 -2 l 1,54,-1
 1698 16 l 1,55,56
 1686 30 1686 30 1680 44 c 2,57,-1
 1678 56 l 1,58,-1
 1698 136 l 1,59,-1
 1736 270 l 2,60,61
 1736 284 1736 284 1740 292 c 1,62,-1
 1740 300 l 1,63,-1
 1744 306 l 1,64,-1
 1756 348 l 1,65,-1
 1766 390 l 1,66,-1
 1794 526 l 1,67,-1
 1808 644 l 1,68,-1
 1808 662 l 1,69,-1
 1812 678 l 1,70,71
 1812 720 1812 720 1816 726 c 2,72,-1
 1818 766 l 2,73,74
 1818 788 1818 788 1806 818 c 0,75,76
 1800 842 1800 842 1768 844 c 1,77,-1
 1758 846 l 1,78,-1
 1748 846 l 2,79,80
 1678 846 1678 846 1602 744 c 1,81,82
 1554 662 1554 662 1492 412 c 1,83,-1
 1468 330 l 1,84,-1
 1450 276 l 1,85,-1
 1438 250 l 2,86,87
 1434 238 1434 238 1422 222 c 0,88,89
 1380 138 1380 138 1299 69 c 128,-1,90
 1218 0 1218 0 1098 0 c 2,91,-1
 764 0 l 2,92,93
 690 0 690 0 669 11 c 128,-1,94
 648 22 648 22 638 64 c 1,95,-1
 638 72 l 1,96,-1
 638 82 l 1,97,-1
 642 94 l 2,98,99
 644 100 644 100 645 104 c 128,-1,100
 646 108 646 108 656 120 c 2,101,-1
 696 164 l 1,102,-1
 768 244 l 1,103,-1
 796 282 l 1,104,-1
 820 324 l 2,105,106
 832 344 832 344 858 420 c 1,107,-1
 868 482 l 1,108,-1
 872 532 l 1,109,-1
 872 552 l 1,110,-1
 870 572 l 1,111,112
 870 638 870 638 848 674 c 1,113,114
 830 716 830 716 782 770 c 0,115,116
 702 856 702 856 568 856 c 0,117,118
 468 856 468 856 354 760 c 1,119,120
 280 686 280 686 218 550 c 1,121,122
 226 560 226 560 264 584 c 1,123,-1
 312 598 l 1,124,-1
 342 600 l 1,125,-1
 374 600 l 1,126,-1
 384 600 l 2,127,128
 458 600 458 600 518 519 c 128,-1,129
 578 438 578 438 578 314 c 0,130,131
 578 182 578 182 498 90 c 0,132,133
 464 50 464 50 408 24 c 128,-1,134
 352 -2 352 -2 290 -2 c 0,135,136
 208 -2 208 -2 124 88 c 1,137,138
 54 180 54 180 54 338 c 1,139,-1
 60 426 l 2,140,141
 66 482 66 482 80 518 c 1,142,143
 122 684 122 684 248 827 c 128,-1,144
 374 970 374 970 582 970 c 0,145,146
 770 970 770 970 882 850 c 0,147,148
 930 796 930 796 966 718 c 1,149,150
 998 638 998 638 998 576 c 2,151,-1
 998 564 l 1,152,-1
 1000 554 l 1,153,-1
 1000 542 l 1,154,-1
 1000 532 l 2,155,156
 1000 432 1000 432 978 382 c 1,157,158
 960 314 960 314 922 252 c 1,159,-1
 880 192 l 1,160,-1
 832 132 l 1,161,-1
 1088 132 l 2,162,163
 1212 132 1212 132 1274 206 c 1,164,165
 1334 284 1334 284 1368 422 c 1,166,167
 1422 712 1422 712 1522 839 c 128,-1,168
 1622 966 1622 966 1782 966 c 0,169,170
 1828 966 1828 966 1874 930 c 0,171,172
 1894 910 1894 910 1920 852 c 1,173,-1
 1920 844 l 1,174,-1
 1922 836 l 1,175,-1
 1926 796 l 1,176,-1
 1928 766 l 1,177,-1
 1928 754 l 1,178,-1
 1928 746 l 1,179,-1
 1926 728 l 1,180,-1
 1924 710 l 1,181,-1
 1922 694 l 1,182,-1
 1922 676 l 1,183,184
 1958 760 1958 760 2019 824 c 128,-1,185
 2080 888 2080 888 2154 930 c 1,186,-1
 2228 962 l 1,187,188
 2270 974 2270 974 2304 974 c 0,189,190
 2380 974 2380 974 2441 881 c 128,-1,191
 2502 788 2502 788 2502 624 c 2,192,-1
 2502 616 l 1,193,-1
 2502 608 l 1,194,-1
 2502 600 l 1,195,-1
 2502 592 l 2,196,197
 2502 416 2502 416 2454 279 c 128,-1,198
 2406 142 2406 142 2314 44 c 0,0,1
448 326 m 1,199,-1
 446 344 l 2,200,201
 440 398 440 398 414 442 c 128,-1,202
 388 486 388 486 338 486 c 0,203,204
 282 486 282 486 242 450 c 1,205,206
 212 414 212 414 192 368 c 1,207,-1
 184 332 l 1,208,-1
 182 300 l 1,209,210
 182 232 182 232 209 180 c 128,-1,211
 236 128 236 128 290 128 c 0,212,213
 372 128 372 128 410 180 c 1,214,215
 448 250 448 250 448 310 c 2,216,-1
 448 326 l 1,199,-1
EndSplineSet
EndChar

StartChar: tm_aakaar
Encoding: 3006 3006 84
Width: 1106
GlyphClass: 2
Flags: W
LayerCount: 2
Fore
SplineSet
1080 856 m 2,0,1
 1080 840 1080 840 1058 824 c 1,2,-1
 1008 804 l 1,3,-1
 998 804 l 1,4,-1
 988 806 l 1,5,-1
 976 808 l 1,6,-1
 908 828 l 1,7,-1
 878 838 l 1,8,-1
 868 838 l 1,9,-1
 858 840 l 1,10,-1
 836 840 l 1,11,-1
 800 844 l 1,12,-1
 766 842 l 1,13,-1
 732 838 l 1,14,-1
 694 832 l 1,15,-1
 666 824 l 1,16,17
 706 788 706 788 744 674 c 128,-1,18
 782 560 782 560 782 452 c 2,19,-1
 782 442 l 1,20,-1
 782 434 l 1,21,-1
 782 426 l 1,22,-1
 782 418 l 1,23,-1
 782 410 l 1,24,-1
 778 364 l 2,25,26
 778 338 778 338 770 316 c 1,27,28
 758 234 758 234 732 166 c 0,29,30
 710 100 710 100 682 58 c 2,31,-1
 648 14 l 1,32,-1
 618 -2 l 1,33,-1
 606 0 l 1,34,-1
 596 2 l 1,35,-1
 564 26 l 1,36,37
 552 44 552 44 546 80 c 1,38,-1
 548 92 l 1,39,-1
 560 118 l 1,40,-1
 592 190 l 1,41,-1
 624 288 l 1,42,-1
 636 350 l 1,43,-1
 640 418 l 1,44,-1
 638 502 l 2,45,46
 638 530 638 530 624 564 c 1,47,-1
 594 668 l 1,48,-1
 580 702 l 2,49,50
 574 720 574 720 560 734 c 1,51,-1
 546 756 l 1,52,-1
 492 714 l 1,53,54
 444 670 444 670 376 586 c 1,55,-1
 356 556 l 1,56,-1
 336 526 l 1,57,-1
 302 464 l 1,58,-1
 272 400 l 1,59,60
 242 326 242 326 224 260 c 1,61,-1
 212 200 l 1,62,-1
 208 156 l 1,63,-1
 208 110 l 2,64,65
 208 78 208 78 212 74 c 2,66,-1
 214 48 l 1,67,-1
 216 32 l 2,68,69
 216 20 216 20 210 14 c 2,70,-1
 194 6 l 1,71,-1
 186 4 l 1,72,-1
 180 2 l 1,73,-1
 172 2 l 1,74,-1
 156 4 l 1,75,-1
 140 8 l 1,76,77
 112 24 112 24 97 40 c 128,-1,78
 82 56 82 56 66 108 c 1,79,-1
 66 116 l 1,80,-1
 66 126 l 1,81,-1
 64 134 l 1,82,-1
 64 144 l 1,83,-1
 64 196 l 1,84,-1
 74 254 l 2,85,86
 76 270 76 270 80 289 c 128,-1,87
 84 308 84 308 96 336 c 0,88,89
 102 354 102 354 114 385 c 128,-1,90
 126 416 126 416 136 439 c 128,-1,91
 146 462 146 462 161 490 c 128,-1,92
 176 518 176 518 190 540 c 2,93,-1
 206 568 l 1,94,-1
 222 596 l 2,95,96
 278 690 278 690 370 777 c 128,-1,97
 462 864 462 864 566 912 c 1,98,-1
 624 936 l 1,99,-1
 682 952 l 1,100,-1
 740 964 l 1,101,-1
 790 968 l 1,102,103
 930 968 930 968 1002 937 c 128,-1,104
 1074 906 1074 906 1080 864 c 1,105,-1
 1080 856 l 2,0,1
EndSplineSet
EndChar

StartChar: tm_ikaar
Encoding: 3007 3007 85
Width: 1346
GlyphClass: 2
Flags: W
LayerCount: 2
Fore
SplineSet
678 960 m 1,0,-1
 672 974 l 1,1,-1
 664 990 l 1,2,-1
 650 1040 l 1,3,-1
 644 1104 l 1,4,5
 644 1212 644 1212 732 1299 c 128,-1,6
 820 1386 820 1386 958 1386 c 0,7,8
 1092 1386 1092 1386 1194 1284 c 128,-1,9
 1296 1182 1296 1182 1296 1008 c 2,10,-1
 1296 966 l 1,11,-1
 1288 932 l 1,12,13
 1282 872 1282 872 1266 848 c 1,14,-1
 1250 798 l 1,15,-1
 1228 750 l 1,16,-1
 1186 664 l 1,17,-1
 1140 602 l 1,18,-1
 1104 580 l 1,19,-1
 1088 582 l 1,20,-1
 1070 588 l 1,21,-1
 1036 606 l 1,22,23
 1024 618 1024 618 1024 632 c 1,24,-1
 1030 646 l 1,25,-1
 1048 684 l 1,26,-1
 1094 764 l 1,27,-1
 1142 880 l 2,28,29
 1166 940 1166 940 1166 1012 c 0,30,31
 1166 1098 1166 1098 1107 1180 c 128,-1,32
 1048 1262 1048 1262 954 1262 c 0,33,34
 880 1262 880 1262 828 1220 c 1,35,36
 794 1186 794 1186 772 1104 c 1,37,-1
 772 1092 l 1,38,-1
 774 1068 l 2,39,40
 774 1048 774 1048 778 1044 c 2,41,-1
 784 1014 l 1,42,-1
 792 988 l 1,43,-1
 796 976 l 1,44,-1
 800 968 l 1,45,-1
 678 960 l 1,0,-1
EndSplineSet
EndChar

StartChar: tm_iikaar
Encoding: 3008 3008 86
Width: 1416
GlyphClass: 4
Flags: W
LayerCount: 2
Fore
SplineSet
1248 1284 m 1,0,1
 1224 1312 1224 1312 1180 1312 c 0,2,3
 1134 1312 1134 1312 1114 1286 c 0,4,5
 1110 1282 1110 1282 1103 1265 c 128,-1,6
 1096 1248 1096 1248 1090 1224 c 2,7,-1
 1088 1212 l 1,8,-1
 1088 1202 l 2,9,10
 1088 1166 1088 1166 1109 1133 c 128,-1,11
 1130 1100 1130 1100 1180 1100 c 0,12,13
 1214 1100 1214 1100 1248 1130 c 1,14,15
 1272 1160 1272 1160 1272 1198 c 0,16,17
 1272 1242 1272 1242 1248 1284 c 1,0,1
772 968 m 1,18,19
 750 988 750 988 714 1050 c 1,20,21
 696 1104 696 1104 696 1148 c 0,22,23
 696 1284 696 1284 804 1370 c 128,-1,24
 912 1456 912 1456 1060 1456 c 0,25,26
 1234 1456 1234 1456 1319 1386 c 128,-1,27
 1404 1316 1404 1316 1404 1210 c 0,28,29
 1404 1102 1404 1102 1352 1056 c 0,30,31
 1318 1028 1318 1028 1240 998 c 1,32,33
 1214 998 1214 998 1210 994 c 1,34,-1
 1182 994 l 2,35,36
 1096 994 1096 994 1024 1048 c 1,37,38
 966 1102 966 1102 966 1204 c 0,39,40
 966 1228 966 1228 977 1262 c 128,-1,41
 988 1296 988 1296 1004 1314 c 2,42,-1
 1020 1330 l 1,43,-1
 1034 1340 l 1,44,45
 944 1340 944 1340 896 1292 c 128,-1,46
 848 1244 848 1244 828 1174 c 2,47,-1
 824 1158 l 1,48,-1
 824 1142 l 1,49,-1
 824 1128 l 2,50,51
 824 1108 824 1108 836 1074 c 1,52,-1
 862 1024 l 1,53,-1
 880 996 l 1,54,-1
 906 968 l 1,55,-1
 772 968 l 1,18,19
EndSplineSet
EndChar

StartChar: tm_ukaar
Encoding: 3009 3009 87
Width: 1226
GlyphClass: 4
Flags: W
LayerCount: 2
Fore
SplineSet
770 536 m 0,0,1
 760 504 760 504 716 436 c 0,2,3
 702 416 702 416 620 360 c 1,4,-1
 574 344 l 1,5,-1
 538 336 l 1,6,-1
 502 334 l 2,7,8
 440 334 440 334 376 352 c 0,9,10
 344 362 344 362 320 373 c 128,-1,11
 296 384 296 384 262 406 c 1,12,13
 218 444 218 444 195 493 c 128,-1,14
 172 542 172 542 172 606 c 1,15,-1
 170 616 l 1,16,-1
 170 624 l 1,17,-1
 176 688 l 2,18,19
 182 732 182 732 196 754 c 1,20,21
 208 792 208 792 223 809 c 128,-1,22
 238 826 238 826 258 838 c 1,23,-1
 -338 838 l 2,24,25
 -352 838 -352 838 -360 842 c 2,26,-1
 -374 856 l 1,27,-1
 -382 874 l 1,28,-1
 -384 896 l 1,29,-1
 -384 908 l 1,30,-1
 -380 914 l 1,31,-1
 -374 936 l 1,32,-1
 -362 950 l 1,33,-1
 -340 964 l 1,34,-1
 -314 970 l 1,35,-1
 444 970 l 2,36,37
 540 970 540 970 590 948 c 1,38,39
 654 930 654 930 698 882 c 1,40,41
 730 854 730 854 766 780 c 1,42,-1
 782 720 l 1,43,-1
 788 652 l 1,44,45
 788 606 788 606 770 536 c 0,0,1
626 710 m 1,46,-1
 612 740 l 1,47,-1
 592 772 l 2,48,49
 576 794 576 794 528 824 c 1,50,51
 478 844 478 844 440 844 c 2,52,-1
 428 844 l 1,53,-1
 420 844 l 1,54,-1
 412 842 l 1,55,-1
 378 812 l 1,56,-1
 358 786 l 1,57,-1
 322 712 l 1,58,59
 308 666 308 666 308 634 c 2,60,-1
 314 576 l 1,61,-1
 320 554 l 1,62,-1
 338 526 l 2,63,64
 354 506 354 506 398 480 c 1,65,-1
 440 470 l 1,66,-1
 486 466 l 2,67,68
 510 466 510 466 543 478 c 128,-1,69
 576 490 576 490 596 512 c 1,70,-1
 626 572 l 1,71,-1
 636 618 l 1,72,-1
 638 642 l 2,73,74
 638 664 638 664 626 710 c 1,46,-1
EndSplineSet
EndChar

StartChar: tm_uukaar
Encoding: 3010 3010 88
Width: 1708
GlyphClass: 4
Flags: W
LayerCount: 2
Fore
SplineSet
1286 550 m 1,0,1
 1232 424 1232 424 1114 294 c 1,2,-1
 1008 190 l 2,3,4
 962 146 962 146 890 96 c 0,5,6
 798 36 798 36 640 -28 c 1,7,-1
 630 -30 l 1,8,-1
 622 -32 l 1,9,-1
 610 -34 l 1,10,-1
 602 -34 l 2,11,12
 580 -34 580 -34 574 -30 c 2,13,-1
 558 -22 l 1,14,-1
 542 -8 l 1,15,-1
 530 14 l 1,16,-1
 528 20 l 1,17,-1
 528 30 l 1,18,-1
 528 42 l 1,19,-1
 532 50 l 1,20,-1
 540 66 l 1,21,-1
 552 76 l 1,22,23
 686 124 686 124 796 200 c 0,24,25
 854 238 854 238 898 280 c 1,26,27
 946 320 946 320 994 376 c 0,28,29
 1036 422 1036 422 1076 480 c 0,30,31
 1086 494 1086 494 1101 517 c 128,-1,32
 1116 540 1116 540 1141 594 c 128,-1,33
 1166 648 1166 648 1179 702 c 128,-1,34
 1192 756 1192 756 1192 808 c 0,35,36
 1192 862 1192 862 1187 892 c 128,-1,37
 1182 922 1182 922 1166 966 c 0,38,39
 1142 1040 1142 1040 1093 1092 c 128,-1,40
 1044 1144 1044 1144 978 1175 c 128,-1,41
 912 1206 912 1206 834 1206 c 0,42,43
 790 1206 790 1206 728 1188 c 128,-1,44
 666 1170 666 1170 625 1140 c 128,-1,45
 584 1110 584 1110 540 1068 c 128,-1,46
 496 1026 496 1026 456 968 c 1,47,-1
 518 968 l 1,48,-1
 558 968 l 2,49,50
 582 968 582 968 596 964 c 1,51,52
 622 964 622 964 658 946 c 1,53,54
 710 928 710 928 770 878 c 0,55,56
 816 838 816 838 841 778 c 128,-1,57
 866 718 866 718 866 648 c 0,58,59
 866 574 866 574 844 532 c 1,60,61
 826 484 826 484 776 434 c 0,62,63
 740 398 740 398 672 368 c 1,64,-1
 598 346 l 1,65,-1
 540 342 l 1,66,67
 460 342 460 342 402 367 c 128,-1,68
 344 392 344 392 300 448 c 0,69,70
 286 468 286 468 272 495 c 128,-1,71
 258 522 258 522 246 556 c 1,72,-1
 232 622 l 1,73,-1
 226 694 l 1,74,-1
 226 722 l 1,75,-1
 228 742 l 1,76,-1
 236 772 l 1,77,-1
 254 838 l 1,78,-1
 -268 838 l 2,79,80
 -286 838 -286 838 -300 854 c 0,81,82
 -310 870 -310 870 -310 902 c 0,83,84
 -310 922 -310 922 -306 926 c 2,85,-1
 -292 948 l 1,86,-1
 -270 964 l 1,87,-1
 -244 970 l 1,88,-1
 306 970 l 1,89,90
 340 1046 340 1046 400 1114 c 0,91,92
 448 1174 448 1174 520 1230 c 1,93,-1
 586 1272 l 2,94,95
 626 1296 626 1296 670 1312 c 0,96,97
 764 1340 764 1340 842 1340 c 2,98,-1
 916 1340 l 1,99,-1
 970 1330 l 1,100,101
 992 1330 992 1330 1052 1300 c 2,102,-1
 1102 1278 l 1,103,-1
 1136 1254 l 2,104,105
 1164 1238 1164 1238 1210 1188 c 0,106,107
 1272 1120 1272 1120 1308 1020 c 128,-1,108
 1344 920 1344 920 1344 812 c 2,109,-1
 1342 750 l 1,110,-1
 1340 710 l 1,111,-1
 1328 670 l 1,112,113
 1322 616 1322 616 1286 550 c 1,0,1
710 706 m 1,114,115
 704 734 704 734 685 760 c 128,-1,116
 666 786 666 786 645 805 c 128,-1,117
 624 824 624 824 592 832 c 1,118,-1
 544 834 l 1,119,-1
 498 836 l 1,120,-1
 476 836 l 1,121,-1
 460 838 l 1,122,-1
 444 838 l 1,123,-1
 434 838 l 1,124,-1
 414 838 l 1,125,-1
 404 838 l 1,126,-1
 392 838 l 1,127,-1
 380 798 l 1,128,-1
 374 772 l 1,129,-1
 362 718 l 1,130,-1
 358 680 l 1,131,-1
 358 638 l 1,132,-1
 370 594 l 2,133,134
 376 570 376 570 406 530 c 1,135,136
 428 510 428 510 466 488 c 1,137,-1
 540 474 l 1,138,139
 584 474 584 474 608 483 c 128,-1,140
 632 492 632 492 670 520 c 1,141,142
 690 540 690 540 702 568 c 128,-1,143
 714 596 714 596 720 642 c 1,144,145
 720 684 720 684 710 706 c 1,114,115
EndSplineSet
EndChar

StartChar: tm_ekaar
Encoding: 3014 3014 89
Width: 1558
GlyphClass: 2
Flags: W
LayerCount: 2
Fore
SplineSet
1444 558 m 1,0,-1
 1430 494 l 2,1,2
 1418 448 1418 448 1400 408 c 2,3,-1
 1372 338 l 1,4,-1
 1332 256 l 1,5,-1
 1268 136 l 1,6,-1
 1192 20 l 1,7,-1
 1114 -86 l 2,8,9
 1074 -140 1074 -140 1026 -186 c 0,10,11
 938 -274 938 -274 878 -316 c 128,-1,12
 818 -358 818 -358 782 -364 c 1,13,14
 756 -364 756 -364 750 -360 c 2,15,-1
 738 -352 l 1,16,-1
 732 -330 l 1,17,-1
 730 -288 l 1,18,-1
 732 -276 l 1,19,-1
 740 -264 l 1,20,-1
 750 -250 l 1,21,-1
 768 -238 l 1,22,-1
 800 -214 l 1,23,-1
 826 -194 l 1,24,-1
 934 -76 l 1,25,-1
 1044 38 l 1,26,-1
 1090 96 l 1,27,-1
 1162 200 l 1,28,-1
 1204 272 l 1,29,-1
 1250 368 l 1,30,31
 1288 458 1288 458 1316 590 c 128,-1,32
 1344 722 1344 722 1344 832 c 0,33,34
 1344 944 1344 944 1310 1030 c 1,35,36
 1286 1110 1286 1110 1216 1182 c 1,37,38
 1156 1252 1156 1252 1058 1290 c 0,39,40
 1008 1308 1008 1308 960 1318 c 128,-1,41
 912 1328 912 1328 860 1328 c 0,42,43
 766 1328 766 1328 672 1286 c 0,44,45
 624 1264 624 1264 580 1235 c 128,-1,46
 536 1206 536 1206 486 1162 c 0,47,48
 386 1072 386 1072 318 944 c 0,49,50
 258 824 258 824 214 636 c 1,51,52
 234 674 234 674 267 705 c 128,-1,53
 300 736 300 736 331 752 c 128,-1,54
 362 768 362 768 404 778 c 2,55,-1
 464 788 l 1,56,-1
 496 790 l 1,57,-1
 552 784 l 2,58,59
 584 778 584 778 602 762 c 1,60,61
 652 738 652 738 698 676 c 0,62,63
 732 636 732 636 759 561 c 128,-1,64
 786 486 786 486 786 418 c 0,65,66
 786 332 786 332 762 253 c 128,-1,67
 738 174 738 174 682 112 c 1,68,69
 642 60 642 60 566 29 c 128,-1,70
 490 -2 490 -2 410 -2 c 1,71,-1
 342 4 l 1,72,-1
 312 12 l 1,73,-1
 280 26 l 2,74,75
 244 44 244 44 174 122 c 1,76,77
 136 176 136 176 100 274 c 1,78,79
 76 366 76 366 76 470 c 0,80,81
 76 638 76 638 128 812 c 0,82,83
 154 894 154 894 196 975 c 128,-1,84
 238 1056 238 1056 294 1126 c 0,85,86
 354 1206 354 1206 422 1266 c 0,87,88
 456 1294 456 1294 489 1319 c 128,-1,89
 522 1344 522 1344 564 1366 c 0,90,91
 716 1448 716 1448 890 1448 c 0,92,93
 1024 1448 1024 1448 1130 1412 c 128,-1,94
 1236 1376 1236 1376 1318 1296 c 0,95,96
 1394 1224 1394 1224 1438 1109 c 128,-1,97
 1482 994 1482 994 1482 854 c 0,98,99
 1482 708 1482 708 1444 558 c 1,0,-1
632 494 m 0,100,101
 620 544 620 544 592 580 c 0,102,103
 574 608 574 608 540 628 c 128,-1,104
 506 648 506 648 466 656 c 1,105,106
 412 656 412 656 360 632 c 0,107,108
 342 622 342 622 321 604 c 128,-1,109
 300 586 300 586 278 558 c 1,110,-1
 262 526 l 1,111,-1
 238 468 l 1,112,-1
 228 418 l 1,113,-1
 224 366 l 2,114,115
 224 322 224 322 236 276 c 1,116,-1
 266 206 l 1,117,-1
 288 178 l 1,118,-1
 326 148 l 1,119,120
 380 128 380 128 410 128 c 0,121,122
 468 128 468 128 512 151 c 128,-1,123
 556 174 556 174 590 220 c 0,124,125
 618 256 618 256 632 300 c 2,126,-1
 642 344 l 1,127,-1
 646 390 l 1,128,129
 646 452 646 452 632 494 c 0,100,101
EndSplineSet
EndChar

StartChar: tm_eekaar
Encoding: 3015 3015 90
Width: 1328
GlyphClass: 2
Flags: W
LayerCount: 2
Fore
SplineSet
1254 954 m 0,0,1
 1238 910 1238 910 1204 878 c 0,2,3
 1170 842 1170 842 1118 818 c 1,4,-1
 1066 804 l 1,5,-1
 1018 798 l 1,6,7
 954 798 954 798 905 815 c 128,-1,8
 856 832 856 832 819 868 c 128,-1,9
 782 904 782 904 756 958 c 1,10,11
 740 1002 740 1002 740 1056 c 2,12,-1
 740 1108 l 1,13,-1
 750 1152 l 1,14,-1
 758 1186 l 1,15,-1
 774 1224 l 1,16,-1
 794 1262 l 1,17,18
 800 1282 800 1282 816 1292 c 0,19,20
 842 1316 842 1316 868 1328 c 1,21,-1
 830 1334 l 1,22,-1
 788 1336 l 2,23,24
 724 1336 724 1336 684 1329 c 128,-1,25
 644 1322 644 1322 586 1296 c 0,26,27
 494 1260 494 1260 398 1176 c 0,28,29
 312 1100 312 1100 254 974 c 1,30,-1
 218 850 l 1,31,-1
 208 784 l 1,32,-1
 204 722 l 1,33,34
 204 574 204 574 239 478 c 128,-1,35
 274 382 274 382 339 297 c 128,-1,36
 404 212 404 212 500 164 c 1,37,-1
 594 132 l 1,38,39
 646 120 646 120 702 120 c 1,40,-1
 676 140 l 2,41,42
 662 150 662 150 658 162 c 0,43,44
 646 178 646 178 624 244 c 1,45,-1
 612 318 l 1,46,-1
 612 364 l 1,47,-1
 614 414 l 2,48,49
 618 440 618 440 634 470 c 0,50,51
 658 514 658 514 704 564 c 1,52,53
 738 592 738 592 802 626 c 1,54,-1
 852 642 l 1,55,-1
 900 650 l 1,56,-1
 926 652 l 1,57,58
 986 652 986 652 1034 628 c 128,-1,59
 1082 604 1082 604 1113 566 c 128,-1,60
 1144 528 1144 528 1170 464 c 1,61,-1
 1182 414 l 1,62,-1
 1186 356 l 1,63,-1
 1180 278 l 1,64,-1
 1172 244 l 1,65,-1
 1158 208 l 2,66,67
 1142 164 1142 164 1074 96 c 1,68,69
 1020 48 1020 48 941 24 c 128,-1,70
 862 0 862 0 748 0 c 0,71,72
 602 0 602 0 481 44 c 128,-1,73
 360 88 360 88 274 174 c 0,74,75
 182 266 182 266 125 408 c 128,-1,76
 68 550 68 550 68 708 c 0,77,78
 68 882 68 882 123 1004 c 128,-1,79
 178 1126 178 1126 300 1248 c 1,80,81
 398 1340 398 1340 525 1396 c 128,-1,82
 652 1452 652 1452 786 1452 c 2,83,-1
 804 1452 l 1,84,-1
 822 1452 l 2,85,86
 836 1452 836 1452 842 1448 c 1,87,-1
 856 1448 l 1,88,89
 960 1436 960 1436 1034 1404 c 0,90,91
 1108 1376 1108 1376 1162 1322 c 0,92,93
 1208 1278 1208 1278 1241 1202 c 128,-1,94
 1274 1126 1274 1126 1274 1054 c 0,95,96
 1274 1000 1274 1000 1254 954 c 0,0,1
1032 420 m 1,97,98
 1026 440 1026 440 1008 470 c 0,99,100
 1002 484 1002 484 972 502 c 1,101,-1
 912 522 l 1,102,103
 868 522 868 522 846 506 c 1,104,105
 816 494 816 494 792 464 c 2,106,-1
 770 434 l 1,107,-1
 758 406 l 1,108,-1
 748 376 l 1,109,-1
 746 346 l 1,110,-1
 752 254 l 2,111,112
 758 210 758 210 774 186 c 2,113,-1
 800 148 l 1,114,-1
 842 128 l 1,115,116
 890 128 890 128 921 141 c 128,-1,117
 952 154 952 154 978 185 c 128,-1,118
 1004 216 1004 216 1028 264 c 1,119,-1
 1038 302 l 1,120,-1
 1042 346 l 1,121,122
 1042 402 1042 402 1032 420 c 1,97,98
1136 1146 m 1,123,124
 1124 1186 1124 1186 1096 1212 c 1,125,126
 1080 1234 1080 1234 1043 1255 c 128,-1,127
 1006 1276 1006 1276 982 1276 c 0,128,129
 964 1276 964 1276 944 1262 c 128,-1,130
 924 1248 924 1248 902 1216 c 1,131,-1
 872 1156 l 1,132,-1
 864 1096 l 1,133,134
 864 1052 864 1052 872 1020 c 2,135,-1
 884 984 l 1,136,-1
 900 966 l 2,137,138
 918 942 918 942 942 930 c 128,-1,139
 966 918 966 918 1006 918 c 0,140,141
 1044 918 1044 918 1064 928 c 1,142,-1
 1112 966 l 1,143,-1
 1140 1018 l 1,144,-1
 1150 1080 l 1,145,146
 1150 1118 1150 1118 1136 1146 c 1,123,124
EndSplineSet
EndChar

StartChar: tm_aikaar
Encoding: 3016 3016 91
Width: 1812
GlyphClass: 2
Flags: W
LayerCount: 2
Fore
SplineSet
1658 196 m 1,0,1
 1614 98 1614 98 1554 22 c 0,2,3
 1518 -24 1518 -24 1492 -53 c 128,-1,4
 1466 -82 1466 -82 1422 -120 c 2,5,-1
 1354 -180 l 1,6,-1
 1326 -202 l 1,7,-1
 1302 -220 l 1,8,-1
 1274 -232 l 2,9,10
 1262 -238 1262 -238 1240 -238 c 2,11,-1
 1228 -238 l 1,12,-1
 1214 -236 l 1,13,-1
 1204 -232 l 1,14,-1
 1192 -224 l 1,15,-1
 1184 -198 l 1,16,-1
 1184 -188 l 1,17,-1
 1186 -180 l 1,18,-1
 1198 -148 l 1,19,-1
 1216 -128 l 1,20,-1
 1248 -104 l 1,21,-1
 1278 -76 l 1,22,-1
 1344 -12 l 1,23,-1
 1408 66 l 1,24,-1
 1486 174 l 1,25,26
 1510 216 1510 216 1533 268 c 128,-1,27
 1556 320 1556 320 1580 392 c 1,28,-1
 1586 416 l 1,29,-1
 1590 444 l 1,30,-1
 1596 496 l 1,31,-1
 1598 542 l 1,32,33
 1598 674 1598 674 1538 750 c 1,34,35
 1482 814 1482 814 1402 836 c 1,36,-1
 1384 836 l 1,37,-1
 1368 838 l 1,38,39
 1318 838 1318 838 1260 820 c 1,40,-1
 1154 772 l 1,41,-1
 1140 764 l 1,42,-1
 1128 756 l 1,43,44
 1154 724 1154 724 1182 644 c 0,45,46
 1202 592 1202 592 1222 474 c 1,47,-1
 1222 446 l 1,48,-1
 1224 418 l 1,49,50
 1224 256 1224 256 1139 127 c 128,-1,51
 1054 -2 1054 -2 916 -2 c 0,52,53
 818 -2 818 -2 752 82 c 1,54,55
 700 168 700 168 700 288 c 0,56,57
 700 424 700 424 765 551 c 128,-1,58
 830 678 830 678 936 772 c 1,59,60
 916 794 916 794 860 824 c 1,61,-1
 768 846 l 1,62,-1
 752 848 l 1,63,-1
 738 852 l 1,64,-1
 710 856 l 1,65,-1
 682 856 l 1,66,-1
 636 852 l 2,67,68
 614 852 614 852 590 844 c 0,69,70
 490 820 490 820 376 736 c 0,71,72
 286 668 286 668 230 562 c 1,73,-1
 216 526 l 1,74,-1
 208 494 l 1,75,76
 236 534 236 534 279 565 c 128,-1,77
 322 596 322 596 398 596 c 0,78,79
 478 596 478 596 544 512 c 128,-1,80
 610 428 610 428 610 310 c 2,81,-1
 610 286 l 2,82,83
 610 266 610 266 606 262 c 2,84,-1
 594 212 l 1,85,86
 570 136 570 136 502 66 c 1,87,88
 430 -2 430 -2 326 -2 c 0,89,90
 228 -2 228 -2 148 82 c 128,-1,91
 68 166 68 166 68 322 c 0,92,93
 68 568 68 568 247 768 c 128,-1,94
 426 968 426 968 732 968 c 2,95,-1
 744 968 l 1,96,-1
 758 968 l 1,97,-1
 770 966 l 1,98,-1
 784 966 l 1,99,-1
 854 960 l 2,100,101
 874 956 874 956 889 951 c 128,-1,102
 904 946 904 946 920 938 c 0,103,104
 962 926 962 926 1044 860 c 1,105,-1
 1066 872 l 1,106,-1
 1090 888 l 2,107,108
 1106 898 1106 898 1132 908 c 0,109,110
 1176 926 1176 926 1204 936 c 0,111,112
 1286 966 1286 966 1384 966 c 0,113,114
 1538 966 1538 966 1642 856 c 128,-1,115
 1746 746 1746 746 1746 552 c 2,116,-1
 1746 530 l 1,117,-1
 1742 488 l 1,118,-1
 1742 458 l 1,119,-1
 1734 422 l 1,120,121
 1710 294 1710 294 1658 196 c 1,0,1
484 338 m 2,122,123
 484 358 484 358 476 374 c 1,124,125
 470 408 470 408 438 442 c 1,126,127
 410 478 410 478 356 478 c 0,128,129
 300 478 300 478 240 418 c 1,130,-1
 210 358 l 1,131,-1
 200 320 l 1,132,-1
 196 282 l 1,133,-1
 196 274 l 1,134,-1
 196 266 l 2,135,136
 196 216 196 216 231 170 c 128,-1,137
 266 124 266 124 330 124 c 2,138,-1
 340 124 l 2,139,140
 388 124 388 124 440 174 c 1,141,142
 486 224 486 224 486 306 c 1,143,-1
 484 338 l 2,122,123
1066 554 m 1,144,145
 1048 622 1048 622 1016 676 c 1,146,-1
 980 638 l 1,147,-1
 928 574 l 1,148,-1
 898 524 l 1,149,-1
 870 464 l 1,150,-1
 844 384 l 1,151,-1
 834 310 l 1,152,-1
 832 286 l 1,153,-1
 832 264 l 2,154,155
 832 194 832 194 852 160 c 0,156,157
 874 130 874 130 924 124 c 1,158,-1
 932 124 l 2,159,160
 992 124 992 124 1040 214 c 128,-1,161
 1088 304 1088 304 1088 418 c 2,162,-1
 1088 448 l 1,163,-1
 1088 468 l 1,164,-1
 1082 500 l 2,165,166
 1082 520 1082 520 1066 554 c 1,144,145
EndSplineSet
EndChar

StartChar: tm_halant
Encoding: 3021 3021 95
Width: 1952
GlyphClass: 4
Flags: W
LayerCount: 2
Fore
SplineSet
1194 1168 m 0,0,1
 1160 1128 1160 1128 1100 1128 c 0,2,3
 1038 1128 1038 1128 1004 1168 c 128,-1,4
 970 1208 970 1208 970 1258 c 2,5,-1
 970 1268 l 2,6,7
 970 1302 970 1302 1006 1346 c 128,-1,8
 1042 1390 1042 1390 1100 1390 c 0,9,10
 1148 1390 1148 1390 1190 1346 c 0,11,12
 1210 1324 1210 1324 1220 1304 c 128,-1,13
 1230 1284 1230 1284 1230 1258 c 0,14,15
 1230 1210 1230 1210 1194 1168 c 0,0,1
EndSplineSet
EndChar

StartChar: tm_two
Encoding: 3048 3048 98
Width: 1425
GlyphClass: 2
Flags: W
LayerCount: 2
Fore
SplineSet
1244 70 m 1,0,-1
 1226 0 l 1,1,-1
 586 0 l 2,2,3
 429 0 429 0 429 106 c 0,4,5
 429 153 429 153 478 181.5 c 128,-1,6
 527 210 527 210 586 210 c 2,7,-1
 779 210 l 2,8,9
 867 210 867 210 928 271.5 c 128,-1,10
 989 333 989 333 989 420 c 0,11,12
 989 500 989 500 945 560.5 c 128,-1,13
 901 621 901 621 831 621 c 0,14,15
 793 621 793 621 744 595 c 1,16,17
 814 555 814 555 814 437 c 0,18,19
 814 382 814 382 772.5 344.5 c 128,-1,20
 731 307 731 307 675 307 c 0,21,22
 618 307 618 307 580 351 c 128,-1,23
 542 395 542 395 542 455 c 0,24,25
 542 565 542 565 646.5 632.5 c 128,-1,26
 751 700 751 700 884 700 c 0,27,28
 987 700 987 700 1058 629 c 128,-1,29
 1129 558 1129 558 1129 455 c 0,30,31
 1129 321 1129 321 1025.5 230.5 c 128,-1,32
 922 140 922 140 779 140 c 2,33,-1
 595 140 l 2,34,35
 551 140 551 140 551 106 c 0,36,37
 551 70 551 70 604 70 c 2,38,-1
 1244 70 l 1,0,-1
675 560 m 1,39,40
 621 516 621 516 621 473 c 0,41,42
 621 386 621 386 666 386 c 0,43,44
 709 386 709 386 709 473 c 0,45,46
 709 518 709 518 675 560 c 1,39,40
EndSplineSet
EndChar

StartChar: tm_three
Encoding: 3049 3049 99
Width: 1424
GlyphClass: 2
Flags: W
LayerCount: 2
Fore
SplineSet
1270 70 m 1,0,-1
 1252 0 l 1,1,-1
 640 0 l 1,2,-1
 657 70 l 1,3,-1
 780 70 l 2,4,5
 874 70 874 70 941 130.5 c 128,-1,6
 1008 191 1008 191 1008 280 c 0,7,8
 1008 317 1008 317 982.5 342.5 c 128,-1,9
 957 368 957 368 920 368 c 0,10,11
 890 368 890 368 865 341 c 128,-1,12
 840 314 840 314 833 280 c 2,13,-1
 815 193 l 1,14,-1
 675 193 l 1,15,-1
 764 630 l 1,16,-1
 571 630 l 1,17,-1
 444 0 l 1,18,-1
 378 0 l 1,19,-1
 517 700 l 1,20,-1
 1095 700 l 1,21,-1
 1077 630 l 1,22,-1
 902 630 l 1,23,-1
 859 403 l 1,24,25
 918 455 918 455 990 455 c 0,26,27
 1057 455 1057 455 1102.5 403.5 c 128,-1,28
 1148 352 1148 352 1148 280 c 0,29,30
 1148 209 1148 209 1090 151 c 128,-1,31
 1032 93 1032 93 947 70 c 1,32,-1
 1270 70 l 1,0,-1
EndSplineSet
EndChar

StartChar: tm_four
Encoding: 3050 3050 100
Width: 1427
GlyphClass: 2
Flags: W
LayerCount: 2
Fore
SplineSet
915 316 m 1,0,-1
 644 316 l 2,1,2
 601 316 601 316 570.5 291 c 128,-1,3
 540 266 540 266 540 228 c 0,4,5
 540 158 540 158 609.5 114 c 128,-1,6
 679 70 679 70 766 70 c 0,7,8
 811 70 811 70 844 99.5 c 128,-1,9
 877 129 877 129 887 175 c 2,10,-1
 915 316 l 1,0,-1
979 630 m 1,11,-1
 784 630 l 1,12,-1
 735 386 l 1,13,-1
 930 386 l 1,14,-1
 979 630 l 1,11,-1
1042 245 m 2,15,16
 1017 125 1017 125 940 62.5 c 128,-1,17
 863 0 863 0 766 0 c 0,18,19
 651 0 651 0 559.5 64 c 128,-1,20
 468 128 468 128 468 228 c 0,21,22
 468 294 468 294 520.5 340 c 128,-1,23
 573 386 573 386 644 386 c 2,24,-1
 669 386 l 1,25,-1
 731 700 l 1,26,-1
 1344 700 l 1,27,-1
 1329 630 l 1,28,-1
 1118 630 l 1,29,-1
 1068 386 l 1,30,-1
 1232 386 l 1,31,-1
 1248 464 l 1,32,-1
 1309 464 l 1,33,-1
 1279 316 l 1,34,-1
 1055 316 l 1,35,-1
 1042 245 l 2,15,16
EndSplineSet
EndChar

